<?xml version="1.0" standalone="no"?>
<!DOCTYPE svg PUBLIC "-//W3C//DTD SVG 1.1//EN" "http://www.w3.org/Graphics/SVG/1.1/DTD/svg11.dtd" >
<svg xmlns="http://www.w3.org/2000/svg">
<metadata>Generated by IcoMoon</metadata>
<defs>
<font id="icomoon" horiz-adv-x="1024">
<font-face units-per-em="1024" ascent="877.8572825024438" descent="-146.14271749755622" />
<missing-glyph horiz-adv-x="1024" />
<glyph unicode="&#x20;" horiz-adv-x="256.25024437927664" d="" />
<glyph unicode="&#xe900;" glyph-name="1" d="M379.811 445.091v-352.815c0-5.585-1.862-10.24-6.516-13.964-3.724-3.724-9.309-5.585-15.825-5.585h-43.753c-6.516 0-12.102 1.862-15.825 5.585s-6.516 8.378-6.516 13.964v352.815c0 5.585 1.862 10.24 6.516 13.964 3.724 3.724 9.309 5.585 15.825 5.585h43.753c6.516 0 12.102-1.862 15.825-5.585s6.516-8.378 6.516-13.964zM555.753 445.091v-352.815c0-5.585-1.862-10.24-6.516-13.964-3.724-3.724-9.309-5.585-15.825-5.585h-43.753c-6.516 0-12.102 1.862-15.825 5.585s-6.516 8.378-6.516 13.964v352.815c0 5.585 1.862 10.24 6.516 13.964 3.724 3.724 9.309 5.585 15.825 5.585h43.753c6.516 0 12.102-1.862 15.825-5.585 4.655-3.724 6.516-8.378 6.516-13.964zM731.695 445.091v-352.815c0-5.585-1.862-10.24-6.516-13.964-3.724-3.724-9.309-5.585-15.825-5.585h-43.753c-6.516 0-12.102 1.862-15.825 5.585s-6.516 8.378-6.516 13.964v352.815c0 5.585 1.862 10.24 6.516 13.964 3.724 3.724 9.309 5.585 15.825 5.585h43.753c6.516 0 12.102-1.862 15.825-5.585 4.655-3.724 6.516-8.378 6.516-13.964zM820.131 1.978v579.956h-616.262v-579.956c0-9.309 1.862-17.687 4.655-25.135s6.516-13.033 10.24-16.756c3.724-3.724 5.585-5.585 7.447-5.585h572.509c0.931 0 3.724 1.862 7.447 5.585s6.516 9.309 10.24 16.756c1.862 8.378 3.724 15.825 3.724 25.135zM358.4 661.062h308.131l-33.513 71.68c-2.793 3.724-7.447 5.585-12.102 6.516h-217.833c-4.655-0.931-8.378-2.793-12.102-6.516l-32.582-71.68zM996.073 641.513v-39.098c0-5.585-1.862-10.24-6.516-13.964-3.724-3.724-9.309-5.585-15.825-5.585h-66.095v-579.956c0-33.513-11.171-63.302-32.582-87.505-21.411-25.135-47.476-37.236-77.265-37.236h-571.578c-29.789 0-55.855 12.102-77.265 35.375s-32.582 53.062-32.582 86.575v582.749h-66.095c-6.516 0-12.102 1.862-15.825 5.585-4.655 2.793-6.516 7.447-6.516 13.964v39.098c0 5.585 1.862 10.24 6.516 13.964 3.724 3.724 9.309 5.585 15.825 5.585h212.247l48.407 102.4c6.516 14.895 19.549 27.927 37.236 38.167s35.375 15.825 53.993 15.825h219.695c18.618 0 36.305-5.585 53.993-15.825s29.789-23.273 37.236-38.167l48.407-102.4h212.247c6.516 0 12.102-1.862 15.825-5.585 4.655-3.724 6.516-8.378 6.516-13.964v0z" />
<glyph unicode="&#xe901;" glyph-name="x" d="M41 458.691c9.318 27.022 27.022 41.932 54.046 45.66l249.728 38.204 107.16 231.091c12.114 27.022 31.682 40.068 60.568 40.068s49.386-13.046 61.5-40.068l107.16-230.16 248.796-38.204c27.022-3.728 44.728-19.568 53.114-45.66 8.386-27.022 3.728-49.386-13.978-68.954l-181.704-188.228 41-259.046c4.66-27.954-3.728-50.318-27.954-67.091-11.182-9.318-24.228-13.978-39.136-13.978-11.182 0-22.364 2.796-33.546 7.454l-215.25 122.068-214.318-120.204c-11.182-5.59-22.364-7.454-33.546-7.454-14.91 0-27.954 4.66-39.136 13.978-24.228 16.772-33.546 38.204-28.886 67.091l41 259.046-178.91 185.432c-20.5 19.568-26.090 41.932-17.704 68.954v0zM107.16 438.191l181.704-187.296c15.84-16.772 21.432-37.272 17.704-59.636l-41.932-259.046 214.318 120.204c10.25 5.59 21.432 7.454 33.546 7.454s23.296-2.796 33.546-7.454l215.25-120.204-42.864 259.046c-3.728 23.296 2.796 42.864 18.636 59.636l181.704 187.296-246.932 36.34c-25.16 3.728-41.932 17.704-51.25 40.068l-108.091 229.228-107.16-229.228c-10.25-23.296-27.954-35.41-52.182-38.204l-246-38.204z" />
<glyph unicode="&#xe902;" glyph-name="4" d="M758.31 291.382c-69.021 0-130.582-33.579-170.69-84.879l-105.399 68.088c2.799 15.855 5.595 31.713 5.595 47.568 0 27.048-5.595 52.233-13.992 75.552l99.801 54.099c39.174-61.56 107.265-102.6 184.68-102.6 121.254 0 221.057 101.667 221.057 225.72s-98.869 225.72-221.057 225.72c-121.254 0-220.125-101.667-220.125-225.72 0-21.453 3.732-41.040 9.327-60.627l-104.466-55.965c-40.107 54.099-103.533 90.474-176.286 90.474-121.254 0-220.125-100.734-220.125-225.72s98.869-225.72 220.125-225.72c82.080 0 152.967 46.636 191.21 114.726l95.139-61.56 3.732 6.528c-12.126-27.981-19.587-58.761-19.587-91.407 0-124.986 98.869-225.72 220.125-225.72s221.057 101.667 221.057 225.72c0.933 124.986-97.937 225.72-220.125 225.72zM758.31 733.496c85.812 0 155.766-71.82 155.766-159.497s-69.954-159.497-155.766-159.497-155.766 71.82-155.766 159.497 70.887 159.497 155.766 159.497zM266.761 163.598c-85.812 0-155.766 71.82-155.766 159.497s69.954 159.497 155.766 159.497 155.766-71.82 155.766-159.497-69.954-159.497-155.766-159.497zM758.31-92.902c-85.812 0-155.766 71.82-155.766 159.497s69.954 159.497 155.766 159.497 155.766-72.753 155.766-160.43-69.954-158.565-155.766-158.565z" />
<glyph unicode="&#xe903;" glyph-name="12" d="M37.308 71.258v507.406c0 42.906 11.193 79.281 34.512 110.061s51.3 46.636 84.879 46.636h713.538c33.579 0 61.56-15.855 84.879-46.636 22.386-30.78 34.512-67.157 34.512-110.061v-508.337c0-43.839-11.193-81.147-34.512-110.994-22.386-29.847-51.3-44.772-84.879-44.772h-713.538c-33.579 0-61.56 14.925-84.879 44.772s-34.512 67.157-34.512 111.927zM97.005 71.258c0-21.453 5.595-40.107 16.788-55.032s25.185-23.319 41.973-24.252h713.538c15.855 0 29.847 8.394 41.973 24.252s17.721 34.512 16.788 55.032l-231.317 228.519-129.649-125.919c-16.788-16.788-34.512-25.185-54.099-25.185s-37.308 8.394-54.099 25.185l-129.649 125.919-232.25-228.519zM97.005 119.76l207.066 205.2-207.066 205.2v-410.401zM97.005 578.662l232.25-230.385 26.116-24.252 123.12-122.187c10.26-10.26 21.453-14.925 35.445-14.925s25.185 4.665 35.445 14.925l380.554 376.823c0 20.52-5.595 39.174-16.788 55.032s-25.185 23.319-41.973 22.386h-714.471c-15.855 0-29.847-7.461-41.973-22.386s-17.721-32.646-17.721-55.032v0zM721 324.961l207.066-205.2v410.401l-207.066-205.2z" />
<glyph unicode="&#xe904;" glyph-name="2" d="M513.001 800.653c-262.097 0-475.693-213.595-475.693-475.693s213.595-475.693 475.693-475.693 475.693 213.595 475.693 475.693-213.595 475.693-475.693 475.693zM828.264 78.72c-8.394 14.925-17.721 29.847-28.914 43.839-42.906 54.099-97.005 93.273-162.294 116.592 46.636 38.241 70.887 87.677 70.887 146.439 0.933 52.233-17.721 97.005-56.897 133.38s-84.879 55.032-136.179 55.032c-52.233 0-97.005-18.654-135.246-55.032s-57.828-81.147-57.828-133.38c0-59.694 24.252-109.129 72.753-147.372-50.367-19.587-95.139-51.3-134.313-94.206-21.453-24.252-39.174-49.434-52.233-76.485-59.694 69.954-95.139 159.497-95.139 257.433 0 221.057 180.017 400.141 400.141 400.141s400.141-179.085 400.141-400.141c0-92.34-31.713-178.152-84.879-246.24z" />
<glyph unicode="&#xe905;" glyph-name="3" d="M360.967 324.961c0-52.543-34.242-95.139-76.485-95.139s-76.485 42.596-76.485 95.139c0 52.543 34.242 95.139 76.485 95.139s76.485-42.596 76.485-95.139zM589.486 324.961c0-52.543-34.242-95.139-76.485-95.139s-76.485 42.596-76.485 95.139c0 52.543 34.242 95.139 76.485 95.139s76.485-42.596 76.485-95.139zM818.004 324.961c0-52.543-34.242-95.139-76.485-95.139s-76.485 42.596-76.485 95.139c0 52.543 34.242 95.139 76.485 95.139s76.485-42.596 76.485-95.139zM931.797 800.653h-837.591c-21.453 0-38.241-21.453-38.241-47.568v-282.617h89.541v213.595c0 5.595 3.732 9.327 7.461 9.327h720.068c4.665 0 7.461-4.665 7.461-9.327v-216.393h89.541v285.415c0 27.048-16.788 47.568-38.241 47.568zM880.497-34.141c0-5.595-3.732-9.327-7.461-9.327h-720.068c-4.665 0-7.461 4.665-7.461 9.327v170.69h-89.541v-239.712c0-26.116 16.788-47.568 38.241-47.568h837.591c21.453 0 38.241 21.453 38.241 47.568v237.846h-89.541v-168.825z" />
<glyph unicode="&#xf001;" glyph-name="uniF002" horiz-adv-x="955" d="M660.863 334.582q0 106.128-75.438 181.565t-181.565 75.438-181.565-75.438-75.438-181.565 75.438-181.565 181.565-75.438 181.565 75.438 75.438 181.565zM954.579-142.707q0-29.83-21.798-51.629t-51.629-21.798q-30.977 0-51.629 21.798l-196.768 196.194q-102.686-71.133-228.893-71.133-82.034 0-156.898 31.838t-129.075 86.050-86.050 129.075-31.838 156.898 31.838 156.898 86.050 129.075 129.075 86.050 156.898 31.838 156.898-31.838 129.075-86.050 86.050-129.075 31.838-156.898q0-126.206-71.133-228.893l196.768-196.768q21.227-21.227 21.227-51.629z" />
<glyph unicode="&#xf002;" glyph-name="phone" d="M215.127-40.74v704.32c0 22.548 7.812 41.918 23.426 58.114s34.985 24 58.114 23.426h433.71c22.548 0 41.631-7.812 57.246-23.426s23.713-34.985 24.29-58.114v-704.32c0-22.548-8.098-41.918-24.29-58.114-16.196-16.196-35.276-24-57.246-23.426h-433.715c-22.548 0-41.918 7.812-58.114 23.426-16.191 15.615-24 34.99-23.421 58.114zM269.773-40.74c0-8.088 2.31-14.742 6.933-19.958s11.277-7.817 19.958-7.801h433.71c7.512 0 13.876 2.6 19.093 7.801s7.817 11.853 7.801 19.958v53.779h-487.494v-53.779zM269.773 40.8h487.489v541.269h-487.489v-541.269zM269.773 609.798h487.489v53.784c0 8.088-2.6 14.742-7.801 19.958s-11.563 7.527-19.093 6.933h-433.71c-8.088 0-14.742-2.31-19.958-6.933s-7.527-11.277-6.933-19.958v-53.784zM458.871 650.579c0 8.667 4.623 12.998 13.866 12.998h81.539c8.667 0 12.998-4.333 12.998-12.998 0-8.667-4.333-13.295-12.998-13.892h-81.539c-9.243 0-13.866 4.633-13.866 13.892zM486.626-27.738c0 9.243 4.333 13.866 12.998 13.866h26.891c9.243 0 13.866-4.623 13.866-13.866s-4.623-13.576-13.866-12.998h-26.891c-8.661-0.005-12.998 4.328-12.998 12.998z" />
<glyph unicode="&#xf003;" glyph-name="uniF003" d="M954.579-50.921v440.575q-18.358-20.651-39.585-37.862-153.743-118.174-244.382-193.899-29.258-24.667-47.613-38.435t-49.621-27.822-58.799-14.056h-1.147q-27.537 0-58.799 14.056t-49.621 27.822-47.613 38.435q-90.639 75.725-244.382 193.899-21.227 17.211-39.585 37.862v-440.575q0-7.457 5.449-12.909t12.909-5.449h844.437q7.457 0 12.909 5.449t5.449 12.909zM954.579 552.001v14.056t-0.286 7.457-1.722 7.171-3.155 5.163-5.163 4.302-8.032 1.433h-844.437q-7.457 0-12.909-5.449t-5.449-12.909q0-96.376 84.328-162.922 110.718-87.197 230.040-181.852 3.441-2.869 20.080-16.923t26.39-21.513 25.529-18.072 28.969-15.774 24.667-5.163h1.147q11.473 0 24.667 5.163t28.969 15.774 25.529 18.072 26.39 21.513 20.080 16.923q119.322 94.654 230.040 181.852 30.977 24.667 57.653 66.26t26.675 75.438zM1028.010 573.228v-624.149q0-37.862-26.961-64.823t-64.823-26.961h-844.437q-37.862 0-64.823 26.961t-26.961 64.823v624.149q0 37.862 26.961 64.823t64.823 26.961h844.437q37.862 0 64.823-26.961t26.961-64.823z" />
<glyph unicode="&#xf004;" glyph-name="gouwuche" d="M51.824 637.352c0 9.994 3.24 18.23 9.724 24.715s14.721 9.724 24.715 9.724h175.999c7.98 0 15.221-2.243 21.721-6.733s10.49-10.985 11.971-19.477l17.984-73.396h504.799l5.237 15.733c4.987 15.981 15.717 23.964 32.195 23.964 4.487 0 7.735-0.497 9.724-1.493 7.481-1.998 13.474-5.993 17.984-11.996 4.502-6.003 6.749-12.744 6.733-20.228 0-2.494-0.497-5.737-1.493-9.724l-88.383-294.334c-1.998-7.481-5.988-13.474-11.971-17.984-5.988-4.502-12.728-6.749-20.228-6.733h-418.659c-7.98 0-14.975 2.494-20.97 7.481-6.003 4.987-10.25 11.23-12.744 18.727l-80.882 328.051h-149.039c-9.494 0-17.479 3.24-23.964 9.724s-9.978 14.475-10.475 23.964l0.026 0.005zM330.444 504.026l46.435-185.749h366.236l1.493 6.733 53.919 178.992-468.084 0.026zM361.891 141.528c0 18.969 6.989 35.2 20.97 48.68 13.984 13.484 30.209 20.228 48.68 20.228s34.698-6.744 48.68-20.228c13.984-13.484 20.724-29.711 20.228-48.68s-7.24-35.2-20.228-48.68c-12.987-13.484-29.214-20.228-48.68-20.228-19.472 0-35.699 6.744-48.68 20.228s-19.97 29.711-20.97 48.68zM410.577 445.615h124.323v-68.906h-109.362l-14.965 68.906zM594.077 376.707l0.751 68.906h121.329l-17.984-68.906h-104.098zM621.785 141.528c0 18.969 6.989 35.2 20.97 48.68 13.984 13.484 30.209 20.228 48.68 20.228s34.698-6.744 48.68-20.228c13.984-13.484 20.724-29.711 20.228-48.68s-7.24-35.2-20.228-48.68c-12.987-13.484-29.214-20.228-48.68-20.228-19.472 0-35.699 6.744-48.68 20.228s-19.975 29.711-20.97 48.68z" />
<glyph unicode="&#xf005;" glyph-name="nophone" d="M513.502 747.898c-241.15 0-436.477-195.321-436.477-436.477 0-241.15 195.327-436.477 436.477-436.477 241.162 0 436.477 195.327 436.477 436.477 0 241.157-195.316 436.477-436.477 436.477zM513.502-83.129c-217.982 0-394.545 176.562-394.545 394.55 0 217.992 176.562 394.555 394.545 394.555 217.992 0 394.555-176.562 394.555-394.555 0-217.987-176.562-394.55-394.555-394.55zM513.502 616.956c72.234 0 130.944-58.708 130.944-130.944 0-72.456-58.708-130.944-130.944-130.944s-130.944 58.488-130.944 130.944c0 72.239 58.708 130.944 130.944 130.944zM513.502-2.843c-109.341 0-205.365 55.87-261.886 140.545 1.094 86.639 174.812 134.435 261.886 134.435s260.576-47.798 261.886-134.435c-56.526-84.678-152.547-140.545-261.886-140.545z" />
<glyph unicode="&#xf006;" glyph-name="bhe" d="M157.743 362.534h-88.817v311.973c0 49.148 39.833 88.985 88.817 88.985h311.372v-88.914h-311.372c0.128 0 0-312.045 0-312.045zM469.819-36.574v-89.078h-311.917c-49.137 0-88.97 39.951-88.97 89.078v312.292h88.914v-312.292c0-0.077 311.973 0 311.973 0zM869.263 274.464h88.811v-311.316c0-49.045-39.833-88.801-88.811-88.801h-311.362v88.919h311.362c-0.087 0 0 311.198 0 311.198zM557.962 674.898v88.599h311.316c49.045 0 88.801-39.736 88.801-88.599v-310.613h-88.914v310.613c-0.005-0.256-311.203 0-311.203 0zM291.217 363.381h444.575v-88.914h-444.575v88.914z" />
<glyph unicode="&#xf007;" glyph-name="blisten" d="M782.845 458.904c0 153.676-125.043 278.719-278.719 278.719s-278.724-125.043-278.724-278.719v-25.388c-83.692-0.43-151.776-68.183-152.027-151.576 0.2-84.25 68.717-152.434 152.813-152.434h49.893v329.392c0 125.732 102.316 228.046 228.046 228.046s228.046-102.316 228.046-228.046v-329.397c0-55.895-45.454-101.356-101.356-101.356h-80.677c-10.49 29.419-38.363 50.676-71.352 50.676h-50.681c-41.907 0-76.013-34.106-76.013-76.013 0-41.912 34.106-76.013 76.013-76.013h50.676c32.992 0 60.859 21.26 71.352 50.676h80.677c83.845 0 152.027 68.183 152.027 152.027 83.641 0.481 151.776 68.614 152.027 152.511-0.43 83.464-68.492 151.067-152.027 151.499v25.393zM225.402 180.18c-55.87 0.43-101.279 45.836-101.356 101.504 0.077 55.54 45.48 100.769 101.356 101.202v-202.706zM478.786-22.526h-50.676c-13.963 0-25.337 11.379-25.337 25.337s11.379 25.337 25.337 25.337h50.676c13.963 0 25.337-11.379 25.337-25.337s-11.374-25.337-25.337-25.337zM782.845 180.18v202.706c55.796-0.43 101.176-45.583 101.356-100.872-0.179-55.895-45.557-101.402-101.356-101.832z" />
<glyph unicode="&#xf008;" glyph-name="binfo" d="M816.264 330.657c21.808 0 39.489 17.679 39.489 39.489s-17.679 39.489-39.489 39.489-39.489-17.679-39.489-39.489 17.674-39.489 39.489-39.489zM474.014 409.638c21.808 0 39.489 17.679 39.489 39.489s-17.679 39.489-39.489 39.489c-21.808 0-39.489-17.679-39.489-39.489s17.674-39.489 39.489-39.489zM684.628 330.657c21.808 0 39.489 17.679 39.489 39.489s-17.679 39.489-39.489 39.489c-21.808 0-39.489-17.679-39.489-39.489s17.679-39.489 39.489-39.489zM342.378 409.638c21.808 0 39.489 17.679 39.489 39.489s-17.679 39.489-39.489 39.489c-21.808 0-39.489-17.679-39.489-39.489s17.679-39.489 39.489-39.489zM210.742 409.638c21.808 0 39.489 17.679 39.489 39.489s-17.679 39.489-39.489 39.489-39.489-17.679-39.489-39.489 17.679-39.489 39.489-39.489zM908.406 567.427h-289.596v26.385c0 29.099-23.616 52.767-52.653 52.767h-447.559c-29.038 0-52.653-23.667-52.653-52.767v-290.216c0-29.099 23.616-52.762 52.653-52.762h78.982v-49.204c0-29.125 23.667-52.819 52.814-52.819 12.35 0 23.928 4.246 33.568 12.293l107.441 89.73h69.452v-52.767c0-29.099 23.616-52.767 52.653-52.767h121.972l107.574-91.495c10.086-8.385 22.246-12.739 34.544-12.739 7.609 0 15.272 1.665 22.538 5.063 18.061 8.492 29.302 26.277 29.302 46.461v52.71h78.982c29.038 0 52.653 23.667 52.653 52.767v316.601c-0.010 29.099-23.626 52.762-52.664 52.762zM357.675 291.358l-107.441-89.73v49.204c0 29.099-23.616 52.762-52.653 52.762h-78.982v290.216h447.559v-290.216h-174.76c-12.293 0.005-24.3-4.349-33.722-12.237zM908.406 198.065h-78.982c-29.038 0-52.653-23.667-52.653-52.767l0.184-51.13-107.39 91.362c-9.53 8.098-21.639 12.529-34.091 12.529h-121.972v52.767h52.653c29.038 0 52.653 23.667 52.653 52.762v211.076h289.596v-316.601z" />
<glyph unicode="&#xf009;" glyph-name="b24" d="M542.521 396.699c12.713 14.342 21.347 25.126 26.39 32.966 7.445 11.614 12.998 22.947 16.493 33.686 3.562 10.964 5.371 22.676 5.371 34.816 0 21.582-6.392 39.92-19.011 54.498-12.416 14.347-29.491 21.623-50.755 21.623-19.405 0-35.868-6.223-48.932-18.491-13.382-12.575-21.439-33.258-23.933-61.472l-0.546-6.152 48.586-5.926 0.287 6.188c0.576 12.416 2.897 21.229 6.897 26.195 4.082 5.063 9.535 7.522 16.657 7.522 7.174 0 12.749-2.377 16.58-7.071 3.765-4.605 5.591-11.241 5.591-20.269 0-8.411-2.479-17.223-7.368-26.21-3.693-6.785-14.393-20.243-31.817-40.002-22.62-25.731-37.419-45.928-45.234-61.753-7.878-15.94-12.641-33.064-14.148-50.905l-0.566-6.708h147.709v56.943h-73.719c0.684 1.017 1.406 2.044 2.162 3.076 3.189 4.374 11.031 13.607 23.298 27.442zM654.706 414.414l33.881 61.804v-61.804h-33.881zM688.581 309.238v0h47.196v50.646h25.48v54.533h-25.48v159.859h-39.858l-91.628-164.115v-50.282h84.291v-50.64zM905.897 429.655c0 171.711-136.678 312.030-306.91 317.992l-11.282 0.2v-57.85c143.565 0 260.341-116.776 260.341-260.341h57.85zM768.431 115.186l-112.816 88.399c-21.956 17.183-55.627 15.185-75.352-4.512l-42.549-42.549-221.32 221.346 42.929 42.929c19.871 19.928 22.128 51.865 5.263 74.34l-86.232 114.983c-19.928 26.615-62.222 29.65-85.797 6.106l-46.399-46.399c-53.343-53.368-65.462-133.989-30.198-200.606 88.95-167.89 223.691-305.437 389.759-397.682l21.895-12.181c25.311-14.061 53.98-21.465 82.875-21.465 45.62 0 88.542 17.761 120.771 50.016l42.291 42.261c11.512 11.512 17.5 27.422 16.545 43.68-0.986 16.232-8.91 31.299-21.664 41.336zM691.021 28.147c-35.087-35.118-92.246-43.216-135.78-19.037l-21.895 12.181c-156.408 86.896-283.31 216.4-367.077 374.544-23.519 44.432-15.42 98.177 20.136 133.757l46.425 46.399 86.227-114.988-42.898-42.898c-10.764-10.764-16.688-25.047-16.688-40.237 0-15.216 5.932-29.507 16.688-40.237l221.32-221.346c21.521-21.521 58.981-21.465 80.502 0l42.523 42.523 112.786-88.43-42.266-42.23z" />
<glyph unicode="&#xf010;" glyph-name="zhidingsvg" d="M513.534 718.578l-373.733-373.733 88.076-88.138 285.656 285.534 285.595-285.534 88.076 88.138zM733.246 131.094v-75.916h29.563c21.291 0 35.525 1.396 42.704 4.195s12.806 7.179 16.883 13.141c4.077 5.962 6.111 12.895 6.111 20.801 0 9.73-2.861 17.761-8.574 24.089-5.722 6.326-12.957 10.28-21.715 11.863-6.449 1.216-19.405 1.824-38.867 1.824h-26.1zM679.231-91.176v267.525h86.68c32.849 0 54.257-1.339 64.235-4.016 15.328-4.016 28.165-12.744 38.504-26.19 10.342-13.443 15.513-30.81 15.513-52.101 0-16.422-2.984-30.229-8.941-41.423-5.962-11.195-13.535-19.98-22.717-26.369-9.187-6.387-18.522-10.613-28.011-12.682-12.895-2.556-31.571-3.832-56.024-3.832h-35.22v-100.913h-54.016zM433.242 42.771c0-30.293 6.994-53.256 20.985-68.886s31.755-23.452 53.286-23.452 39.205 7.755 53.015 23.268c13.807 15.513 20.709 38.78 20.709 69.8 0 30.656-6.723 53.527-20.166 68.614s-31.299 22.63-53.558 22.63-40.207-7.634-53.836-22.901c-13.627-15.272-20.438-38.291-20.438-69.070zM377.584 40.943c0 27.253 4.077 50.123 12.227 68.614 6.085 13.622 14.388 25.849 24.909 36.68s22.050 18.855 34.58 24.089c16.668 7.056 35.889 10.582 57.666 10.582 39.415 0 70.955-12.227 94.617-36.68s35.494-58.457 35.494-102.008c0-43.19-11.737-76.979-35.22-101.371s-54.868-36.588-94.161-36.588c-39.782 0-71.414 12.135-94.896 36.408-23.478 24.269-35.215 57.691-35.215 100.272zM227.215-91.176v222.27h-79.382v45.255h212.595v-45.255h-79.197v-222.27h-54.016z" />
<glyph unicode="&#xf011;" glyph-name="bkai" d="M179.942 352.311h-83.274v292.512c0 46.082 37.346 83.433 83.274 83.433h291.942v-83.366h-291.942c0.118 0 0-292.578 0-292.578zM472.546-21.894v-83.521h-292.46c-46.072 0-83.417 37.461-83.417 83.521v292.805h83.366v-292.805c0-0.077 292.512 0 292.512 0zM847.069 269.735h83.269v-291.895c0-45.985-37.346-83.259-83.269-83.259h-291.937v83.371h291.937c-0.087 0 0 291.783 0 291.783zM555.189 645.187v83.069h291.895c45.985 0 83.259-37.259 83.259-83.069v-291.233h-83.371v291.233c0-0.241-291.783 0-291.783 0zM471.817 353.106h-166.73v-83.371h166.73v-166.73h83.371v166.73h166.73v83.371h-166.73v166.73h-83.371z" />
<glyph unicode="&#xf012;" glyph-name="s1" d="M526.607 646.995c-122.708 0-222.536-100.949-222.536-225.038s99.829-225.038 222.536-225.038 222.536 100.954 222.536 225.038c0 124.088-99.829 225.038-222.536 225.038zM526.607 247.618c-30.815 0-59.699 8.324-84.765 22.702 5.002 42.873 40.875 76.379 84.765 76.379 43.885 0 79.758-33.502 84.765-76.374-25.063-14.388-53.95-22.707-84.765-22.707zM493.774 473.225c0 18.281 14.726 33.171 32.828 33.171s32.828-14.893 32.828-33.171c0-18.281-14.726-33.171-32.828-33.171s-32.828 14.888-32.828 33.171zM657.15 308.407c-15.451 42.138-50.461 74.735-93.998 86.664 29.281 13.866 49.728 43.555 49.728 78.149 0 47.752-38.703 86.602-86.273 86.602s-86.273-38.847-86.273-86.597c0-34.595 20.448-64.291 49.728-78.149-43.534-11.93-78.547-44.525-93.998-86.664-26.013 30.539-41.861 70.175-41.861 113.546 0 96.134 77.338 174.344 172.403 174.344s172.403-78.211 172.403-174.344c0-43.375-15.845-83.013-41.861-113.552zM826.282 520.421l-15.935 110.022-98.577 49.255-76.769 79.65-108.401-18.829-108.401 18.829-76.769-79.65-98.577-49.255-15.94-110.022-51.033-98.469 51.033-98.464 15.935-110.017 88.46-44.207v-226.019l84.97 37.279v-72.897l110.312 44.519 110.317-44.514v72.897l84.97-37.279v226.019l88.46 44.202 15.94 110.017 51.033 98.469-51.027 98.464zM416.292 35.798l-34.831-15.287v102.183l34.831-36.14v-50.755zM586.785 2.529v-20.079l-60.178 24.284-60.178-24.284v110.46l60.178 10.49 60.178-10.49v-90.381zM671.754 20.511l-34.831 15.287v50.755l34.831 36.14v-102.183zM777.916 339.381l-13.361-92.241-82.69-41.316-64.358-66.77-90.901 15.789-90.906-15.789-64.358 66.77-82.69 41.316-13.361 92.241-42.796 82.577 42.796 82.577 13.361 92.246 82.69 41.316 64.358 66.77 90.901-15.789 90.901 15.789 64.358-66.77 82.69-41.316 13.361-92.246 42.796-82.577-42.791-82.577z" />
<glyph unicode="&#xf013;" glyph-name="s2" d="M859.553 607.244v44.535h-269.691c-28.495 0-55.663-10.923-76.357-29.768-20.694 18.844-47.865 29.768-76.357 29.768h-269.691v-44.535h-87.907v-567.821h357.599c28.495 0 55.663 10.923 76.357 29.768 20.694-18.844 47.865-29.768 76.357-29.768h44.146v-68.364l73.806 41.79 73.806-41.79v68.364h165.836v567.821h-87.902zM581.68 188.468v111.82h53.873v34.034h-53.873v21.813h33.527v34.034h-169.378v26.492h141.67v92.991h-175.705v-153.518h135.853v-21.813h-156.192v-34.034h156.192v-27.396h-82.895v-34.034h82.895v-59.786c-11.108-1.982-22.476-3.194-34.137-3.194-107.060 0-194.15 87.090-194.15 194.145s87.090 194.145 194.15 194.145c107.050 0 194.145-87.090 194.145-194.145-0.005-83.044-52.5-153.866-125.973-181.554zM445.829 450.703v24.914h107.635v-24.914h-107.635zM219.014 555.051v44.535h218.131c5.768 0 11.379-0.93 16.775-2.53-100.764-26.482-175.412-118.090-175.412-227.046 0-77.709 38.081-146.523 96.384-189.329h-155.879v374.37zM437.145 91.616h-306.038v463.437h36.344v-426.557h269.691c16.642 0 32.47-6.815 44.048-18.44-11.584-11.63-27.406-18.44-44.048-18.44zM634.007 91.616h-44.146c-16.642 0-32.47 6.815-44.048 18.44 11.584 11.625 27.406 18.44 44.048 18.44h44.146v-36.88zM730.063 60.056l-22.246 12.595-22.246-12.595v68.435h44.489v-68.435zM652.369 180.873c58.16 42.822 96.134 111.549 96.134 189.144 0 108.949-74.654 200.564-175.407 227.046 5.391 1.603 11.010 2.53 16.77 2.53h218.131v-418.9h-26.369v0.189h-129.259zM895.898 91.616h-114.274v36.88h77.929v426.557h36.344v-463.437z" />
<glyph unicode="&#xf014;" glyph-name="s3" d="M558.907 347.787c-9.335 6.229-20.648 10.408-33.763 12.534v49.142c18.235-5.222 18.25-17.223 18.25-22.492h43.037c0 23.222-9.519 41.841-27.529 53.857-9.335 6.229-20.648 10.408-33.763 12.534v22.41h-43.037v-22.41c-13.115-2.126-24.428-6.31-33.763-12.534-18.010-12.017-27.529-30.636-27.529-53.857s9.519-41.841 27.529-53.857c9.335-6.229 20.648-10.408 33.763-12.539v-49.142c-18.235 5.222-18.25 17.223-18.25 22.492h-43.037c0-23.222 9.519-41.841 27.529-53.857 9.335-6.229 20.648-10.408 33.763-12.534v-22.41h43.037v22.41c13.115 2.126 24.428 6.31 33.763 12.534 18.010 12.017 27.529 30.636 27.529 53.857-0.005 23.222-9.519 41.846-27.529 53.862zM482.102 364.481c-18.235 5.222-18.25 17.218-18.25 22.492s0.020 17.275 18.25 22.492v-44.983zM525.144 271.435v44.988c18.235-5.222 18.25-17.218 18.25-22.492s-0.020-17.275-18.25-22.497zM526.53 738.804v0.914h-46.067v-0.551c-205.859-10.736-369.475-181.046-369.475-389.574 0-215.46 174.668-390.129 390.129-390.129s390.129 174.668 390.129 390.129c0 206.906-161.111 376.1-364.715 389.209zM776.904 166.13h-82.772c14.178 48.423 22.804 102.838 24.633 160.424h125.556c-3.888-58.734-22.497-113.413-52.193-160.424h-15.226zM480.464 8.248c-41.075 10.434-78.838 51.355-106.373 111.815h106.373v-111.815zM526.53 9.497v110.568h101.612c-26.466-58.124-62.381-98.28-101.612-110.568zM356.366 166.13c-17.090 52.933-27.232 115.713-27.232 183.459 0 62.913 8.762 121.541 23.693 171.988h296.584c14.934-50.446 23.693-109.068 23.693-171.988 0-67.746-10.142-130.526-27.232-183.459h-289.507zM210.105 166.13c-29.701 47.012-48.31 101.688-52.193 160.424h125.556c1.829-57.584 10.459-111.999 24.633-160.424h-97.998zM214.326 521.573h90.571c-12.268-45.49-19.743-95.866-21.429-148.951h-125.561c3.573 54.021 19.605 104.6 45.265 148.951h11.154zM526.53 689.677c41.764-13.080 79.783-57.727 106.629-122.039h-106.629v122.039zM480.464 690.926v-123.286h-111.395c27.867 66.74 67.767 112.21 111.395 123.286zM718.771 372.619c-1.685 53.087-9.166 103.461-21.429 148.951h101.719c25.66-44.35 41.692-94.932 45.265-148.951h-125.556zM767.241 567.64h-84.532c-14.808 39.899-33.691 74.556-55.719 102.147 55.115-21.68 103.302-57.102 140.254-102.147zM375.242 669.784c-22.029-27.591-40.906-62.248-55.719-102.147h-84.532c36.957 45.045 85.144 80.466 140.254 102.147zM244.864 120.063h79.125c14.071-35.087 31.371-65.769 51.253-90.674-50.333 19.805-94.885 51.074-130.378 90.674zM626.992 29.389c19.882 24.904 37.182 55.586 51.253 90.674h79.125c-35.494-39.602-80.045-70.868-130.378-90.674z" />
<glyph unicode="&#xf015;" glyph-name="s4" d="M513.502 744.34c-239.096 0-432.919-193.827-432.919-432.919s193.827-432.919 432.919-432.919 432.919 193.827 432.919 432.919-193.821 432.919-432.919 432.919zM513.502-70.378c-210.866 0-381.799 170.941-381.799 381.799s170.941 381.799 381.799 381.799c210.861 0 381.799-170.941 381.799-381.799 0-210.866-170.936-381.799-381.799-381.799zM521.19 605.992h-6.749l-303.198-172.085v-244.972l303.198-172.085h6.749c162.689 0 294.571 131.884 294.571 294.571s-131.884 294.571-294.571 294.571zM546.747 413.505c49.959-11.594 87.228-56.285 87.228-109.771s-37.269-98.177-87.228-109.771v219.542zM495.628 86.306l-87.228 49.506v351.21l87.228 49.506v-450.224zM262.364 218.697v185.447l94.917 53.873v-293.184l-94.917 53.868zM546.747 69.33v72.687c78.35 12.304 138.348 79.911 138.348 161.718s-59.998 149.42-138.348 161.718v88.061c122.434-12.78 217.89-116.272 217.89-242.090s-95.45-229.31-217.89-242.090z" />
<glyph unicode="&#xf016;" glyph-name="s5" d="M356.16 359.722l-39.536 21.25-39.536-21.25 7.547 45.009-31.985 31.873 44.202 6.566 19.764 40.952 19.764-40.952 44.202-6.566-31.985-31.873 7.558-45.009zM489.712 477.816l-118.481 17.602-52.989 109.771-52.989-109.771-118.481-17.602 85.736-85.441-20.238-120.648 105.97 56.964 105.97-56.964-20.238 120.648 85.736 85.441zM805.512 180.139c-0.456 1.293-0.914 2.505-1.385 3.709-0.108 0.276-0.215 0.561-0.328 0.838-0.507 1.278-1.037 2.546-1.593 3.806-16.048 36.445-49.883 63.017-90.243 68.364-0.663 0.087-1.324 0.179-1.987 0.256-0.873 0.102-1.747 0.184-2.63 0.266-1.022 0.097-2.054 0.169-3.081 0.236-0.669 0.041-1.334 0.092-2.008 0.123-1.752 0.087-3.516 0.138-5.283 0.138s-3.532-0.056-5.289-0.133c-0.674-0.031-1.339-0.082-2.008-0.123-1.032-0.067-2.059-0.143-3.081-0.236-0.879-0.082-1.757-0.169-2.63-0.266-0.669-0.077-1.329-0.169-1.987-0.256-40.36-5.34-74.2-31.919-90.202-68.277-0.597-1.344-1.124-2.615-1.634-3.893-0.108-0.276-0.215-0.556-0.328-0.838-0.466-1.206-0.93-2.412-1.355-3.637-0.005-0.026-19.175-0.072-19.175-0.072v207.285h214.085l79.911-20.238v-187.058h-57.768zM696.972 76.493c-35.271 0-63.966 29.058-63.966 64.778 0 3.153 0.236 6.249 0.669 9.279v0.005c0.266 1.89 0.628 3.744 1.053 5.57 0.031 0.148 0.067 0.302 0.102 0.445 0.42 1.762 0.919 3.485 1.478 5.186 0.056 0.169 0.113 0.338 0.169 0.507 0.587 1.721 1.232 3.404 1.952 5.048 0.036 0.082 0.072 0.159 0.108 0.236 8.508 19.272 26.064 33.461 46.776 37.388 0.041 0.005 0.077 0.015 0.118 0.020 1.824 0.343 3.673 0.607 5.539 0.781 0.138 0.015 0.276 0.020 0.415 0.031 1.844 0.164 3.709 0.261 5.591 0.261s3.744-0.097 5.591-0.261c0.138-0.015 0.276-0.020 0.415-0.031 1.87-0.179 3.714-0.44 5.539-0.781 0.036-0.005 0.077-0.015 0.118-0.020 20.709-3.929 38.265-18.122 46.776-37.388 0.036-0.082 0.072-0.159 0.108-0.236 0.72-1.644 1.365-3.332 1.952-5.048 0.056-0.169 0.113-0.338 0.169-0.507 0.561-1.701 1.058-3.424 1.478-5.186 0.036-0.148 0.067-0.302 0.102-0.445 0.425-1.829 0.781-3.688 1.053-5.57v-0.005c0.43-3.030 0.669-6.126 0.669-9.279-0.015-35.72-28.71-64.778-63.976-64.778zM429.545 180.139c-0.456 1.303-0.94 2.584-1.442 3.857-15.461 38.99-50.287 67.326-92.118 72.856-0.658 0.087-1.309 0.179-1.972 0.251-0.873 0.102-1.757 0.189-2.636 0.266-1.022 0.092-2.049 0.169-3.076 0.236-0.669 0.041-1.334 0.092-2.008 0.123-1.757 0.082-3.516 0.133-5.289 0.133s-3.532-0.056-5.289-0.133c-0.674-0.031-1.339-0.082-2.008-0.123-1.032-0.067-2.059-0.143-3.081-0.236-0.879-0.082-1.757-0.169-2.636-0.266-0.663-0.077-1.319-0.164-1.982-0.256-40.365-5.34-74.205-31.914-90.212-68.277-0.597-1.344-1.124-2.615-1.634-3.893-0.797-2.044-1.257-3.25-1.685-4.472-0.005-0.026-93.962-0.072-93.962-0.072v440.493h399.582v-440.488h-88.558zM321.006 76.493c-35.271 0-63.966 29.058-63.966 64.778 0 3.153 0.236 6.249 0.669 9.279v0.005c0.266 1.89 0.628 3.744 1.053 5.57 0.036 0.148 0.067 0.302 0.102 0.445 0.42 1.762 0.919 3.485 1.478 5.186 0.056 0.169 0.113 0.338 0.169 0.507 0.587 1.721 1.232 3.404 1.952 5.048 0.036 0.082 0.072 0.159 0.108 0.236 8.508 19.272 26.064 33.461 46.776 37.388 0.041 0.005 0.077 0.015 0.118 0.020 1.824 0.343 3.673 0.607 5.539 0.781 0.138 0.015 0.276 0.020 0.415 0.031 1.844 0.169 3.709 0.261 5.586 0.261 1.885 0 3.744-0.097 5.591-0.261 0.138-0.015 0.276-0.020 0.415-0.031 1.87-0.179 3.714-0.44 5.539-0.781 0.036-0.010 0.077-0.015 0.118-0.020 20.709-3.934 38.27-18.128 46.781-37.398 0.031-0.077 0.067-0.148 0.102-0.225 0.725-1.65 1.37-3.337 1.957-5.058 0.056-0.164 0.113-0.333 0.164-0.497 0.566-1.706 1.058-3.434 1.478-5.196 0.036-0.143 0.067-0.292 0.097-0.44 0.425-1.834 0.786-3.693 1.053-5.575v-0.015c0.43-3.030 0.669-6.121 0.669-9.269 0-35.709-28.695-64.768-63.966-64.768zM569.285 620.549l123.507-0.369 58.442-180.933h-181.95v181.303zM729.934 671.894l-148.099 0.435-514.478 0.113v-544.133h139.242c6.387-58.216 55.248-103.645 114.41-103.645s108.019 45.429 114.41 103.645h147.145c6.387-58.216 55.248-103.645 114.41-103.645s108.019 45.429 114.41 103.645h103.071v279.346l-108.009 27.345-76.503 236.894z" />
<glyph unicode="&#xf017;" glyph-name="s6" d="M462.296 432.639h-178.242v63.705h178.247l-0.005-63.705zM462.296 351.654h-26.185v30.621h26.185v-30.621zM462.296 270.675h-26.185v30.621h26.185v-30.621zM386.272 351.654v0h-26.19v30.621h26.19v-30.621zM386.272 270.675h-26.19v30.621h26.19v-30.621zM310.238 351.654h-26.185v30.621h26.185v-30.621zM310.238 270.675h-26.185v30.621h26.185v-30.621zM234.208 546.702v-326.392h277.938v326.392h-277.938zM669.14 381.586l-15.036-6.561v-95.851c0-4.684-3.775-8.498-8.411-8.498s-8.411 3.816-8.411 8.498v95.851l-15.041 6.561c-21.721 9.484-35.756 31.046-35.756 54.941 0 32.982 26.559 59.817 59.208 59.817 32.644 0 59.208-26.835 59.208-59.817 0-23.892-14.040-45.454-35.761-54.941zM645.689 546.702c-60.132 0-109.051-49.429-109.051-110.177 0-38.204 19.487-73.173 50.797-93.155v-64.199c0-32.454 26.132-58.856 58.257-58.856 32.119 0 58.257 26.405 58.257 58.856v64.199c31.315 19.98 50.797 54.951 50.797 93.155 0 60.747-48.917 110.177-109.051 110.177zM783.605 185.761h-578.261v395.494h578.261v-395.494zM155.505 631.616v-496.214h677.947v496.214h-677.947zM864.133 104.402h-739.311v558.214h739.311v-558.214zM783.605 23.043h-578.261v30.999h578.261v-30.999zM74.976 712.975v-658.932h80.528v-81.358h677.947v81.358h80.528v658.932h-839.003z" />
<glyph unicode="&#xf018;" glyph-name="s7" d="M568.227 60.781l-0.333-0.333c-14.772-14.721-25.219-32.915-30.452-52.928h-47.885c-5.227 20.013-15.676 38.204-30.452 52.928l-0.323 0.323c-13.761 14.25-21.331 32.977-21.331 52.819 0 41.938 34.116 76.054 76.054 76.054s76.049-34.116 76.049-76.054c0-19.836-7.568-38.56-21.331-52.809zM535.516-47.431v0c0-12.14-9.876-22.007-22.012-22.007s-22.012 9.876-22.012 22.007v3.601h44.028v-3.601zM513.502 240.999c-70.253 0-127.404-57.154-127.404-127.409 0-33.64 12.993-65.375 36.578-89.349l1.578-1.598c7.771-8.221 13.218-18.22 15.882-29.14v-40.937c0-40.453 32.915-73.365 73.371-73.365s73.371 32.915 73.371 73.365v40.937c2.666 10.908 8.103 20.893 15.861 29.109l1.603 1.629c23.59 23.979 36.583 55.709 36.583 89.349-0.010 70.253-57.164 127.409-127.415 127.409zM795.324 654.986h61.969v-51.355h-61.969v51.355zM691.057 654.986h61.969v-51.355h-61.969v51.355zM586.785 654.986h61.969v-51.355h-61.969v51.355zM482.518 654.986h61.969v-51.355h-61.969v51.355zM378.251 654.986h61.969v-51.355h-61.969v51.355zM273.985 654.986h61.969v-51.355h-61.969v51.355zM169.713 654.986h61.969v-51.355h-61.969v51.355zM795.324 571.519h61.969v-51.355h-61.969v51.355zM691.057 571.519h61.969v-51.355h-61.969v51.355zM586.785 571.519h61.969v-51.355h-61.969v51.355zM482.518 571.519h61.969v-51.355h-61.969v51.355zM378.251 571.519h61.969v-51.355h-61.969v51.355zM273.985 571.519h61.969v-51.355h-61.969v51.355zM169.713 571.519h61.969v-51.355h-61.969v51.355zM795.324 488.051h61.969v-51.355h-61.969v51.355zM691.057 488.051h61.969v-51.355h-61.969v51.355zM378.251 488.051h270.503v-51.355h-270.503v51.355zM273.985 488.051h61.969v-51.355h-61.969v51.355zM169.713 488.051h61.969v-51.355h-61.969v51.355zM132.638 399.394v292.892h761.73v-292.892h-761.73zM945.725 348.038v395.603h-864.441v-395.603h271.289v-69.055c0-20.366-16.565-36.931-36.931-36.931h-52.659c-48.68 0-88.286-39.608-88.286-88.286v-82.972c0-48.68 39.608-88.286 88.286-88.286h115.271v51.355h-115.271c-20.366 0-36.931 16.565-36.931 36.931v82.972c0 20.366 16.57 36.931 36.931 36.931h52.664c48.68 0 88.286 39.608 88.286 88.286v69.055h219.148v-69.055c0-48.68 39.608-88.286 88.286-88.286h52.664c20.366 0 36.931-16.565 36.931-36.931v-82.972c0-20.366-16.57-36.931-36.931-36.931h-115.271v-51.355h115.271c48.68 0 88.286 39.608 88.286 88.286v82.972c0 48.68-39.608 88.286-88.286 88.286h-52.664c-20.366 0-36.926 16.565-36.926 36.931v69.055h271.284z" />
<glyph unicode="&#xf019;" glyph-name="s8" d="M520.035 548.057c36.736 0 66.514-29.829 66.514-66.632 0-36.798-29.778-66.632-66.514-66.632h-26.605v-103.471h53.209v50.169c0 0 93.119 21.557 93.119 119.934 0 66.238-53.599 119.934-119.724 119.934-66.119 0-119.724-53.696-119.724-119.934h53.209c0 36.803 29.778 66.632 66.514 66.632zM494.996 269.776h53.209v-53.307h-53.209v53.307zM694.723 280.991c-31.898-32.19-54.895-71.614-67.234-114.978h-211.774c-12.339 43.364-35.339 82.788-67.239 114.978l-1.165 1.175c-44.079 46.082-68.338 106.716-68.338 170.956 0 135.497 108.842 245.732 242.625 245.732s242.625-110.234 242.625-245.732c0-64.209-24.233-124.813-68.271-170.884l-1.232-1.247zM651.24 94.404h-259.278c-5.15 2.115-8.595 7.174-8.595 12.957 0 2.907 0.884 5.676 2.484 7.98h271.5c1.598-2.31 2.484-5.074 2.484-7.98 0-5.783-3.445-10.841-8.595-12.957zM620.183 22.437h-3.995v0.174l-25.189-0.174h-138.764l-25.224 0.338v-0.338h-3.995c-7.64 0-13.856 6.295-13.856 14.035 0 2.6 0.715 5.104 2.008 7.266h220.862c1.293-2.162 2.008-4.669 2.008-7.266-0.005-7.74-6.218-14.035-13.861-14.035zM521.6-52.689c-17.213 0-32.17 9.937-39.597 24.438h79.187c-7.419-14.501-22.379-24.438-39.592-24.438zM521.6 749.521c-161.373 0-292.656-132.967-292.656-296.399 0-78.257 29.839-152.079 84.025-207.861l4.318-4.436c21.116-22.507 37.039-49.071 46.955-78.078l-0.976-0.623c-18.737-11.935-29.931-32.408-29.931-54.759 0-22.123 10.898-41.923 28.133-53.64-1.519-5.555-2.341-11.343-2.341-17.254 0-35.679 28.659-64.701 63.879-64.701h6.239c9.361-42.914 47.201-75.125 92.343-75.125s82.982 32.206 92.343 75.125h6.239c35.22 0 63.879 29.022 63.879 64.701 0 5.911-0.822 11.696-2.341 17.254 17.239 11.717 28.133 31.525 28.133 53.64 0 22.353-11.189 42.827-29.931 54.759l-0.976 0.623c9.876 28.899 25.716 55.371 46.72 77.822l4.553 4.69c54.185 55.781 84.025 129.603 84.025 207.861 0.015 163.437-131.267 296.404-292.635 296.404z" />
<glyph unicode="&#xf020;" glyph-name="uniF0D7" horiz-adv-x="589" d="M587.435 408.012q0-14.917-10.901-25.814l-257.002-257.002q-10.901-10.901-25.814-10.901t-25.814 10.901l-257.002 257.002q-10.901 10.901-10.901 25.814t10.901 25.814 25.814 10.901h514.004q14.917 0 25.814-10.901t10.901-25.814z" />
<glyph unicode="&#xf021;" glyph-name="uniF104" horiz-adv-x="366" d="M359.689 499.797q0-7.457-5.738-13.195l-225.451-225.451 225.451-225.451q5.738-5.738 5.738-13.195t-5.738-13.195l-28.683-28.683q-5.738-5.738-13.195-5.738t-13.195 5.738l-267.329 267.329q-5.738 5.738-5.738 13.195t5.738 13.195l267.329 267.329q5.738 5.738 13.195 5.738t13.195-5.738l28.683-28.683q5.738-5.738 5.738-13.195z" />
<glyph unicode="&#xf022;" glyph-name="uniF105" horiz-adv-x="366" d="M341.331 261.154q0-7.457-5.738-13.195l-267.329-267.329q-5.738-5.738-13.195-5.738t-13.195 5.738l-28.683 28.683q-5.738 5.738-5.738 13.195t5.738 13.195l225.451 225.451-225.451 225.451q-5.738 5.738-5.738 13.195t5.738 13.195l28.683 28.683q5.738 5.738 13.195 5.738t13.195-5.738l267.329-267.329q5.738-5.738 5.738-13.195z" />
<glyph unicode="&#xf023;" glyph-name="zc1" d="M704.659 516.725c0-53.020-18.773-98.29-56.285-135.806-37.518-37.513-82.504-55.973-134.913-55.391s-97.678 19.052-135.806 55.391c-38.127 36.344-56.87 81.612-56.285 135.806s19.359 99.184 56.285 134.913 82.196 54.498 135.806 56.28c53.609 1.788 98.566-16.983 134.913-56.28 36.339-39.297 55.084-84.286 56.285-134.913zM864.591 70.927c0-39.292-12.216-70.561-36.624-93.802-24.407-23.232-56.562-34.831-96.477-34.831h-435.974c-40.5 0-72.656 11.604-96.477 34.831-23.821 23.237-36.037 54.508-36.624 93.802 0 17.879 0.587 35.143 1.788 51.829 1.201 16.678 3.567 34.831 7.143 54.498s7.73 37.82 12.493 54.498c4.771 16.678 11.909 32.777 21.449 48.254s19.97 28.894 31.268 40.191c11.297 11.292 25.603 20.248 42.898 26.799 17.295 6.556 35.756 9.85 55.391 9.819 3.567 0 10.71-3.567 21.449-10.71 10.736-7.138 22.927-14.898 36.624-23.237s31.268-16.401 52.715-24.126c21.449-7.73 44.094-11.297 67.89-10.71 23.79 0.582 46.133 4.154 66.996 10.71 20.863 6.551 38.744 14.583 53.609 24.126 14.866 9.545 27.081 17.295 36.624 23.237s16.401 9.514 20.555 10.71c20.832 0 39.608-3.26 56.285-9.819 16.678-6.551 30.682-15.482 41.979-26.799 11.297-11.328 21.726-24.709 31.268-40.191s16.678-31.55 21.449-48.254 9.233-34.867 13.387-54.498c4.154-19.631 6.551-37.794 7.138-54.498 0.576-16.708 1.191-33.973 1.778-51.829z" />
<glyph unicode="&#xf024;" glyph-name="zc2" d="M876.114 628.555c19.733 0 36.992-7.394 51.813-22.21 14.813-14.813 22.21-32.073 22.21-51.813v-486.226c0-21.152-7.394-38.78-22.21-52.872-14.818-14.086-32.078-21.147-51.813-21.147h-725.221c-19.733 0-36.992 7.061-51.813 21.147-14.818 14.091-22.21 31.719-22.21 52.872v486.226c0 19.733 7.394 36.998 22.21 51.813s32.078 22.21 51.813 22.21h725.221zM474.43 417.152h105.699v105.704h-105.699v-105.704zM527.295 258.586h105.699v105.699h-105.699v-105.699zM315.896 417.152h105.699v105.704h-105.699v-105.704zM368.731 258.586h105.699v105.699h-105.699v-105.699zM157.327 417.152h105.699v105.704h-105.699v-105.704zM210.197 258.586h105.699v105.699h-105.699v-105.699zM182.606 100.022h105.699v105.699h-105.699v-105.699zM352.638 100.022h333.191v105.699h-333.191v-105.699zM738.7 100.022h105.699v105.699h-105.699v-105.699zM685.834 258.586h105.699v105.699h-105.699v-105.699zM633.001 417.152h211.398v105.704h-211.398v-105.704z" />
<glyph unicode="&#xf025;" glyph-name="zc4" d="M831.936 330.016v-389.564c0-23.334-11.681-35.015-35.015-35.015h-566.835c-23.334 0-35.015 11.681-35.015 35.015v389.564c0 7.276 1.094 13.494 3.281 18.619s4.751 8.782 7.65 10.933c2.902 2.151 7.276 3.995 13.121 5.463s10.557 2.218 14.214 2.187c3.657-0.036 9.463-0.036 17.49 0s13.121-0.343 15.308-1.094v138.975h1.094c6.556 63.474 33.548 114.891 80.969 154.282s103.241 58.728 167.433 58.012c64.194-0.72 119.297-23.334 165.25-67.849 45.949-44.514 71.844-99.964 77.688-166.338h1.094l2.187-117.078c2.902 0 8.37 0.374 16.396 1.094s13.494 0.72 16.396 0c2.907-0.72 7.65-1.467 14.214-2.187 6.556-0.72 10.933-2.562 13.121-5.463 2.187-2.907 4.374-6.556 6.556-10.933 2.187-4.374 3.281-10.587 3.281-18.619h0.123zM655.758 507.287c0 37.202-13.494 64.194-40.484 80.969s-60.199 25.148-99.583 25.178c-38.673 0-72.219-9.12-100.677-27.365s-42.673-46.323-42.673-84.245v-135.698h283.418v141.163z" />
<glyph unicode="&#xf026;" glyph-name="i20" d="M513.502-109.354c-232.386 0-420.775 188.389-420.775 420.775s188.389 420.775 420.775 420.775c232.386 0 420.775-188.389 420.775-420.775s-188.389-420.775-420.775-420.775zM314.223 393.036c-2.861-7.624 1.329-12.437 0-41.438-0.369-7.812-33.594-43.103-46.791-79.778-13.080-36.371-14.877-74.376 5.319-89.323 20.197-14.929 39.016 49.718 41.469 40.309 1.058-4.108 2.407-8.364 4.021-12.754 6.464-17.623 17.321-37.131 33.053-55.356 3.199-3.704-19.472-10.521-33.053-33.917-13.597-23.38 3.888-65.928 71.465-65.928 87.182 0 106.675 31.020 108.458 30.887 6.479-0.486 6.933 0 13.817 0 8.416 0 4.93-0.674 12.759 0 4.226 0.369 46.605-37.11 105.264-30.887 99.959 10.639 84.678 44.535 76.836 65.928-8.196 22.333-37.146 32.787-35.868 34.219 23.933 26.779 27.739 43.221 35.868 67.813 3.332 10.116 26.528-55.606 44.381-40.309 7.44 6.377 22.338 32.972 7.44 89.323-14.877 56.352-43.659 69.21-43.037 79.778 1.293 21.982 0.556 37.435-0.556 41.438-5.319 19.375-16.427 15.098-16.427 19.375 0 111.539-82.895 201.971-185.144 201.971s-185.144-90.443-185.144-201.981c0-8.854-7.76-2.32-14.137-19.37z" />
<glyph unicode="&#xf027;" glyph-name="qe" d="M490.298 743.456l-12.723-0.704-23.872-3.214-12.068-1.941-11.976-2.243-11.317-2.733-11.41-3.521-10.48-3.567-10.567-3.434-10.613-5.063-9.953-4.052-8.854-4.93-9.248-5.55-8.498-5.773-8.37-6.561-6.959-5.988-10.836-9.999-8.982-9.289-8.59-8.941-7.883-9.161-7.44-9.381-6.474-9.115-6.341-9.12-2.953-4.006-2.687-4.935-5.901-8.631-4.715-8.585-4.185-8.149-3.611-8.631-3.562-7.837-2.953-7.44-2.687-7.888-2.733-7.22-3.698-13.213-2.646-12.682-1.542-10.613-1.498-9.115v-17.792l-2.51-2.733-2.377-3.657-1.849-3.301-1.588-3.611-1.982-7.755-2.156-7.133-0.751-6.387-0.481-4.71v-5.022l-5.063-7.179-3.616-7.179-2.687-6.872-2.023-6.162-1.542-5.906-1.498-5.545v-14.183l0.884-3.434 1.273-6.295 1.542-4.802-2.994-2.377-7.924-5.773-10.485-9.376-6.428-5.504-6.254-5.417-4.313-4.359-3.567-3.837-7.66-7.97-7.312-8.016-5.639-6.913-6.779-9.953-6.52-8.987-6.382-10.040-5.463-9.253-4.487-9.866-4.761-9.115-3.434-8.987-3.698-9.335-2.733-9.115-2.641-9.381-2.377-8.144-1.365-8.72-1.452-8.196-1.232-7.837-0.751-15.415v-20.699l0.751-6.295 1.977-10.746 0.71-4.669 1.365-4.756 1.629-4.579 1.452-3.214 2.464-5.947 1.849-1.191 1.191-2.464 1.406-0.617h1.498l6.254 0.617 6.428 1.588 5.417 2.11 5.681 3.567 5.155 3.347 4.71 4.272 5.068 4.579 4.313 4.669 4.052 5.33 3.704 4.802 3.429 3.919 2.249 4.533 4.185 7.532 1.36 3.081 0.71 1.849 0.394 2.069 0.971 1.762 2.243 1.058h0.879l0.353-0.704h0.704l0.751-0.353 2.377-10.214 2.556-8.283 3.434-8.631 3.434-7.75 2.948-7.755 4.492-6.779 3.301-7.138 3.704-6.561 4.313-5.633 3.26-5.463 8.544-10.086 7.573-9.028 7.22-7.005 7.179-6.249 6.167-4.935 9.248-8.016 3.698-1.716 1.232-1.762v-0.838l-0.838-0.751h-0.394l-1.849-0.576-6.913-0.53-11.894-1.583-5.639-1.232-4.93-1.498-4.889-1.452-4.318-2.243-3.434-2.028-4.313-1.406-2.733-2.162-2.953-1.762-3.081-2.464-3.919-4.802-1.452-2.202-1.849-1.982-2.469-5.017-1.406-4.231-1.629-4.18-0.312-3.704v-6.913l-0.704-3.434v-3.48l-0.879-3.434v-3.127l0.879-3.301 0.704-2.948 1.941-5.773 1.406-2.687 1.675-2.733 1.941-2.733 2.156-2.33 2.774-2.687 2.156-2.202 6.3-4.628 6.254-3.785 7.266-3.434 7.796-3.127 8.19-3.26 9.161-2.11 9.161-2.999 9.819-1.977 19.996-2.953 10.434-1.452 20.658-2.115 21.316-0.348h37.697l9.161 0.348 7.97 0.925 7.573 0.617 7.179 0.617 11.451 2.202 8.236 2.202 7.883 1.982 14.532 5.901 6.561 2.469 6.3 3.081 10.347 5.639 9.381 4.623 6.872 4.318 5.063 4.533 7.883-0.884 6.167-0.617 12.068-0.879h10.48l3.698-0.704 3.744-1.452 5.906-2.115 6.648-2.156 12.59-3.878 12.865-4.533 12.503-3.567 12.595-2.464 12.952-3.214 13.3-1.854 12.636-1.36 12.728-1.721 11.848-1.099 12.682-0.751h35.23l11.364 1.406 11.097 0.44 10.7 1.721 19.728 4.226 9.468 2.243 3.919 1.058 4.359 1.411 8.236 3.214 7.312 3.255 6.825 3.48 6.428 3.567 5.686 4.18 2.243 2.202 2.646 3.127 3.434 4.006 3.739 5.068 1.411 2.6 0.617 2.11 1.542 2.692 0.663 2.948v2.82l0.751 2.866-0.751 4.18-0.663 3.567-1.542 4.185-1.232 3.434-2.377 4.226-2.779 3.832-2.728 3.347-3.657 2.82-7.532 6.382-8.498 6.213-8.544 4.889-8.982 5.109-20.571 9.866-4.93 2.907-1.365 1.406-0.838 0.884 9.866 9.683 4.272 4.848 3.567 4.4 6.959 9.736 6.515 9.999 5.55 8.854 5.196 8.498 7 16.998 5.417 14.183 3.657 9.999 2.069 3.342 1.232 2.692 2.162 1.629h0.879l0.617-0.353 5.283-10.214 4.715-9.871 3.347-5.545 3.434-4.756 3.388-5.993 4.405-5.768 3.657-4.098 2.202-2.202 2.243-1.982 1.982-1.452 1.936-1.365 4.185-2.11 2.202-0.751h3.434l2.202 0.751 2.774 1.365 3.040 1.365 2.551 2.197 2.377 2.6 2.687 3.173 2.069 2.464 2.377 3.919 1.854 3.26 2.11 4.579 1.145 3.791 2.999 9.335 1.977 10.347 1.457 11.451 1.012 6.697v18.716l-1.498 13.341-2.202 15.021-2.728 14.665-2.162 7.527-2.156 8.062-2.82 7.573-2.861 8.544-3.26 8.016-3.611 8.231-6.387 13.433-5.681 11.848-5.681 10.567-4.889 9.871-5.686 9.028-4.139 8.236-8.808 12.283-11.097 16.427-2.6 4.011-0.838 1.762v1.365l1.89 5.545 2.51 4.889 2.249 9.778 1.232 5.022v5.15l0.658 4.185v4.226l-0.658 4.802-0.751 3.965-1.588 7.97-2.11 7.796-1.941 7.138-2.994 6.913-3.388 5.773-2.733 5.417-2.953 5.196-4.71 7.66-1.762 2.687-0.44 2.377-2.202 14.752-1.406 9.736-1.588 12.068-2.423 12.416-3.878 14.311-2.197 8.016-1.762 6.831-2.382 7.837-2.728 8.411-2.687 7.755-3.48 8.364-7.092 16.166-4.18 7.66-5.109 8.72-4.761 7.532-4.756 8.498-6.738 7.883-5.639 7.573-6.913 7.929-7.051 7.133-7.087 6.918-8.457 7.133-4.446 2.6-4.139 3.567-9.12 6.295-10.48 6.785-10.741 6.121-11.056 5.55-12.114 5.063-11.358 4.802-11.848 4.226-12.952 3.434-11.802 3.086-12.595 2.687-11.935 2.861-12.818 1.365-12.595 1.452-12.549 1.588z" />
<glyph unicode="&#xf028;" glyph-name="weib" d="M406.505 141.528c6.708 10.99 8.533 22.548 5.478 34.739s-10.674 20.724-22.86 25.603c-11.589 4.884-24.089 4.884-37.477 0s-23.462-12.503-30.167-22.86c-7.909-11.589-10.362-23.181-7.307-34.739s10.362-20.407 21.951-26.518c11.589-6.111 24.377-6.423 38.388-0.914 14.009 5.509 24.653 13.73 31.991 24.689zM454.029 202.784c3.055 4.251 3.657 8.823 1.829 13.699-1.829 4.884-4.884 7.909-9.135 9.135-4.251 1.829-9.135 1.829-14.614 0s-9.135-4.884-10.964-9.135c-5.478-10.99-3.055-18.896 7.307-23.775 4.884-1.227 9.73-0.914 14.614 0.914s8.533 4.884 10.959 9.135v0.026zM542.716 147.926c-15.241-34.739-42.071-60.055-80.466-75.896s-76.498-17.984-114.291-6.392c-36.568 11.589-61.569 33.222-74.986 64.906s-12.503 63.367 2.743 95.081c16.468 31.714 42.358 55.458 77.724 71.3s71.017 18.865 106.982 9.135c37.794-9.73 64.906-29.855 81.379-60.342 16.468-30.487 16.755-63.084 0.914-97.817v0.026zM701.82 230.215c-3.055 32.31-17.984 60.968-44.814 85.945s-62.483 43.587-106.982 55.775c-44.499 12.191-91.111 15.84-139.893 10.959-75.583-7.909-138.353-31.996-188.333-72.214s-72.528-85.343-67.649-135.323c3.055-32.31 18.297-60.968 45.729-85.945s62.795-43.587 106.069-55.775 89.915-15.84 139.893-10.964c76.182 7.909 138.98 31.996 188.333 72.214 49.347 40.222 71.9 85.349 67.649 135.328zM859.064 227.473c0-23.15-6.111-46.61-18.297-70.392-12.191-23.775-30.8-47.242-55.775-70.392s-53.634-42.96-85.945-59.428-70.704-30.769-115.204-42.96c-44.499-12.191-90.509-17.357-138.066-15.553-47.554 1.798-94.479 7.593-140.808 17.382-46.328 9.794-87.141 25.317-122.512 46.642-35.365 21.321-64.624 47.211-87.774 77.724s-34.137 64.337-32.91 101.473c0 39.021 11.873 80.749 35.653 125.248s57.287 88.373 100.559 131.672c57.292 57.292 115.524 97.227 174.637 119.775s100.872 21.634 125.248-2.743c21.951-21.951 25.291-57.599 10.050-106.982-1.227-4.884-1.227-8.221 0-10.050s2.743-3.055 4.564-3.657c1.829-0.602 4.251-0.602 7.307 0s5.478 1.227 7.307 1.829l2.743 0.914c47.524 20.125 89.601 30.172 126.162 30.172 36.568 0 62.483-10.362 77.724-31.081 15.241-21.321 15.241-51.493 0-90.509-0.602-4.884-1.513-8.221-2.743-10.050s-0.312-3.97 2.743-6.392c3.055-2.423 5.166-3.97 6.392-4.564 1.227-0.602 3.97-1.513 8.221-2.743 19.493-6.080 37.192-14.014 53.035-23.775s29.261-23.775 40.217-42.046c10.959-18.271 16.755-38.076 17.382-59.428l0.087-0.087zM821.59 546.564c14.014-16.468 23.181-35.051 27.432-55.775s3.337-40.844-2.743-60.342c-3.055-7.307-8.221-13.1-15.553-17.382-7.337-4.282-14.96-4.879-22.86-1.829-7.307 3.055-13.1 8.221-17.382 15.553-4.282 7.337-4.884 14.96-1.829 22.86 6.708 21.321 2.743 39.935-11.873 55.775s-32.91 21.951-54.863 18.297c-7.909-1.829-15.528-0.602-22.86 3.657-7.337 4.251-11.589 10.674-12.785 19.211-1.829 8.533-0.312 16.156 4.564 22.86 4.884 6.708 10.964 10.99 18.297 12.785 20.724 4.251 41.131 3.337 61.256-2.743s37.192-17.357 51.207-33.824v0.894zM913.928 629.772c29.261-32.91 48.469-71.017 57.599-114.291 9.135-43.272 6.708-84.117-7.307-122.512-3.055-9.73-8.849-16.755-17.382-21.040s-17.382-4.884-26.518-1.829c-9.135 3.055-15.84 8.849-20.125 17.382s-5.196 17.357-2.743 26.518c9.73 28.031 11.558 57.287 5.478 87.774s-19.81 57.317-41.131 80.466c-21.321 23.775-46.642 39.935-75.896 48.469-29.261 8.533-58.513 10.075-87.774 4.564-9.73-1.829-18.583 0-26.518 5.478s-13.131 12.785-15.553 21.951c-2.423 9.161-0.914 17.984 4.564 26.518s13.1 13.418 22.86 14.644c41.444 8.533 82.89 6.708 124.334-5.478 41.444-12.191 76.81-35.020 106.069-68.563l0.036-0.056z" />
<glyph unicode="&#xf029;" glyph-name="i17" d="M911.191 291.805l-118.471-49.893c-4.756-13.069-8.313-22.277-10.68-27.616l48.999-118.471-70.361-70.361-120.246 47.222c-5.34-2.361-14.542-5.926-27.616-10.68l-48.999-119.358h-99.773l-49.893 118.471c-6.536 2.361-16.324 6.229-29.394 11.568l-117.578-48.999-69.467 70.366 47.222 119.358c-0.587 1.783-1.783 4.451-3.557 8.011-1.783 3.557-3.557 7.117-5.34 10.68-1.783 3.557-2.973 6.815-3.557 9.789l-116.689 48.999v99.778l116.689 49.893 12.457 29.394-48.115 117.578 69.467 70.361 118.471-48.11c13.069 5.34 22.86 9.207 29.394 11.568l48.999 117.578h99.778l49.893-117.578c8.313-2.973 17.52-6.815 27.616-11.568l118.471 48.999 71.275-70.361-48.11-120.246c3.557-7.117 7.122-16.017 10.68-26.722l118.471-49.893v-99.752h-0.031zM513.046 192.915c40.962 0 76.003 14.265 105.12 42.77s43.664 63.546 43.664 105.12-14.542 76.892-43.664 106.007c-29.114 29.114-64.158 43.966-105.12 44.551s-76.311-14.265-106.007-44.551c-29.701-30.288-44.243-65.631-43.664-106.007 0.587-40.381 15.159-75.419 43.664-105.12 28.5-29.696 63.848-43.966 106.007-42.77z" />
<glyph unicode="&#xf030;" glyph-name="i18" d="M169.179 100.299c0 13.126 3.573 32.201 10.721 57.241 13.72 51.88 39.659 98.983 77.822 141.316s81.991 73.035 131.487 92.118c-47.094 37.564-70.643 85.565-70.643 143.996 0 51.283 18.783 94.814 56.347 130.594s81.694 53.665 132.381 53.665 95.112-17.889 133.274-53.665 56.644-79.309 55.453-130.594c0-57.835-22.952-105.535-68.855-143.103 63.198-22.655 115.969-60.516 158.318-113.587s63.515-112.097 63.495-177.082c0-54.858-21.762-86.457-65.283-94.797-1.788-5.957-5.66-13.709-11.614-23.263-3.573-9.53-10.434-18.179-20.581-25.941s-24.756-13.73-43.838-17.899-33.691-7.745-43.838-10.721c-10.147-2.979-27.138-5.66-50.986-8.042s-35.474-3.872-34.877-4.466c-1.191 0-3.276-0.297-6.254-0.894s-5.063-0.894-6.254-0.894h-107.338c-30.416 0-68.876 4.766-115.374 14.296s-73.035 22.942-79.609 40.237c-10.147 10.147-17.602 22.666-22.369 37.559-14.913 2.979-27.432 9.243-37.559 18.793-22.655 8.936-33.983 33.983-33.983 75.14l-0.046-0.005z" />
<glyph unicode="&#xf031;" glyph-name="i19" d="M513.502-120.496c-246.44 0-446.219 199.789-446.219 446.224s199.779 446.219 446.219 446.219c246.44 0 446.219-199.789 446.219-446.224s-199.779-446.219-446.219-446.219zM468.879 93.691c152.787 0 275.458 79.911 275.458 178.488 0 83.279-104.293 83.279-104.293 88.656 0 5.371 51.942 53.742 0 83.856-51.921 30.111-146.912-15.671-144.058-10.741 40.855 70.273-17.546 92.456-47.298 92.456-70.965 0-256.468-155.643-256.468-254.22s123.878-178.493 276.66-178.493zM476.109 148.364c-97.616-13.725-183.982 26.594-192.907 90.048-8.91 63.454 62.986 126.014 160.604 139.739 97.611 13.704 183.982-26.615 192.907-90.048 8.905-63.454-62.986-126.014-160.604-139.739zM458.064 165.637c58.063 11.297 97.488 59.668 88.102 108.041-9.407 48.387-64.096 78.464-122.157 67.182-58.063-11.297-97.509-59.668-88.102-108.041 9.407-48.382 64.096-78.458 122.157-67.182zM459.955 254.33c-9.85 0-17.848 7.996-17.848 17.848s7.996 17.848 17.848 17.848c9.855 0 17.848-7.996 17.848-17.848s-7.996-17.848-17.848-17.848zM418.798 213.618c-17.863-8.339-37.414-4.231-43.659 9.176-6.244 13.402 3.163 31.020 21.028 39.354 17.863 8.318 37.425 4.21 43.675-9.192 6.249-13.387-3.178-31.005-21.045-39.338zM707.787 487.687c-32.252 29.038-69.503 18.865-69.503 18.865-9.763-1.283-17.689-10.352-17.689-20.079v4.981c0-9.799 7.852-17.223 17.741-17.136 0 0 30.754 4.787 47.962-15.651 17.188-20.417 4.925-48.494 4.925-48.494-2.733-9.443 3.050-17.080 12.993-17.080h1.767c9.906 0 19.472 7.801 20.863 17.561 0.005-0.005 13.197 48.008-19.057 77.030zM767.99 545.747c-59.136 55.9-138.522 47.89-138.522 47.89-14.762-0.108-26.717-12.211-26.717-26.825v5.586c0-14.726 12.14-26.039 26.651-26.059 0 0 76.249 8.803 111.733-42.122 35.469-50.925 20.898-107.221 20.898-107.221-2.054-14.634 8.226-26.487 22.988-26.487h-6.085c14.742 0 28.346 11.838 29.681 26.451-0.005 0 18.506 92.884-40.629 148.787z" />
<glyph unicode="&#xf032;" glyph-name="i14" d="M73.313 112.202v534.474h880.375v-534.474h-319.568v-77.74h77.484v-58.298h-396.173v58.298h77.484v77.74h-319.599zM181.605 213.429h663.821v332.021h-663.821v-332.021z" />
<glyph unicode="&#xf033;" glyph-name="i15" d="M389.831 468.188h497.764c36.644 0 66.165-30.539 66.165-66.165v-411.26c0-35.628-29.522-66.165-66.165-66.165h-497.764c-35.628 0-66.165 30.539-66.165 66.165v411.26c0 35.628 30.544 66.165 66.165 66.165zM851.973 372.532h-426.516v-352.217h426.516v352.217zM703.34 556.762h-102.808v44.778h-424.483v-342.013h59.049v-96.707h-94.673c-36.644 0-67.182 30.539-67.182 66.165v402.078c0 36.644 30.539 67.182 67.182 67.182h496.747c36.644 0 66.165-30.539 66.165-67.182v-74.298z" />
<glyph unicode="&#xf034;" glyph-name="i16" d="M84.673 436.573c6.923 23.298 38.724 34.949 95.409 34.949h212.549l65.18 195.532v0.945c11.976 35.271 25.823 58.888 41.553 70.843s31.163 11.955 46.302 0c15.139-11.955 28.674-35.566 40.614-70.843l0.945-0.945 64.235-195.532h213.493c36.532 0 63.3-5.355 80.306-16.074s21.413-25.511 13.213-44.386-26.779-38.714-55.74-59.515l-4.72-3.775-166.246-119.030 63.29-195.537 1.89-1.89c17.008-53.537 15.748-87.856-3.775-102.957s-52.582-5.967-99.184 27.401l-2.83 1.89-1.89 0.945-167.222 119.975-169.112-120.925-1.89-1.89c-45.969-32.756-79.028-41.892-99.184-27.401s-21.413 48.81-3.775 102.957l0.945 0.945v1.89l64.235 194.592-167.222 119.030-3.775 3.775c-45.969 32.756-65.18 61.098-57.63 85.026l0.036 0.005z" />
<glyph unicode="&#xf035;" glyph-name="i11" d="M792.381 619.21c-77.74 76.162-170.699 114.507-278.888 115.034-108.19 0.525-200.893-37.82-278.108-115.034-77.209-77.214-115.821-170.175-115.821-278.893 2.1-108.714 40.711-201.679 115.821-278.888 75.119-77.214 167.824-115.559 278.108-115.034s203.249 38.867 278.888 115.034c75.645 76.162 113.987 169.127 115.039 278.888 1.042 109.766-37.295 202.726-115.039 278.893zM318.192 209.609c-7.599-1.808-16.284-3.434-26.054-4.884h-1.088c-2.162 0-4.333 0.909-6.5 2.717-2.167 1.803-3.25 3.975-3.25 6.5-0.358 0.358-0.546 0.899-0.546 1.629 0 0.72 0.184 1.442 0.546 2.167 0.358 0.72 0.541 1.268 0.541 1.629l0.541 1.624c0 0 0.358 0.546 1.088 1.629 0.72 1.088 1.078 1.629 1.078 1.629s0.546 0.541 1.629 1.629c1.088 1.088 1.447 1.447 1.088 1.088 1.078 1.078 3.429 3.611 7.046 7.583s6.321 6.872 8.129 8.677c1.808 1.803 3.975 4.884 6.51 9.228 2.525 4.349 5.058 8.149 7.583 11.405 2.525 3.25 4.523 7.771 5.962 13.566-24.955 14.465-44.484 32.19-58.595 53.174-14.102 20.98-21.337 43.597-21.695 67.828 0 28.212 9.591 54.252 28.761 78.139 19.175 23.882 45.034 42.689 77.581 56.429 32.547 13.725 68.173 20.601 106.89 20.612 38.709 0.005 74.34-6.866 106.885-20.612 32.547-13.755 58.411-32.572 77.581-56.429 19.18-23.862 28.761-49.913 28.761-78.139h0.036c0-27.852-9.591-53.711-28.761-77.591-19.18-23.867-45.034-42.678-77.581-56.429-32.547-13.74-68.178-20.607-106.89-20.607-17.362 0-35.082 1.624-53.174 4.879-25.311-17.741-53.348-30.759-84.096-39.067zM763.106 252.984c-14.465-21.342-33.993-39.067-58.595-53.174 1.808-5.058 3.796-9.581 5.962-13.571 2.172-3.98 4.705-7.786 7.588-11.394 2.897-3.616 5.243-6.5 7.051-8.672 1.803-2.172 4.333-5.248 7.588-9.238 3.25-3.985 5.596-6.515 7.046-7.588 0 0 0.358-0.358 1.088-1.078 0.72-0.72 1.263-1.268 1.624-1.629s0.725-0.909 1.088-1.629c0.358-0.72 0.72-1.263 1.088-1.624l0.541-1.634c0 0 0.179-0.541 0.541-1.624 0.358-1.088 0.541-1.808 0.541-2.167 0-0.364-0.179-0.909-0.541-1.629-0.72-2.897-1.987-5.243-3.796-7.051-1.808-1.803-4.154-2.525-7.051-2.167-9.763 1.447-18.445 3.076-26.049 4.884-30.749 8.324-58.785 21.342-84.101 39.062-18.092-3.255-35.817-4.884-53.179-4.884-54.62 0-102.193 13.387-142.697 40.15 11.579-1.078 20.443-1.624 26.6-1.624 32.557 0 63.664 4.512 93.314 13.566 29.66 9.048 56.429 22.067 80.316 39.062 24.955 18.819 44.309 40.34 58.047 64.578 13.745 24.238 20.432 49.733 20.074 76.503 0 15.548-2.346 30.923-7.046 46.123 26.033-14.107 46.657-32.011 61.861-53.711 15.2-21.705 22.794-44.855 22.783-69.452l0.020-0.020c-0.005-24.238-7.24-47.022-21.705-68.374z" />
<glyph unicode="&#xf036;" glyph-name="i12" d="M534.336 0.454c0 14.296-4.884 26.323-14.644 36.088-9.763 9.763-21.792 14.644-36.088 14.644s-25.946-4.884-34.959-14.644c-9.013-9.763-13.897-21.792-14.644-36.088s4.128-25.946 14.644-34.959c10.516-9.013 22.169-13.897 34.959-14.644s24.822 4.128 36.088 14.644c11.266 10.516 16.145 22.169 14.644 34.959zM665.166 101.958v442.059c0 6.008-1.88 10.893-5.633 14.644s-8.636 5.633-14.644 5.633h-322.531c-5.258 0-9.763-1.88-13.52-5.633s-5.633-8.636-5.633-14.644v-442.059c0-6.008 1.88-10.893 5.633-14.644s8.262-5.633 13.52-5.633h322.531c5.258 0 10.142 1.88 14.644 5.633s6.382 8.636 5.633 14.644zM544.478 635.345c0 6.759-3.378 10.142-10.142 10.142h-100.375c-6.759 0-10.142-3.378-10.142-10.142s3.378-10.142 10.142-10.142h100.375c6.759 0 10.142 3.378 10.142 10.142zM726.037 645.516v-645.062c0-21.803-8.272-40.609-24.822-56.403-16.545-15.794-35.349-23.693-56.403-23.693h-322.531c-21.803 0-40.609 7.899-56.403 23.693s-23.693 34.595-23.693 56.403v645.062c0 21.803 7.899 40.609 23.693 56.403s34.595 23.693 56.403 23.693h322.531c21.803 0 40.609-7.899 56.403-23.693 15.799-15.794 24.073-34.601 24.822-56.403z" />
<glyph unicode="&#xf037;" glyph-name="i13" d="M727.988 724.015c25.665 0 47.365-8.864 65.092-26.594s26.594-39.426 26.594-65.092v-641.818c0-24.443-8.864-45.836-26.594-64.179s-39.426-27.509-65.092-27.509h-458.45c-24.448 0-45.836 9.171-64.179 27.509s-27.509 39.73-27.509 64.179v641.818c0 25.665 9.171 47.365 27.509 65.092s39.73 26.594 64.179 26.594h458.45zM727.988-9.487v641.818h-458.45v-641.818h458.45z" />
<glyph unicode="&#xf038;" glyph-name="i8" d="M819.33 229.435c58.329 0 105.617 47.283 105.617 105.617 0 58.329-47.283 105.617-105.617 105.617-58.329 0-105.617-47.283-105.617-105.617 0.005-58.329 47.288-105.617 105.617-105.617zM502.483 229.435c58.329 0 105.617 47.283 105.617 105.617 0 58.329-47.283 105.617-105.617 105.617s-105.617-47.283-105.617-105.617c0.005-58.329 47.288-105.617 105.617-105.617zM185.641 229.435c58.329 0 105.617 47.283 105.617 105.617 0 58.329-47.283 105.617-105.617 105.617s-105.617-47.283-105.617-105.617c0-58.329 47.283-105.617 105.617-105.617z" />
<glyph unicode="&#xf039;" glyph-name="i9" d="M118.989 328.407c0 110.471 39.231 204.934 117.69 283.392s172.66 117.423 282.596 116.894c109.935-0.535 204.4-39.499 283.392-116.894s117.957-171.86 116.894-283.392c-1.068-111.533-40.033-206.002-116.894-283.392s-171.325-116.36-283.392-116.894c-112.066-0.535-206.263 38.43-282.596 116.894s-115.559 172.923-117.69 283.392zM323.933 113.039h134.486v168.126h121.691v-168.126h134.486v279.397l-195.347 152.105-195.342-152.105v-279.397h0.026z" />
<glyph unicode="&#xf040;" glyph-name="i10" d="M808.598 633.316c-79.681 78.067-174.967 117.372-285.852 117.905-110.89 0.535-205.9-38.765-285.040-117.905s-118.717-174.421-118.717-285.847c2.146-111.431 41.723-206.711 118.712-285.852s172.004-118.445 285.040-117.905c113.042 0.535 208.322 39.838 285.852 117.905 77.525 78.067 116.827 173.348 117.905 285.852 1.073 112.494-38.224 207.785-117.9 285.847zM497.497 128.306h-137.546l-25.209 193.704h162.755v-193.704zM497.497 356.758h-187.613v50.518h187.613v-50.518zM408.681 507.028l67.813 43.613 44.417-108.826-112.231 65.216zM589.003 566.628l79.942-80.749-137.091-52.131 57.148 132.88zM684.751 128.306h-136.74v193.709h161.949l-25.209-193.709zM735.619 356.758h-187.608v50.518h187.608v-50.518z" />
<glyph unicode="&#xf041;" glyph-name="i5" d="M510.042 151.491l-283.233 154.565v-161.846l283.233-154.565 283.233 154.565v161.846l-283.233-154.565zM510.042 717.96l-445.079-242.774 445.084-242.774 364.156 198.67v-279.593h80.923v323.696l-445.084 242.774z" />
<glyph unicode="&#xf042;" glyph-name="i6" d="M830.544 740.442c50.047 0 90.581-40.537 90.581-90.581v-634.084c0-50.047-40.537-90.581-90.581-90.581h-634.084c-50.047 0-90.581 40.537-90.581 90.581v634.084c0 50.047 40.537 90.581 90.581 90.581h634.084zM287.043 106.359h90.581v317.042h-90.581v-317.042zM468.212 106.359h90.581v452.914h-90.581v-452.914zM649.376 106.359h90.581v181.17h-90.581v-181.17z" />
<glyph unicode="&#xf043;" glyph-name="i7" d="M119.908-116.913h787.195v124.293h-787.195v-124.293zM202.726 90.28h124.334v289.975h-124.334v-289.975zM451.354 90.28h124.293v289.975h-124.293v-289.975zM699.946 90.28h124.293v289.975h-124.293v-289.975zM513.502 753.142l-393.595-207.116v-82.864h787.149v82.864l-393.554 207.116z" />
<glyph unicode="&#xf044;" glyph-name="i2" d="M672.992 507.069l136.233 136.233 48.902-48.902-136.233-136.233-48.902 48.902zM768.837 344.793h192.666v-69.153h-192.666v69.153zM88.63 344.793h192.666v-69.153h-192.666v69.153zM191.993 594.449l48.886 48.892 136.263-136.263-48.886-48.886-136.263 136.258zM490.488 746.732h69.138v-192.707h-69.138v192.707zM617.585 117.63h185.031l74.011-222.039h-333.053l74.011 222.039zM247.523 117.63h185.031l74.011-222.039h-333.058l74.016 222.039zM432.554 376.671h185.031l74.011-222.039h-333.058l74.016 222.039z" />
<glyph unicode="&#xf045;" glyph-name="i3" d="M427.949 739.215h-285.215c-31.34 0-57.051-25.665-57.051-57.051v-285.163c0-31.386 25.706-57.051 57.051-57.051h285.215c31.386 0 57.051 25.665 57.051 57.051v285.163c0 31.386-25.66 57.051-57.051 57.051zM427.949 511.054h-285.215v57.051h285.215v-57.051zM884.268 739.215h-285.215c-31.34 0-57.005-25.665-57.005-57.051v-741.534c0-31.34 25.665-57.005 57.005-57.005h285.215c31.386 0 57.051 25.665 57.051 57.005v741.534c0.005 31.386-25.66 57.051-57.051 57.051zM884.268 225.845h-285.215v57.051h285.215v-57.051zM884.268 396.996h-285.215v57.056h285.215v-57.056zM427.949 282.896h-285.215c-31.34 0-57.051-25.665-57.051-57.051v-285.215c0-31.34 25.706-57.005 57.051-57.005h285.215c31.386 0 57.051 25.665 57.051 57.005v285.215c0 31.386-25.66 57.051-57.051 57.051zM427.949 54.737h-114.058v-114.105h-57.051v114.105h-114.105v57.051h114.105v114.053h57.051v-114.053h114.058v-57.051z" />
<glyph unicode="&#xf046;" glyph-name="i4" d="M391.094 584.225h244.757v61.18h-244.757v-61.18zM941.739 278.336v-229.475c0-21.035-7.476-39.026-22.435-54.027-15.001-14.954-32.997-22.435-54.027-22.435h-703.658c-21.035 0-39.026 7.476-54.027 22.435-14.96 15.006-22.481 32.997-22.435 54.027v229.475h321.216v-76.508c0-8.272 3.040-15.42 9.069-21.5 6.075-6.075 13.228-9.069 21.547-9.069h152.921c8.318 0 15.472 2.994 21.547 9.069 6.029 6.075 9.069 13.228 9.069 21.5v76.508h321.211zM452.273 217.157h122.351v61.18h-122.351v-61.18zM941.739 507.763v-183.536h-856.58v183.536c0 21.035 7.476 39.026 22.435 54.027 15.001 15.006 32.992 22.481 54.027 22.435h168.295v76.508c0 12.759 4.436 23.56 13.366 32.485 8.931 8.931 19.769 13.366 32.485 13.412h275.366c12.713 0 23.56-4.487 32.485-13.412 8.879-8.926 13.366-19.769 13.366-32.485v-76.508h168.3c20.98 0 39.021-7.476 54.027-22.435 14.954-14.954 22.43-32.992 22.43-54.027z" />
<glyph unicode="&#xf047;" glyph-name="zc3" d="M760.955 732.323c52.866 0 94.177-43.231 94.177-96.098v-648.662c0-53.826-41.31-97.053-94.177-97.053h-493.943c-52.861 0-95.137 43.231-95.137 97.053v648.667c0 52.866 42.271 96.098 95.137 96.098h493.943zM287.171 40.435h452.633v576.597h-452.633v-576.597zM513.98-77.774c26.912 0 46.113 21.152 46.113 45.152 0 26.912-19.231 46.143-46.113 46.143s-45.152-19.231-45.152-46.143c0.005-24.031 19.237-45.152 45.152-45.152z" />
<glyph unicode="&#xf048;" glyph-name="dh" d="M118.166 523.586c0 26.682 7.471 46.95 22.41 60.803l110.419 110.414c23.995 19.733 44.53 16.273 61.605-10.393l90.432-168.846c9.607-20.801 5.88-39.736-11.189-56.808l-40.819-41.621c-2.666-3.199-3.995-6.928-3.995-11.189 13.341-52.275 48.545-104.288 105.617-156.032l24.807-24.005c0 0 9.601-9.069 28.802-27.207s28.27-25.073 27.207-20.806c-1.068 4.262 9.871-2.407 32.803-20.013s33.599-21.337 32.001-11.189c10.674-3.199 17.879-2.666 21.608 1.598l48.815 48.013c20.801 16.007 40.002 19.201 57.604 9.591l162.426-96.826c11.737-7.46 18.409-17.331 20.013-29.604 1.598-12.273-1.865-22.676-10.393-31.199l-112.816-111.215c-14.404-14.404-34.142-21.608-59.208-21.608-74.679 2.131-159.494 34.406-254.455 96.826-137.628 98.689-237.655 206.983-300.070 324.878-38.415 80.56-56.285 142.702-53.619 186.438z" />
<glyph unicode="&#xf049;" glyph-name="i1" d="M625.852 337.67c14.542 0 26.354 12.652 26.354 28.234s-11.812 28.234-26.354 28.234h-56.142l42.914 50.169c8.062 12.982 4.802 30.503-7.271 39.185-12.119 8.641-28.469 5.099-36.532-7.837l-48.377-58.856-48.33 58.856c-8.062 12.982-24.412 16.478-36.532 7.837-12.119-8.687-15.379-26.205-7.271-39.185l42.955-50.169h-56.188c-14.542 0-26.354-12.652-26.354-28.234s11.812-28.234 26.354-28.234h79.053v-56.47h-79.053c-14.542 0-26.354-12.652-26.354-28.234s11.812-28.234 26.354-28.234h79.053v-47.017c0-15.579 11.763-28.234 26.308-28.234 14.588 0 26.354 12.652 26.354 28.234v47.017h79.053c14.542 0 26.354 12.652 26.354 28.234s-11.812 28.234-26.354 28.234h-79.053v56.47h79.059zM814.612 450.594v176.337h-176.337l-124.772 124.772-124.772-124.772h-176.337v-176.337l-124.777-124.772 124.772-124.772v-176.337h176.337l124.777-124.777 124.772 124.772h176.337v176.337l124.772 124.772-124.772 124.777zM513.502 99.991c-124.772 0-225.833 101.058-225.833 225.833s101.064 225.833 225.833 225.833 225.833-101.058 225.833-225.833-101.064-225.833-225.833-225.833z" />
<glyph unicode="&#xf050;" glyph-name="warning" d="M926.030 59.486c7.373-12.911 10.142-27.688 10.142-41.517 0-48.922-37.83-83.984-83.064-83.984h-678.291c-44.309 0-83.984 36.905-83.984 83.984 0 13.828 3.688 28.608 11.986 41.517l339.595 587.859c13.828 25.844 40.594 41.517 71.967 41.517 29.532 0 56.296-15.702 71.047-41.517l340.601-587.859zM453.531 495.076v-275.92h122.733v275.92h-122.733zM515.361 154.531c-38.75 0-69.205-29.532-69.205-70.123 0-37.83 30.452-68.282 69.205-68.282s69.205 30.452 69.205 68.282c0 39.674-29.532 70.123-69.205 70.123z" />
<glyph unicode="&#xf051;" glyph-name="wei" d="M475.555 206.050c-10.593-1.665-21.516-2.54-32.675-2.54-22.271 0-43.581 3.485-63.28 9.855-9.906 3.199-46.092-34.682-55.074-30.1-5.365 2.733 16.15 47.524 11.174 50.708-44.478 28.408-73.308 74.046-73.308 125.51 0 86.13 80.81 155.971 180.486 155.971 93.992 0 171.197-62.089 179.699-141.393 79.069-3.091 142.035-57.804 142.035-124.833 0-41.636-24.279-78.521-61.63-101.228-7.030-4.267 15.241-40.35 7.343-43.55-4.848-1.977-39.613 28.546-44.763 27.025-15.63-4.679-32.49-7.22-50.052-7.22-64.235-0.005-118.994 34.050-139.961 81.796zM467.297 235.571c-7.945-1.114-16.104-1.68-24.423-1.68-20.811 0-40.635 3.578-58.636 10.045-1.788 0.643-8.19 2.574-11.661 0-7.771-5.793-18.22-17.812-18.22-17.812s3.832 8.757 5.115 21.531c0.582 5.839-8.334 9.937-10.106 11.143-33.901 22.927-55.591 60.798-55.591 100.18 0 69.085 66.75 125.084 149.095 125.084 76.887 0 140.182-48.825 148.233-111.523-70.725-9.768-124.685-61.262-124.685-123.312 0-4.617 0.297-9.182 0.879-13.653zM513.502-80.942c216.693 0 392.362 175.669 392.362 392.362s-175.669 392.362-392.362 392.362-392.362-175.669-392.362-392.362 175.669-392.362 392.362-392.362zM380.1 389.894c12.998 0 23.544 10.531 23.544 23.544 0 12.998-10.546 23.539-23.544 23.539s-23.544-10.546-23.544-23.539c0.005-13.013 10.546-23.544 23.544-23.544zM505.657 389.894c12.998 0 23.544 10.531 23.544 23.544 0 12.998-10.546 23.539-23.544 23.539s-23.544-10.546-23.544-23.539c0-13.013 10.546-23.544 23.544-23.544zM560.585 280.030c8.661 0 15.692 7.015 15.692 15.692 0 8.661-7.030 15.692-15.692 15.692s-15.692-7.030-15.692-15.692c0-8.672 7.030-15.692 15.692-15.692zM654.752 280.030c8.661 0 15.692 7.015 15.692 15.692 0 8.661-7.030 15.692-15.692 15.692s-15.692-7.030-15.692-15.692c0-8.672 7.030-15.692 15.692-15.692z" />
<glyph unicode="&#xf052;" glyph-name="uniE600" d="M513.502 824.924c-283.582 0-513.502-229.921-513.502-513.502s229.921-513.502 513.502-513.502 513.502 229.921 513.502 513.502-229.921 513.502-513.502 513.502zM433.91 74.471l-236.276 236.308 90.762 90.762 145.482-145.546 308.647 308.647 90.762-90.762-399.377-399.409z" />
<glyph unicode="&#xf053;" glyph-name="xiaogou" d="M428.533-3.608l-339.883 339.883 120.231 120.231 219.651-219.645 389.589 389.589 120.231-120.231z" />
<glyph unicode="&#xf054;" glyph-name="gf-wrong32" d="M177.832 683.26l-77.764-77.764 333.199-333.199-330.182-330.182 77.378-77.378 330.182 330.182 335.895-335.895 77.764 77.764-335.895 335.895 338.559 338.559-77.378 77.378-338.559-338.559z" />
<glyph unicode="&#xf055;" glyph-name="down" d="M624.943 181.468c1.946-4.864 1.216-9.489-2.187-13.886l-142.405-157.018c-2.917-2.433-6.080-3.647-9.484-3.647-3.893 0-7.051 1.216-9.484 3.647l-144.592 157.018c-3.893 4.374-4.623 9.007-2.187 13.886 2.433 5.35 6.321 8.027 11.671 8.027h91.29v508.285c0 3.893 1.216 7.051 3.647 9.484s5.591 3.647 9.484 3.647h78.134c3.893 0 7.051-1.216 9.484-3.647 2.433-2.433 3.647-5.591 3.647-9.484v-508.285h91.29c5.35 0 9.243-2.677 11.671-8.027h0.020z" />
<glyph unicode="&#xf056;" glyph-name="up" d="M631.156 508.050c-2.51-5.524-6.531-8.288-12.058-8.288h-94.269v-524.888c0-4.021-1.257-7.281-3.77-9.794s-5.778-3.77-9.794-3.77h-80.682c-4.021 0-7.281 1.257-9.794 3.77s-3.77 5.778-3.77 9.794v524.888h-94.274c-6.029 0-10.045 2.764-12.058 8.288-2.008 5.524-1.257 10.306 2.259 14.337l147.057 162.148c2.51 2.51 5.778 3.77 9.794 3.77 3.516 0 6.779-1.257 9.794-3.77l149.317-162.148c3.516-4.518 4.267-9.299 2.259-14.337h-0.015z" />
<glyph unicode="&#xf057;" glyph-name="video" d="M102.331 311.421c0 113.47 40.294 210.5 120.889 291.095s177.348 120.618 290.272 120.067 209.951-40.573 291.095-120.067 121.16-176.526 120.067-291.095c-1.094-114.568-41.116-211.594-120.067-291.095s-175.984-119.518-291.095-120.067c-115.111-0.551-211.872 39.473-290.272 120.067s-118.697 177.625-120.889 291.095zM196.908 311.421c0-86.618 31.251-160.896 93.755-222.834s136.781-93.191 222.834-93.755 160.331 30.687 222.834 93.755c62.504 63.069 93.755 137.347 93.755 222.834s-31.251 160.048-93.755 223.676-136.781 94.607-222.834 92.935c-86.053-1.68-160.331-32.654-222.834-92.935s-93.755-134.836-93.755-223.676zM410.7 105.84v411.162l308.374-205.581-308.374-205.581z" />
<glyph unicode="&#xf058;" glyph-name="left" d="M569.105-36.272c0-6.928-2.968-13.361-8.91-19.303l-41.615-41.615c-4.951-4.951-10.887-7.425-17.812-7.425s-13.361 2.474-19.303 7.425l-386.375 386.375c-5.937 5.937-8.91 12.37-8.91 19.303 0 6.928 2.968 13.361 8.91 19.303l386.375 386.375c4.951 5.937 11.384 8.91 19.303 8.91s13.856-2.968 17.812-8.91l41.615-41.615c5.937-4.951 8.91-11.384 8.91-19.303s-2.968-13.856-8.91-17.812l-325.459-326.942 325.459-325.459c5.942-5.947 8.91-12.38 8.91-19.308zM887.137-36.272c0-6.928-2.474-13.361-7.425-19.303l-41.615-41.615c-5.937-4.951-12.37-7.425-19.303-7.425-6.928 0-13.361 2.474-19.303 7.425l-386.37 386.375c-5.937 5.937-8.91 12.37-8.91 19.303 0 6.928 2.968 13.361 8.91 19.303l386.375 386.375c5.937 5.937 12.37 8.91 19.303 8.91 6.928 0 13.361-2.968 19.303-8.91l41.615-41.615c4.951-4.951 7.425-11.384 7.425-19.303s-2.474-13.856-7.425-17.812l-326.942-326.942 326.942-325.459c4.946-5.947 7.419-12.38 7.419-19.308z" />
<glyph unicode="&#xf059;" glyph-name="right" d="M607.808 318.373c0-6.638-2.845-12.801-8.533-18.491l-370.133-370.133c-4.741-4.741-10.429-7.112-17.070-7.112s-12.801 2.371-18.491 7.112l-39.869 39.869c-5.691 5.691-8.533 11.853-8.533 18.491 0 6.633 2.845 12.801 8.533 18.491l311.778 311.778-311.768 313.196c-5.691 4.741-8.533 10.429-8.533 17.070s2.845 12.801 8.533 18.491l39.869 39.869c4.741 5.691 10.903 8.533 18.491 8.533s13.274-2.845 17.070-8.533l370.133-370.133c5.681-4.751 8.523-10.913 8.523-18.496zM912.474 318.373c0-6.638-2.371-12.801-7.112-18.491l-370.133-370.133c-5.691-4.741-11.853-7.112-18.491-7.112s-12.801 2.371-18.491 7.112l-39.869 39.869c-4.741 5.691-7.112 11.853-7.112 18.491 0 6.633 2.371 12.801 7.112 18.491l311.778 311.778-311.768 313.196c-4.741 4.741-7.112 10.429-7.112 17.070s2.371 12.801 7.112 18.491l39.869 39.869c5.691 5.691 11.853 8.533 18.491 8.533 6.633 0 12.801-2.845 18.491-8.533l370.133-370.133c4.731-4.751 7.102-10.913 7.102-18.496z" />
<glyph unicode="&#xf060;" glyph-name="gou" d="M592.757 109.055l168.105 168.105c3.26 3.26 4.894 7.343 4.894 12.257 0 4.91-1.639 8.997-4.894 12.257l-27.939 27.939c-3.596 3.26-7.682 4.894-12.257 4.894s-8.661-1.639-12.257-4.894l-127.914-127.914-57.835 57.835c-3.26 3.596-7.343 5.386-12.257 5.386-4.91 0-8.997-1.793-12.257-5.386l-27.939-27.939c-3.26-3.596-4.894-7.682-4.894-12.257s1.639-8.656 4.894-12.257l98.019-98.019c3.596-3.596 7.682-5.386 12.257-5.386s8.661 1.793 12.257 5.386l0.020-0.010zM833.955 697.344v-696.172h-696.172l696.172 696.172z" />
<glyph unicode="&#xf061;" glyph-name="share" d="M729.913 60.349v48.484l86.566 70.996v-162.75c0-11.548-4.323-21.649-12.972-30.298s-18.747-12.972-30.298-12.972h-649.247c-11.548 0-21.649 4.323-30.298 12.972s-12.972 18.747-12.972 30.298v476.115c0 12.703 4.036 23.089 12.109 31.158s18.46 12.109 31.158 12.109h249.315c-18.466-13.856-35.494-28-51.079-42.43s-26.835-25.685-33.758-33.758l-8.646-10.378h-112.535v-389.548h562.65zM658.942 361.606c-95.799 0-165.631-11.827-209.504-35.484s-90.043-75.89-138.507-156.696c0 4.611 0.287 10.964 0.863 19.052s3.173 24.254 7.786 48.484 10.964 47.027 19.052 68.374c8.088 21.352 20.781 45.306 38.081 71.859 17.295 26.559 37.497 49.347 60.593 68.374s53.97 35.184 92.614 48.484c38.647 13.295 81.648 19.933 128.992 19.917v135.057l287.392-216.421-287.392-225.074v154.101l0.031-0.031z" />
<glyph unicode="&#xf062;" glyph-name="down2" d="M779.477 563.895c25.342 29.942 52.964 29.942 82.87 0 29.942-25.342 29.942-52.964 0-82.87l-338.481-331.584c-25.342-25.342-52.964-25.342-82.87 0l-338.486 331.584c-29.942 29.942-29.942 57.563 0 82.87 27.642 27.642 56.434 27.642 86.37 0l293.569-269.42 297.025 269.42z" />
<glyph unicode="&#xf063;" glyph-name="up2" d="M217.658 126.339c-31.438-26.605-61.661-26.605-90.684 0-29.017 29.017-29.017 59.249 0 90.684l355.375 344.504c31.438 31.438 60.434 31.438 87.003 0l355.375-344.504c29.017-31.438 29.017-61.661 0-90.684-29.017-26.605-59.249-26.605-90.684 0l-308.22 286.483-308.163-286.483z" />
</font>
</defs>
</svg>
