<?xml version="1.0" standalone="no"?>
<!DOCTYPE svg PUBLIC "-//W3C//DTD SVG 1.1//EN" "http://www.w3.org/Graphics/SVG/1.1/DTD/svg11.dtd" >
<svg xmlns="http://www.w3.org/2000/svg">
<metadata>Generated by IcoMoon</metadata>
<defs>
<font id="icomoon" horiz-adv-x="1024">
<font-face units-per-em="1024" ascent="877.8572825024438" descent="-146.14271749755622" />
<missing-glyph horiz-adv-x="1024" />
<glyph unicode="&#x20;" horiz-adv-x="256.25024437927664" d="" />
<glyph unicode="&#xe155;" glyph-name="process" d="M512.487 772.182c-239.133 0-433.683-194.552-433.683-433.683s194.552-433.709 433.683-433.709c239.133 0 433.709 194.577 433.709 433.709s-194.577 433.683-433.709 433.683zM512.487-12.805c-193.705 0-351.278 157.594-351.278 351.304s157.574 351.278 351.278 351.278 351.304-157.574 351.304-351.278-157.6-351.304-351.304-351.304zM370.534 154.769c0-14.614 9.403-15.647 16.7-8.35l116.912 116.912c6.525 6.525 10.896 8.35 16.7 8.35 6.54 0 10.175-1.825 16.7-8.35 0 0 107.642-107.642 116.896-116.896s16.716-7.853 16.716 8.335v392.496h-300.634v-392.496z" />
<glyph unicode="&#xe161;" glyph-name="circle" d="M512.49-75.623c-228.326 0-414.099 185.773-414.099 414.119 0 228.326 185.773 414.099 414.099 414.099 228.346 0 414.119-185.773 414.119-414.099 0-228.346-185.773-414.119-414.119-414.119zM512.49 673.857c-184.917 0-335.359-150.441-335.359-335.359 0-184.944 150.441-335.386 335.359-335.386 184.944 0 335.386 150.441 335.386 335.386-0.005 184.922-150.441 335.359-335.386 335.359zM793.554 338.492c0-155.223-125.834-281.056-281.056-281.056s-281.056 125.834-281.056 281.056c0 155.223 125.834 281.056 281.056 281.056s281.056-125.834 281.056-281.056z" />
<glyph unicode="&#xe202;" glyph-name="zhibo" d="M912.579 588.548c-5.808 0-11.746-1.099-17.6-3.544l-232.467-95.655v99.155c0 27.606-22.406 50.005-50.005 50.005h-500.033c-27.606 0-50.005-22.406-50.005-50.005v-500.033c0-27.606 22.406-50.005 50.005-50.005h500.033c27.606 0 50.005 22.406 50.005 50.005v99.16l232.467-95.655c5.854-2.393 11.799-3.544 17.6-3.544 26.507 0 49.953 23.505 49.953 54.904v390.223c0 31.402-23.454 54.904-49.953 54.904v0.097zM562.506 163.516c0-13.796-11.203-24.999-24.999-24.999h-350.027c-13.796 0-24.999 11.203-24.999 24.999v350.021c0 13.796 11.203 24.999 24.999 24.999h350.021c13.796 0 24.999-11.203 24.999-24.999v-350.021zM862.523 213.521l-200.016 82.306v85.404l200.016 82.306v-250.016z" />
<glyph unicode="&#xe315;" glyph-name="error-right" d="M448.518 562.56c4.842 0 9.117-1.861 12.828-5.569l205.664-205.664c3.722-3.722 5.569-7.997 5.569-12.828s-1.861-9.117-5.569-12.828l-205.658-205.669c-3.722-3.722-7.997-5.569-12.828-5.569s-9.117 1.861-12.828 5.569l-27.918 27.918c-3.722 3.722-5.569 7.997-5.569 12.828s1.861 9.117 5.569 12.828l164.913 164.913-164.918 164.913c-3.722 3.722-5.569 7.997-5.569 12.828s1.861 9.117 5.569 12.828l27.918 27.918c3.722 3.722 7.997 5.574 12.828 5.574zM155.034 338.449c0-48.402 9.496-94.669 28.494-138.804s44.409-82.108 76.249-113.926c31.84-31.814 69.813-57.231 113.926-76.249s90.382-28.52 138.804-28.494 94.694 9.516 138.804 28.494c44.117 18.968 82.088 44.383 113.926 76.249s57.257 69.839 76.249 113.926 28.494 90.356 28.494 138.804c0 48.448-9.496 94.716-28.494 138.804s-44.409 82.062-76.249 113.926c-31.84 31.866-69.813 57.277-113.926 76.249s-90.382 28.467-138.804 28.494c-48.428 0.026-94.694-9.47-138.804-28.494-44.117-19.016-82.088-44.434-113.926-76.249s-57.257-69.792-76.249-113.926-28.494-90.403-28.494-138.804zM512.501 767.414c77.831 0 149.602-19.178 215.303-57.518s117.738-90.382 156.105-156.105 57.543-137.497 57.518-215.303c-0.026-77.811-19.2-149.575-57.518-215.303s-90.356-117.764-156.105-156.105c-65.749-38.339-137.518-57.518-215.303-57.518s-149.554 19.178-215.303 57.518-117.789 90.382-156.105 156.105-57.496 137.497-57.518 215.303c-0.026 77.811 19.151 149.575 57.518 215.303s90.403 117.764 156.105 156.105c65.702 38.339 137.471 57.518 215.303 57.518z" />
<glyph unicode="&#xe316;" glyph-name="error-down" d="M747.185 405.5c0-5.067-1.948-9.542-5.844-13.443l-215.402-215.402c-3.896-3.896-8.371-5.844-13.443-5.844-5.067 0-9.542 1.948-13.443 5.844l-215.402 215.402c-3.896 3.896-5.844 8.371-5.844 13.443s1.948 9.542 5.844 13.443l29.235 29.235c3.896 3.896 8.371 5.844 13.438 5.844s9.542-1.948 13.443-5.844l172.726-172.721 172.721 172.721c3.896 3.896 8.371 5.844 13.438 5.844s9.542-1.948 13.443-5.844l29.235-29.235c3.901-3.901 5.849-8.376 5.849-13.443zM512.462 712.885c-50.694 0-99.155-9.95-145.376-29.841s-86.001-46.51-119.325-79.861-59.939-73.119-79.856-119.32-29.866-94.658-29.841-145.376c0.026-50.715 9.976-99.176 29.841-145.376s46.485-85.976 79.861-119.32c33.367-33.341 73.145-59.965 119.32-79.861s94.633-29.841 145.376-29.841 99.201 9.95 145.376 29.841c46.178 19.891 85.95 46.51 119.32 79.861 33.367 33.341 59.991 73.119 79.861 119.32s29.815 94.658 29.841 145.376-9.924 99.176-29.841 145.376c-19.911 46.203-46.536 85.976-79.861 119.32s-73.093 59.965-119.32 79.861c-46.229 19.886-94.684 29.841-145.376 29.841zM961.739 338.487c0-81.518-20.081-156.686-60.241-225.496-40.159-68.816-94.658-123.315-163.502-163.502-68.837-40.185-144.005-60.267-225.496-60.241s-156.661 20.103-225.496 60.241-123.336 94.633-163.502 163.502-60.241 144.027-60.241 225.496 20.081 156.634 60.241 225.496 94.658 123.362 163.502 163.502 144 60.215 225.496 60.241c81.492 0.026 156.661-20.055 225.496-60.241s123.336-94.684 163.502-163.502 60.241-143.98 60.241-225.496z" />
<glyph unicode="&#xe317;" glyph-name="xiaoxi" d="M769.905-95.405c-17.446 0-43.761 5.533-70.118 31.983l-187.243 187.202-187.419-187.332c-40.599-40.82-108.772-36.228-139.069 8.14-11.254 16.49-16.966 36.357-16.966 59.083v777.674h686.82v-777.674c0-68.083-44.579-99.078-86.001-99.078zM316.856 633.576v-496.463l113.444 113.444c15.708 15.708 41.336 36.62 82.196 36.62 40.17 0 64.102-18.525 82.196-36.62l113.444-113.444v496.463h-391.282z" />
<glyph unicode="&#xe417;" glyph-name="wangxin" d="M788.717 780.447h-552.446c-30.496 0-55.243-24.748-55.243-55.243v-773.377c0-32.483 26.686-55.3 55.41-55.3 10.278 0 20.827 2.93 30.496 9.337l227.557 196.061c10.385 8.958 25.694 8.958 36.023 0l227.552-196.061c9.659-6.458 20.227-9.337 30.496-9.337 28.731 0 55.41 22.867 55.41 55.3v773.372c0 30.501-24.748 55.248-55.248 55.248zM656.173 212.418l-143.679 75.537-143.674-75.532 27.445 159.977-116.226 113.293 160.631 23.352 71.827 145.547 71.832-145.552 160.631-23.352-116.231-113.293 27.451-159.977z" />
<glyph unicode="&#xe420;" glyph-name="time22" d="M512.498 17.722c72.844 0 134.814 25.858 185.908 77.572s76.648 113.983 76.67 186.806c0.020 72.823-25.54 134.792-76.67 185.908s-113.1 76.67-185.908 76.67-134.776-25.561-185.908-76.67-76.69-113.079-76.67-185.908c0.020-72.823 25.576-135.094 76.67-186.806 51.096-51.717 113.064-77.572 185.908-77.572zM776.853 491.809c49.348-62.26 74.017-132.161 74.017-209.707 0-92.807-32.899-172.408-98.692-238.805s-145.687-99.584-239.677-99.564-173.887 33.206-239.677 99.564-98.692 145.957-98.692 238.805 32.899 172.449 98.692 238.805 145.687 99.548 239.677 99.564c76.379 0 146.871-25.268 211.483-75.797l52.869 54.62c18.797-15.268 36.419-32.888 52.869-52.869l-52.869-54.615zM475.506 243.302v225.58h74.017v-225.58h-74.017zM625.289 733.262v-75.797h-225.58v75.797h225.58z" />
<glyph unicode="&#xe421;" glyph-name="rest" d="M598.169 334.418c0 2.966-0.046 5.788-0.598 8.744-0.598 2.919-1.687 5.528-2.822 8.253-0.792 1.979-0.89 4.101-1.979 6.033-0.552 0.89-1.427 1.381-2.025 2.224-1.427 2.122-3.257 3.86-5.093 5.788-2.516 2.628-4.995 5.139-8.007 7.071-0.598 0.389-0.941 1.038-1.59 1.381l-158.337 91.664c-0.987 0.598-2.122 0.598-3.16 1.084-2.122 1.038-4.393 1.524-6.724 2.271-3.712 1.084-7.266 2.025-11.024 2.173-0.695 0.046-1.284 0.44-2.025 0.44-1.427 0-2.674-0.695-4.101-0.843-3.906-0.343-7.558-0.941-11.218-2.271-2.219-0.792-4.152-1.881-6.228-3.017-3.017-1.636-5.834-3.355-8.447-5.685-2.076-1.83-3.666-3.957-5.385-6.080-1.33-1.687-3.063-2.868-4.198-4.75-0.552-0.941-0.486-2.025-0.987-2.966-1.284-2.564-1.928-5.287-2.725-8.104-0.843-3.114-1.687-6.080-1.881-9.24-0.051-0.987-0.552-1.83-0.552-2.822v-182.95c0-0.987 0.486-1.784 0.552-2.771 0.195-3.017 0.987-5.834 1.784-8.801 0.792-3.063 1.59-6.033 2.966-8.801 0.389-0.792 0.389-1.733 0.843-2.564 0.987-1.636 2.516-2.628 3.666-4.101 1.979-2.628 3.906-5.042 6.371-7.215 2.173-1.881 4.49-3.257 6.969-4.698 2.564-1.478 5.093-2.868 7.961-3.86 2.966-0.987 5.936-1.427 9.045-1.83 1.928-0.246 3.606-1.135 5.579-1.135 0.987 0 1.83 0.552 2.771 0.598 3.017 0.148 5.885 0.987 8.85 1.784 3.017 0.792 5.982 1.524 8.693 2.919 0.89 0.44 1.784 0.389 2.628 0.89l158.337 91.669c0.649 0.343 0.987 0.987 1.59 1.381 3.017 1.928 5.482 4.444 8.007 7.066 1.83 1.928 3.666 3.666 5.093 5.788 0.598 0.843 1.478 1.33 2.025 2.271 1.084 1.881 1.186 4.004 1.979 5.982 1.135 2.725 2.219 5.333 2.822 8.253 0.546 2.966 0.593 5.788 0.593 8.744zM966.736 356.676l-113.958 113.958c-15.713 15.713-41.264 15.713-56.98 0l-113.963-113.958c-15.713-15.713-15.713-41.264 0-56.98s41.264-15.713 56.98 0l47.986 47.986c0.046-3.063 0.389-6.131 0.389-9.194 0-184.875-150.38-335.255-335.255-335.255s-335.255 150.38-335.255 335.255 150.38 335.255 335.255 335.255c93.699 0 180.625-37.658 244.723-106.052 14.040-14.976 37.458-15.662 52.385-1.733 14.921 13.987 15.713 37.458 1.733 52.385-77.141 82.331-186.065 129.529-298.839 129.529-225.746 0-409.387-183.64-409.387-409.387s183.64-409.387 409.387-409.387 409.387 183.64 409.387 409.387c0 3.355-0.389 6.724-0.44 10.083l48.873-48.873c15.713-15.713 41.264-15.713 56.98 0s15.713 41.264 0.005 56.98z" />
<glyph unicode="&#xe422;" glyph-name="qian" d="M921.696 483.275c-3.758 29.028-30.391 49.568-59.359 45.769-29.028-3.758-49.522-30.326-45.769-59.359 7.879-61.019-12.507-120.92-55.953-164.363-76.638-76.638-201.355-76.617-277.947 0.020-37.122 37.122-57.57 86.473-57.548 138.976 0 52.503 20.453 101.831 57.57 138.95 38.738 38.717 92.577 59.687 147.105 57.398 30.128-0.91 53.944 21.527 55.154 50.793 1.186 29.246-21.547 53.944-50.793 55.154-84.491 3.022-166.818-28.752-226.441-88.373-57.137-57.132-88.608-133.1-88.628-213.921 0-31.902 5.088-62.981 14.532-92.51l-188.561-188.541c-53.902-53.902-53.902-141.608 0-195.507 26.962-26.937 62.359-40.421 97.752-40.421s70.794 13.479 97.752 40.421l188.753 188.711c29.989-9.557 61.123-14.578 92.323-14.578 77.479 0 154.957 29.49 213.948 88.456 66.875 66.86 98.257 159.053 86.111 252.924zM265.591 42.734c-12.553-12.553-33.001-12.553-45.554 0-12.574 12.553-12.574 33.001 0 45.554l166.143 166.122c6.731-8.309 13.844-16.378 21.516-24.038 7.699-7.699 15.744-14.834 24.028-21.532l-166.133-166.106z" />
<glyph unicode="&#xe430;" glyph-name="a12" d="M774.679 757.954h-524.338c-28.941 0-52.436-23.495-52.436-52.436v-734.012c0-30.833 25.326-52.487 52.59-52.487 9.749 0 19.763 2.781 28.941 8.866l215.971 186.085c9.863 8.488 24.385 8.488 34.182 0l215.971-186.085c9.178-6.136 19.195-8.866 28.941-8.866 27.264 0 52.59 21.706 52.59 52.487v734.012c0.005 28.941-23.485 52.436-52.426 52.436zM722.243 86.442l-192.641 166.003c-9.863 8.488-24.385 8.488-34.182 0l-192.641-166.003v540.432c0 14.471 11.741 26.215 26.215 26.215h367.031c14.471 0 26.215-11.741 26.215-26.215v-540.432z" />
<glyph unicode="&#xe438;" glyph-name="d2" d="M265.72 338.486c0-151.469 122.793-274.262 274.262-274.262v548.523c-151.469 0-274.262-122.793-274.262-274.262zM512.489 728.434c-215.013 0-389.947-174.937-389.947-389.947s174.937-389.947 389.947-389.947c215.033 0 389.963 174.937 389.963 389.947 0.005 215.013-174.931 389.947-389.963 389.947zM512.489-12.279c-193.415 0-350.766 157.351-350.766 350.766s157.351 350.766 350.766 350.766c193.436 0 350.787-157.351 350.787-350.766s-157.351-350.766-350.787-350.766z" />
<glyph unicode="&#xe439;" glyph-name="process1" d="M512.513-107.245c-245.776 0-445.755 199.955-445.755 445.73s199.98 445.735 445.755 445.735 445.73-199.955 445.73-445.73-199.955-445.735-445.73-445.735zM512.513 699.518c-199.087 0-361.063-161.949-361.063-361.037s161.975-361.037 361.063-361.037 361.037 161.949 361.037 361.037-161.949 361.037-361.037 361.037zM668.634 92.882c-10.001 0-25.076 3.175-40.19 18.336l-107.319 107.299-107.424-107.377c-23.272-23.398-62.343-20.76-79.711 4.672-6.448 9.45-9.721 20.837-9.721 33.865v445.73h393.659v-445.73c0.005-39.024-25.551-56.783-49.292-56.783zM408.963 510.707v-284.555l65.020 65.020c9.009 9.009 23.69 20.985 47.111 20.985 23.015 0 36.745-10.616 47.111-20.985l65.020-65.020v284.555h-224.262z" />
<glyph unicode="&#xe440;" glyph-name="bj" d="M102.004-70.772l56.406 284.55 227.313-226.483-283.719-58.065zM215.647 254.441l350.071 350.071 214.856-215.681-349.243-350.071-215.681 215.681zM656.156 664.229c1.105 21.568 9.67 40.641 25.72 57.236 16.042 16.593 35.118 25.161 57.236 25.72s40.364-6.632 54.748-21.573l108.669-107.842c13.822-14.384 20.468-32.635 19.911-54.748s-8.856-41.197-24.886-57.236c-16.042-16.042-35.118-24.342-57.236-24.886s-40.364 6.090-54.748 19.911l-108.669 108.669c-14.937 14.932-21.849 33.18-20.745 54.748z" />
<glyph unicode="&#xe442;" glyph-name="kj" d="M130.457 133.918c5.731 7.802 14.040 14.568 24.973 20.304 10.947 5.731 23.685 10.947 38.252 15.616s24.973 8.57 31.212 11.689c9.899 0 18.735-1.048 26.537-3.119s16.378-5.972 25.755-11.689c9.378-5.731 15.883-9.091 19.517-10.139 24.446-10.947 92.085-41.889 202.929-92.891 9.899-2.071 19.256-2.071 28.093 0s18.978 6.78 30.433 14.066c11.449 7.286 17.687 10.947 18.735 10.921 10.406 4.683 30.433 13.786 60.090 27.318 29.657 13.52 52.291 23.685 67.913 30.433 2.071 1.048 13.018 6.499 32.776 16.398s35.381 16.137 46.834 18.735c6.754 1.048 14.040 0.782 21.854-0.782s13.786-3.385 17.955-5.456c4.167-2.071 10.139-5.456 17.955-10.139s12.497-7.527 14.066-8.57c1.564-1.048 5.731-2.612 12.476-4.683s11.449-4.167 14.066-6.238c2.612-2.071 5.477-4.949 8.57-8.57 1.564-2.071 2.612-5.731 3.119-10.921-5.19-6.754-13.258-13.018-24.197-18.735s-24.197-11.449-39.819-17.185c-15.616-5.731-26.022-9.873-31.212-12.476-22.375-10.406-55.678-26.537-99.907-48.392s-77.806-37.721-100.685-47.61c-3.634-1.564-9.117-4.683-16.398-9.357-7.286-4.683-13.284-8.068-17.955-10.139s-11.449-4.949-20.304-8.57c-8.85-3.634-15.883-5.456-21.077-5.456s-13.018 0.507-23.418 1.564l-206.048 96.005c-3.119 1.564-11.449 5.19-24.973 10.921-13.52 5.731-26.804 11.449-39.819 17.185-13.018 5.731-27.070 11.995-42.159 18.735s-27.044 13.018-35.895 18.735c-8.85 5.731-14.568 9.899-17.185 12.476-2.071 2.071-3.119 5.456-3.119 10.139l0.036-0.092zM130.457 343.106c5.731 7.802 14.040 14.307 24.973 19.517 10.947 5.216 23.951 10.426 39.040 15.616s25.755 9.091 31.994 11.689c9.899 0 18.735-1.048 26.537-3.119s16.906-5.972 27.318-11.689c10.406-5.731 16.906-9.357 19.517-10.921 21.854-9.899 54.899-24.973 99.125-45.273 44.23-20.304 77.266-35.65 99.125-46.057 9.899-2.612 19.517-2.612 28.875 0s19.497 7.020 30.433 13.284c10.947 6.259 17.446 9.899 19.517 10.921 35.376 16.639 77.001 35.376 124.879 56.192 5.731 2.612 14.040 7.020 24.973 13.284 10.947 6.259 20.806 11.208 29.657 14.834s18.208 6.499 28.093 8.57c8.309 1.564 16.639 1.289 24.973-0.782s17.955-6.499 28.875-13.284c10.921-6.78 16.906-10.165 17.955-10.139 2.612-1.564 6.754-3.119 12.476-4.683s10.4-3.634 14.066-6.238c3.66-2.612 6.499-5.456 8.57-8.57 1.564-2.612 2.612-6.238 3.119-10.921-5.19-7.286-13.258-13.786-24.197-19.517s-24.733-11.715-41.372-17.955-27.318-10.406-31.994-12.476c-24.973-11.97-60.111-28.875-105.363-50.73s-77.266-37.209-96.005-46.057c-3.634-1.564-10.406-5.19-20.304-10.921s-17.446-9.618-22.636-11.689c-5.19-2.071-13.52-4.683-24.973-7.802-11.449-3.119-20.806-3.119-28.093 0-111.357 52.559-179 84.284-202.929 95.226-3.119 1.564-14.568 6.499-34.332 14.834-19.758 8.335-37.721 16.137-53.85 23.418-16.137 7.286-32.261 15.089-48.392 23.418-16.137 8.335-24.973 14.066-26.537 17.185-2.071 2.071-3.119 5.731-3.119 10.921v-0.097zM130.457 551.496c5.19 7.802 13.52 14.808 24.973 21.077 11.449 6.259 24.973 11.995 40.594 17.185s26.269 9.357 31.994 12.497l271.619 126.44c15.616 0 29.657-1.83 42.159-5.456 12.497-3.634 27.070-10.406 43.714-20.304s27.044-15.616 31.212-17.185c20.304-9.378 50.73-23.418 91.326-42.159 40.594-18.735 71.032-33.042 91.326-42.938 2.071-1.048 11.689-4.949 28.875-11.689s31.212-13.018 42.154-18.735c10.947-5.731 17.955-10.947 21.077-15.616 1.564-2.071 2.612-5.456 3.119-10.139-4.683-6.754-11.449-12.476-20.304-17.185-8.85-4.709-20.027-9.644-33.553-14.834s-22.611-8.85-27.318-10.921c-24.446-11.449-60.868-28.634-109.26-51.511s-84.554-40.323-108.483-52.291c-3.119-1.564-8.335-4.408-15.616-8.57-7.286-4.167-13.284-7.286-17.955-9.357s-11.188-4.949-19.517-8.57c-8.335-3.634-15.355-5.19-21.077-4.683s-13.018 0.782-21.854 0.782c-127.489 59.333-194.084 90.278-199.809 92.885-2.071 1.048-18.469 8.335-49.177 21.854-30.705 13.52-57.236 25.489-79.607 35.895s-34.872 18.208-37.473 23.418c-2.071 2.071-3.119 5.456-3.119 10.139l-0.026-0.020z" />
<glyph unicode="&#xe445;" glyph-name="ring" d="M519.688-37.816c0 4.485-2.521 6.743-7.573 6.743-18.546 0-34.285 6.754-47.221 20.248-12.938 13.494-19.676 29.516-20.248 48.065 0 5.057-2.521 7.573-7.573 7.573-5.057 0-7.573-2.521-7.573-7.573 0-23.036 8.15-42.712 24.456-59.010 16.306-16.306 35.692-24.171 58.17-23.613 5.047-0.005 7.568 2.516 7.568 7.573zM904.134 97.080c0-16.306-6.187-30.359-18.556-42.169s-26.429-17.713-42.169-17.713h-210.781c0-33.16-11.799-61.55-35.403-85.151s-51.983-35.403-85.151-35.403c-33.16 0-61.55 11.799-85.151 35.403s-35.403 51.983-35.403 85.151h-210.771c-16.306 0-30.359 5.911-42.169 17.713s-17.713 25.863-17.713 42.169c59.572 50.591 104.537 112.981 134.896 187.17s45.534 152.321 45.534 234.393c0 51.711 15.181 92.749 45.534 123.104s71.671 48.905 123.945 55.642c-2.245 5.61-3.365 11.239-3.365 16.869 0 12.938 4.208 23.613 12.63 32.030s19.103 12.916 32.030 13.474c12.938 0.567 23.613-3.932 32.030-13.474 8.422-9.542 12.916-20.227 13.474-32.030 0-5.61-1.396-11.239-4.208-16.869 52.832-6.177 94.43-24.723 124.791-55.642s45.257-71.957 44.694-123.104c0-82.067 15.181-160.2 45.534-234.393s75.61-136.583 135.742-187.17z" />
<glyph unicode="&#xe900;" glyph-name="x" d="M31.704 461.662c9.507 27.585 27.585 42.801 55.167 46.606l254.905 38.997 109.382 235.881c12.366 27.585 32.336 40.899 61.822 40.899s50.41-13.319 62.774-40.899l109.382-234.931 253.954-38.997c27.585-3.812 45.654-19.967 54.215-46.606 8.554-27.585 3.812-50.41-14.272-70.384l-185.471-192.13 41.85-264.414c4.765-28.535-3.812-51.361-28.535-68.483-11.413-9.507-24.732-14.272-39.948-14.272-11.413 0-22.826 2.859-34.239 7.601l-219.712 124.598-218.761-122.697c-11.413-5.708-22.826-7.601-34.239-7.601-15.225 0-28.535 4.765-39.948 14.272-24.732 17.122-34.239 38.997-29.485 68.483l41.85 264.414-182.618 189.276c-20.92 19.967-26.636 42.801-18.070 70.384v0zM99.236 440.735l185.471-191.179c16.174-17.122 21.873-38.047 18.070-60.871l-42.801-264.414 218.761 122.697c10.46 5.708 21.873 7.601 34.239 7.601s23.779-2.859 34.239-7.601l219.712-122.697-43.752 264.414c-3.812 23.779 2.859 43.752 19.018 60.871l185.471 191.179-252.051 37.096c-25.685 3.812-42.801 18.070-52.312 40.899l-110.332 233.979-109.382-233.979c-10.46-23.779-28.535-36.145-53.264-38.997l-251.099-38.997z" />
<glyph unicode="&#xe901;" glyph-name="42" d="M762.897 308.975c-70.453 0-133.29-34.272-174.228-86.638l-107.584 69.501c2.862 16.19 5.714 32.368 5.714 48.554 0 27.612-5.714 53.316-14.286 77.118l101.87 55.221c39.987-62.835 109.489-104.726 188.509-104.726 123.769 0 225.639 103.774 225.639 230.4s-100.918 230.4-225.639 230.4c-123.769 0-224.688-103.774-224.688-230.4 0-21.894 3.816-41.891 9.516-61.882l-106.632-57.126c-40.939 55.221-105.679 92.35-179.941 92.35-123.769 0-224.688-102.822-224.688-230.4s100.918-230.4 224.688-230.4c83.781 0 156.138 47.602 195.173 117.103l97.111-62.835 3.816 6.654c-12.378-28.563-19.987-59.979-19.987-93.302 0-127.576 100.918-230.4 224.688-230.4s225.639 103.774 225.639 230.4c0.954 127.576-99.967 230.4-224.688 230.4zM762.897 760.257c87.59 0 158.995-73.308 158.995-162.804s-71.405-162.804-158.995-162.804-158.995 73.308-158.995 162.804 72.356 162.804 158.995 162.804zM261.16 178.544c-87.59 0-158.995 73.308-158.995 162.804s71.405 162.804 158.995 162.804 158.995-73.308 158.995-162.804-71.405-162.804-158.995-162.804zM762.897-83.275c-87.59 0-158.995 73.308-158.995 162.804s71.405 162.804 158.995 162.804 158.995-74.26 158.995-163.756-71.405-161.852-158.995-161.852z" />
<glyph unicode="&#xe902;" glyph-name="122" d="M26.472 79.526v517.922c0 43.795 11.424 80.925 35.226 112.343s52.363 47.602 86.638 47.602h728.329c34.272 0 62.835-16.19 86.638-47.602 22.848-31.416 35.226-68.55 35.226-112.343v-518.874c0-44.747-11.424-82.829-35.226-113.295-22.848-30.465-52.363-45.699-86.638-45.699h-728.329c-34.272 0-62.835 15.24-86.638 45.699s-35.226 68.55-35.226 114.247zM87.401 79.526c0-21.894 5.714-40.939 17.139-56.173s25.71-23.802 42.843-24.756h728.329c16.19 0 30.465 8.562 42.843 24.756s18.088 35.226 17.139 56.173l-236.112 233.256-132.336-128.529c-17.139-17.139-35.226-25.71-55.221-25.71s-38.084 8.562-55.221 25.71l-132.336 128.529-237.064-233.256zM87.401 129.034l211.358 209.455-211.358 209.455v-418.909zM87.401 597.448l237.064-235.161 26.662-24.756 125.672-124.72c10.47-10.47 21.894-15.24 36.18-15.24s25.71 4.77 36.18 15.24l388.442 384.635c0 20.94-5.714 39.987-17.139 56.173s-25.71 23.802-42.843 22.848h-729.281c-16.19 0-30.465-7.608-42.843-22.848s-18.088-33.32-18.088-56.173v0zM724.333 338.49l211.358-209.455v418.909l-211.358-209.455z" />
<glyph unicode="&#xe903;" glyph-name="22" d="M512.5 824.040c-267.528 0-485.553-218.022-485.553-485.553s218.022-485.553 485.553-485.553 485.553 218.022 485.553 485.553-218.022 485.553-485.553 485.553zM834.302 87.145c-8.562 15.24-18.088 30.465-29.514 44.747-43.795 55.221-99.016 95.207-165.659 119.009 47.602 39.035 72.356 89.494 72.356 149.475 0.954 53.316-18.088 99.016-58.077 136.146s-86.638 56.173-139.002 56.173c-53.316 0-99.016-19.037-138.050-56.173s-59.028-82.829-59.028-136.146c0-60.931 24.756-111.392 74.26-150.426-51.411-19.987-97.111-52.363-137.097-96.159-21.894-24.756-39.987-50.459-53.316-78.070-60.931 71.405-97.111 162.804-97.111 262.77 0 225.639 183.748 408.436 408.436 408.436s408.436-182.797 408.436-408.436c0-94.255-32.368-181.845-86.638-251.344z" />
<glyph unicode="&#xe904;" glyph-name="32" d="M357.307 338.487c0-53.632-34.955-97.111-78.070-97.111s-78.070 43.478-78.070 97.111c0 53.632 34.955 97.111 78.070 97.111s78.070-43.478 78.070-97.111zM590.562 338.487c0-53.632-34.955-97.111-78.070-97.111s-78.070 43.478-78.070 97.111c0 53.632 34.955 97.111 78.070 97.111s78.070-43.478 78.070-97.111zM823.818 338.487c0-53.632-34.955-97.111-78.070-97.111s-78.070 43.478-78.070 97.111c0 53.632 34.955 97.111 78.070 97.111s78.070-43.478 78.070-97.111zM939.969 824.038h-854.954c-21.894 0-39.035-21.894-39.035-48.554v-288.476h91.398v218.022c0 5.714 3.816 9.516 7.608 9.516h734.995c4.77 0 7.608-4.77 7.608-9.516v-220.879h91.398v291.332c0 27.612-17.139 48.554-39.035 48.554zM887.606-28.058c0-5.714-3.816-9.516-7.608-9.516h-734.995c-4.77 0-7.608 4.77-7.608 9.516v174.228h-91.398v-244.681c0-26.662 17.139-48.554 39.035-48.554h854.954c21.894 0 39.035 21.894 39.035 48.554v242.776h-91.398v-172.324z" />
<glyph unicode="&#xe905;" glyph-name="13" d="M874.15 730.447h-723.297v-65.328h723.297v65.328zM150.852-53.472h723.297v65.328h-723.297v-65.328zM874.15 599.795h-723.297c-50.171 0-90.413-29.263-90.413-65.328v-391.96c0-36.063 40.243-65.328 90.413-65.328h723.297c50.171 0 90.413 29.263 90.413 65.328v391.96c0 36.063-40.243 65.328-90.413 65.328zM512.496 509.907c55.921 0 101.91-32.928 101.91-73.69s-45.468-73.69-101.91-73.69-101.91 33.446-101.91 73.69c0 40.763 45.99 73.69 101.91 73.69zM738.792 174.91h-452.060v49.126c0 54.352 150.513 81.527 226.292 81.527s226.292-27.172 226.292-81.527v-49.126z" />
<glyph unicode="&#xe906;" glyph-name="23" d="M868.394 656.235h-212.704c-20.9 45.99-76.826 79.436-143.196 79.436s-122.29-33.446-143.196-79.436h-212.704c-55.921 0-101.387-35.536-101.387-79.436v-556.061c0-43.899 45.468-79.436 101.387-79.436h711.279c55.921 0 101.387 35.536 101.387 79.436v556.061c0.533 43.899-44.945 79.436-100.865 79.436zM512.491 656.235c27.703 0 50.694-17.765 50.694-39.718s-22.99-39.718-50.694-39.718c-27.703 0-50.694 17.765-50.694 39.718s22.99 39.718 50.694 39.718zM613.882 100.179h-355.377v79.436h355.902v-79.436zM766.487 259.051h-507.98v79.436h507.98v-79.436zM766.487 417.927h-507.98v79.436h507.98v-79.436z" />
<glyph unicode="&#xe907;" glyph-name="33" d="M714.752 428.635c-2.623 3.668-6.27 5.225-10.983 5.225h-68.984c-5.758 0-9.938-2.090-11.495-6.27l-100.865-113.93-102.432 114.453c-2.623 4.18-6.27 5.758-11.495 5.758h-78.391c-4.713 0-8.893-1.578-11.495-5.225-2.090-3.668-2.090-7.315 0-10.45l121.77-123.86h-86.753c-3.668 0-6.803-1.045-9.405-3.135s-3.668-4.713-3.668-7.848v-33.973c-0.533-2.623 0.533-5.225 3.668-6.803s6.27-3.135 9.405-3.135h117.065v-28.218h-117.065c-3.668 0.533-6.803-0.533-9.405-3.135s-3.668-4.713-3.668-7.848v-33.446c-0.533-3.135 0.533-5.758 3.668-7.848s6.27-3.135 9.405-3.135h117.065v-76.826c0-3.135 1.045-5.758 3.668-7.848s5.758-3.135 9.405-3.135h70.029c3.135 0 6.27 1.045 8.893 3.135s3.668 4.713 3.668 7.848v76.826h117.588c3.668 0 6.803 1.045 9.405 3.135s3.668 4.713 3.668 7.848v33.446c0.533 3.135-0.533 5.758-3.668 7.848s-6.27 3.135-9.405 3.135h-117.588v28.218h117.588c3.668 0 6.803 1.045 9.405 3.135s3.668 4.18 3.668 6.803v33.973c0.533 3.135-0.533 5.758-3.668 7.848s-6.27 3.135-9.405 3.135h-87.277l119.155 123.86c1.578 3.668 1.578 7.315-1.045 10.45zM694.893 572.876c165.669-55.397 280.121-182.393 280.121-331.86 0-200.161-206.432-362.693-460.945-362.693-257.648 0.533-464.080 163.055-464.080 363.218 0 149.468 114.453 276.463 280.121 331.86l-116.020 197.548c0 18.81 16.72 27.703 39.718 27.703h517.385c22.478 0 39.718-7.848 39.718-27.703l-116.020-198.070z" />
<glyph unicode="&#xe908;" glyph-name="43" d="M853.252 338.49c0-50.694 26.658-93.025 79.961-128.041-7.848-28.218-19.343-56.966-33.973-86.232-46.513 12.54-91.98-2.623-136.403-46.513-36.063-40.763-47.558-88.322-33.973-143.196-26.658-14.118-54.875-26.658-84.142-37.627-30.838 57.487-74.735 86.232-132.221 86.232s-101.387-28.748-132.221-86.232c-29.263 10.983-57.487 24.035-84.142 37.627 13.585 55.921 2.090 104-33.973 143.196-36.063 37.627-81.527 49.648-136.403 35.536-9.405 18.298-20.9 47.035-33.973 86.232 54.875 36.582 82.052 82.572 82.052 139.015 0 50.694-27.172 94.071-82.052 130.131 13.585 39.198 24.568 67.939 33.973 86.232 49.648-12.54 94.593 2.623 136.403 46.513 36.063 39.198 47.558 86.753 33.973 143.196 28.218 15.675 55.921 27.172 84.142 35.536 30.838-55.921 74.735-84.142 132.221-84.142s101.387 28.218 132.221 84.142c28.218-8.36 55.921-20.388 84.142-35.536-13.585-54.875-2.090-102.432 33.973-143.196 43.899-43.378 89.368-59.057 136.403-46.513 14.63-29.263 26.126-58.011 33.973-86.232-53.306-35.018-79.961-78.391-79.961-130.131zM512.504 147.213c50.694 0 94.071 18.81 129.086 55.921 35.536 37.108 53.306 82.572 53.306 135.88s-17.765 98.774-53.306 136.925c-35.536 37.627-78.391 56.966-129.086 56.966s-94.071-18.81-129.086-56.966c-35.536-37.627-53.306-83.617-53.306-136.925s17.765-98.251 53.306-135.88c35.018-37.627 78.391-55.921 129.086-55.921z" />
<glyph unicode="&#xe909;" glyph-name="1" d="M873.796 730.063h-722.591v-65.264h722.591v65.264zM151.206-53.090h722.591v65.264h-722.591v-65.264zM873.796 599.539h-722.591c-50.122 0-90.325-29.234-90.325-65.264v-391.577c0-36.028 40.204-65.264 90.325-65.264h722.591c50.122 0 90.325 29.234 90.325 65.264v391.577c0 36.028-40.204 65.264-90.325 65.264zM512.497 509.739c55.866 0 101.81-32.896 101.81-73.618s-45.424-73.618-101.81-73.618-101.81 33.413-101.81 73.618c0 40.723 45.945 73.618 101.81 73.618zM738.572 175.070h-451.619v49.078c0 54.299 150.366 81.447 226.071 81.447s226.071-27.145 226.071-81.447v-49.078z" />
<glyph unicode="&#xe90a;" glyph-name="2" d="M868.045 655.926h-212.496c-20.88 45.945-76.751 79.358-143.056 79.358s-122.171-33.413-143.056-79.358h-212.496c-55.866 0-101.288-35.501-101.288-79.358v-555.518c0-43.856 45.424-79.358 101.288-79.358h710.584c55.866 0 101.288 35.501 101.288 79.358v555.518c0.532 43.856-44.901 79.358-100.766 79.358zM512.489 655.926c27.676 0 50.644-17.748 50.644-39.679s-22.968-39.679-50.644-39.679c-27.676 0-50.644 17.748-50.644 39.679s22.968 39.679 50.644 39.679zM613.781 100.413h-355.030v79.358h355.554v-79.358zM766.236 259.13h-507.484v79.358h507.484v-79.358zM766.236 417.851h-507.484v79.358h507.484v-79.358z" />
<glyph unicode="&#xe90b;" glyph-name="3" d="M714.554 428.545c-2.62 3.664-6.264 5.22-10.972 5.22h-68.917c-5.752 0-9.928-2.088-11.484-6.264l-100.766-113.819-102.332 114.341c-2.62 4.176-6.264 5.752-11.484 5.752h-78.314c-4.708 0-8.884-1.576-11.484-5.22-2.088-3.664-2.088-7.308 0-10.44l121.651-123.739h-86.668c-3.664 0-6.796-1.044-9.396-3.132s-3.664-4.708-3.664-7.84v-33.94c-0.532-2.62 0.532-5.22 3.664-6.796s6.264-3.132 9.396-3.132h116.951v-28.19h-116.951c-3.664 0.532-6.796-0.532-9.396-3.132s-3.664-4.708-3.664-7.84v-33.413c-0.532-3.132 0.532-5.752 3.664-7.84s6.264-3.132 9.396-3.132h116.951v-76.751c0-3.132 1.044-5.752 3.664-7.84s5.752-3.132 9.396-3.132h69.961c3.132 0 6.264 1.044 8.884 3.132s3.664 4.708 3.664 7.84v76.751h117.473c3.664 0 6.796 1.044 9.396 3.132s3.664 4.708 3.664 7.84v33.413c0.532 3.132-0.532 5.752-3.664 7.84s-6.264 3.132-9.396 3.132h-117.473v28.19h117.473c3.664 0 6.796 1.044 9.396 3.132s3.664 4.176 3.664 6.796v33.94c0.532 3.132-0.532 5.752-3.664 7.84s-6.264 3.132-9.396 3.132h-87.192l119.039 123.739c1.576 3.664 1.576 7.308-1.044 10.44zM694.714 572.646c165.507-55.343 279.847-182.215 279.847-331.536 0-199.966-206.23-362.339-460.495-362.339-257.396 0.532-463.627 162.896-463.627 362.863 0 149.322 114.341 276.193 279.847 331.536l-115.907 197.355c0 18.792 16.704 27.676 39.679 27.676h516.88c22.456 0 39.679-7.84 39.679-27.676l-115.907-197.877z" />
<glyph unicode="&#xe90c;" glyph-name="4" d="M852.92 338.49c0-50.644 26.632-92.934 79.883-127.916-7.84-28.19-19.324-56.91-33.94-86.148-46.468 12.528-91.89-2.62-136.27-46.468-36.028-40.723-47.512-88.236-33.94-143.056-26.632-14.104-54.821-26.632-84.060-37.59-30.808 57.431-74.662 86.148-132.092 86.148s-101.288-28.72-132.092-86.148c-29.234 10.972-57.431 24.012-84.060 37.59 13.572 55.866 2.088 103.898-33.94 143.056-36.028 37.59-81.447 49.6-136.27 35.501-9.396 18.28-20.88 46.989-33.94 86.148 54.821 36.546 81.972 82.491 81.972 138.879 0 50.644-27.145 93.979-81.972 130.004 13.572 39.16 24.544 67.873 33.94 86.148 49.6-12.528 94.501 2.62 136.27 46.468 36.028 39.16 47.512 86.668 33.94 143.056 28.19 15.66 55.866 27.145 84.060 35.501 30.808-55.866 74.662-84.060 132.092-84.060s101.288 28.19 132.092 84.060c28.19-8.352 55.866-20.368 84.060-35.501-13.572-54.821-2.088-102.332 33.94-143.056 43.856-43.336 89.281-58.999 136.27-46.468 14.616-29.234 26.1-57.954 33.94-86.148-53.254-34.984-79.883-78.314-79.883-130.004zM512.504 147.4c50.644 0 93.979 18.792 128.96 55.866 35.501 37.072 53.254 82.491 53.254 135.747s-17.748 98.678-53.254 136.791c-35.501 37.59-78.314 56.91-128.96 56.91s-93.979-18.792-128.96-56.91c-35.501-37.59-53.254-83.535-53.254-136.791s17.748-98.155 53.254-135.747c34.984-37.59 78.314-55.866 128.96-55.866z" />
<glyph unicode="&#xe90d;" glyph-name="5" d="M829.934 347.885c-4.176 203.098-145.145 366.516-317.438 366.516s-312.74-163.419-317.438-366.516c-58.999-32.896-97.634-104.42-97.634-182.736 0-111.73 76.751-202.576 171.249-202.576h487.122c94.501 0 171.249 90.846 171.249 202.576 0.532 78.314-38.116 149.322-97.111 182.736zM756.318 20.523h-487.644c-67.353 0-122.695 64.74-122.695 144.623 0 61.087 32.896 115.907 81.447 136.27l16.192 6.796v29.764c0 175.948 120.607 318.483 268.363 318.483s268.363-142.535 268.363-317.961v-30.279l16.192-6.796c48.556-20.368 81.447-75.181 81.447-136.27 0.532-79.883-54.299-144.623-121.651-144.623zM595.511 513.913c-31.852 15.148-67.353 19.324-102.332 10.972-13.060-3.132-21.924-18.28-19.324-33.94s15.66-25.588 28.72-22.456c25.588 5.752 51.166 3.132 74.662-7.84 44.38-21.412 76.225-71.53 84.060-134.703 2.088-14.104 12.016-24.544 24.012-24.544 1.044 0 2.62 0 3.664 0.532 13.572 2.62 22.456 17.236 20.368 32.896-10.44 83.016-53.254 149.843-113.819 179.083z" />
<glyph unicode="&#xe90e;" glyph-name="6" d="M862.829 201.175l-258.44-252.698-107.032 147.755-39.16-34.984 139.924-192.656 298.121 291.334zM329.761 338.489c-14.104 0-25.056-12.528-25.056-27.676s11.484-27.676 25.056-27.676h301.253c14.104 0 25.056 12.528 25.056 27.676s-11.484 27.676-25.056 27.676h-301.253zM697.844 532.187c0 15.148-11.484 27.676-25.056 27.676h-334.669c-14.104 0-25.056-12.528-25.056-27.676s11.484-27.676 25.056-27.676h334.669c14.104 0 25.056 12.016 25.056 27.676zM178.873-48.39v773.757c0 15.148 11.484 27.676 25.588 27.676h601.985c14.104 0 25.588-12.528 25.588-27.676v-442.221h50.122v442.221c0 45.424-33.94 83.016-75.706 83.016h-601.985c-41.768 0-75.706-37.072-75.706-83.016v-773.757c0-45.945 33.94-83.016 75.706-83.016h225.548v55.343h-225.548c-14.104 0-25.588 12.016-25.588 27.676z" />
<glyph unicode="&#xe90f;" glyph-name="7" d="M517.464-54.663c0-35.178-25.945-63.696-57.954-63.696s-57.954 28.519-57.954 63.696c0 35.178 25.945 63.696 57.954 63.696s57.954-28.519 57.954-63.696zM749.282-54.663c0-35.178-25.945-63.696-57.954-63.696s-57.954 28.519-57.954 63.696c0 35.178 25.945 63.696 57.954 63.696s57.954-28.519 57.954-63.696zM954.99 538.447c-5.22 8.352-14.104 13.060-23.5 13.060h-626.524l-40.204 218.238c-2.62 15.148-14.616 25.588-28.19 25.588h-145.145c-16.192 0-28.72-14.104-28.72-31.852s13.060-31.852 28.72-31.852h121.127l111.208-600.941c2.62-15.148 14.616-25.588 28.19-25.588h463.627c12.528 0 23.5 8.884 27.676 21.924l115.907 382.702c3.132 9.928 1.576 20.368-4.176 28.72zM795.228 168.796h-419.248l-58.999 319.005h574.314l-96.067-319.005z" />
<glyph unicode="&#xe910;" glyph-name="8" d="M884.242 553.071h-26.632v152.454c0 51.166-36.028 92.413-79.883 92.413h-636.966c-43.856 0-79.883-41.248-79.883-92.413v-734.077c0-51.166 36.028-92.413 79.883-92.413h636.966c44.38 0 79.883 41.248 79.883 92.413v152.977h26.632c43.856 0 79.883 40.723 79.883 91.369v245.911c0 50.122-36.028 91.369-79.883 91.369zM804.881-28.55c0-17.236-12.016-30.808-27.145-30.808h-636.966c-14.616 0-27.145 14.104-27.145 30.808v734.077c0 17.236 12.016 30.808 27.145 30.808h636.966c14.616 0 27.145-14.104 27.145-30.808v-152.977h-185.869c-44.901 0-79.883-40.204-79.883-91.369v-246.432c0-50.122 36.028-91.369 79.883-91.369h185.869v-151.932zM619.013 185.512c-14.616 0-26.632 13.572-26.632 30.279v245.911c0 16.704 11.484 30.279 26.632 30.279h265.227c14.616 0 26.632-13.572 26.632-30.279v-246.432c0-16.704-11.484-30.279-26.632-30.279h-265.227z" />
<glyph unicode="&#xe911;" glyph-name="9" d="M865.179 482.85h-50.122c-10.972 29.764-25.056 57.431-42.292 83.535l25.056 50.122c20.88 41.248 8.352 94.501-28.19 118.519l-86.148 56.91c-34.984 23.5-83.535 8.352-103.898-31.323l-25.056-50.122c-27.676 4.176-56.387 4.176-84.060 0l-25.056 50.122c-20.368 40.204-68.917 54.821-103.376 31.323l-86.668-57.431c-36.546-24.012-49.078-77.27-28.19-118.519l25.056-50.122c-17.236-25.588-31.323-53.777-42.292-83.535h-50.122c-41.768 0-75.706-39.16-75.706-87.192v-114.341c0-48.033 33.94-87.192 75.706-87.192h50.122c10.972-29.764 25.056-57.954 42.292-83.535l-25.056-49.6c-20.88-41.248-8.352-94.501 28.19-118.519l86.668-56.91c34.984-23.5 83.535-8.352 103.376 31.323l25.056 49.6c27.676-4.176 56.387-4.176 84.060 0l25.056-49.6c13.572-26.632 38.635-43.336 65.264-43.336 13.572 0 26.632 4.176 38.116 12.016l86.668 56.91c36.546 24.012 49.078 77.27 28.19 118.519l-25.056 50.122c17.236 25.588 31.323 53.777 42.292 83.535h50.122c41.768 0 75.706 39.16 75.706 87.192v114.341c0 48.033-33.94 87.192-75.706 87.192zM890.762 281.318c0-16.704-10.972-29.234-25.056-29.234h-85.104l-5.752-19.324c-11.484-36.546-28.19-70.485-50.644-100.244l-11.484-15.66 42.812-84.58c7.308-14.104 2.62-31.323-9.396-39.679l-86.668-56.91c-12.016-7.84-28.19-3.132-34.984 10.44l-42.812 84.58-17.748-3.664c-32.896-6.796-68.397-7.308-101.288 0l-17.748 3.664-42.812-84.58c-6.796-13.572-22.968-18.28-34.984-10.44l-86.668 56.91c-12.528 8.352-16.704 25.588-9.396 39.679l42.812 84.58-11.484 15.66c-22.456 29.764-39.16 63.696-50.644 100.244l-5.752 19.324h-85.624c-14.104 0-25.056 13.060-25.056 29.234v114.341c0 16.192 11.484 29.234 25.056 29.234h85.104l5.752 19.324c11.484 36.546 28.19 70.485 50.644 100.244l11.484 15.66-42.812 84.58c-6.796 14.104-2.62 31.323 9.396 39.679l86.668 56.91c12.016 7.84 28.19 3.132 34.984-10.44l43.336-84.060 17.748 3.664c32.896 6.796 68.397 6.796 101.288 0l17.748-3.664 42.812 84.58c6.796 13.572 22.456 18.28 34.984 10.44l86.668-56.91c12.528-8.352 16.704-25.588 9.396-39.679l-42.812-84.58 11.484-15.66c22.456-29.764 39.16-63.696 50.644-100.244l5.752-19.324h85.104c14.104 0 25.056-13.060 25.056-29.234v-114.863zM579.065 338.751c0-41.811-29.69-75.706-66.309-75.706s-66.309 33.897-66.309 75.706c0 41.811 29.69 75.706 66.309 75.706s66.309-33.897 66.309-75.706z" />
<glyph unicode="&#xe912;" glyph-name="10" d="M721.348 636.875h-574.314c-43.336 0-78.314-40.204-78.314-89.281v-418.204c0-49.078 34.984-89.281 78.314-89.281h130.524v-149.322c0-12.016 6.264-22.456 15.66-27.145 3.664-1.576 6.796-2.62 10.44-2.62 6.264 0 12.528 2.62 17.236 7.84l166.551 171.249h233.902c43.336 0 78.314 40.204 78.314 89.281v418.204c0 49.078-34.984 89.281-78.314 89.281zM747.453 128.863c0-16.192-11.484-29.764-26.1-29.764h-243.822c-6.264 0-12.528-2.62-17.236-7.84l-130.524-134.182v112.253c0 16.704-11.484 29.764-26.1 29.764h-156.631c-14.104 0-26.1 13.060-26.1 29.764v418.728c0 16.192 11.484 29.764 26.1 29.764h574.314c14.104 0 26.1-13.572 26.1-29.764v-418.728zM399.21 278.708h-145.145c-14.616 0-26.1-13.572-26.1-29.764s11.484-29.764 26.1-29.764h145.145c14.616 0 26.1 13.572 26.1 29.764s-11.484 29.764-26.1 29.764zM438.368 446.825h-185.869c-14.616 0-26.1-13.572-26.1-29.764s11.484-29.764 26.1-29.764h185.869c14.616 0 26.1 13.572 26.1 29.764s-12.016 29.764-26.1 29.764zM589.779 433.25l-104.42-179.083c-7.84-13.572-4.708-32.368 7.308-41.248 4.176-3.132 9.396-5.22 14.616-5.22 8.352 0 16.704 4.708 21.924 13.060l104.42 179.083c7.84 13.572 4.708 32.368-7.308 41.248-12.016 9.928-28.19 6.264-36.546-7.84zM877.98 815.951h-574.314c-43.336 0-78.314-40.204-78.314-89.281v-39.16c0-16.704 11.484-29.764 26.1-29.764s26.1 13.572 26.1 29.764v39.16c0 16.192 11.484 29.764 26.1 29.764h574.314c14.104 0 26.1-13.572 26.1-29.764v-358.687c0-16.704-11.484-29.764-26.1-29.764h-26.632c-14.616 0-26.1-13.572-26.1-29.764s11.484-29.764 26.1-29.764h26.632c43.336 0 78.314 40.204 78.314 89.281v358.687c0 49.078-34.984 89.281-78.314 89.281z" />
<glyph unicode="&#xe913;" glyph-name="11" d="M512.5 797.936c-258.962 0-469.893-206.23-469.893-459.45s210.93-459.45 469.893-459.45 469.893 206.23 469.893 459.45-210.93 459.45-469.893 459.45zM707.25 188.12c33.94 41.768 54.821 93.457 54.821 150.366s-20.88 109.12-54.821 150.366l115.907 113.297c63.176-71.005 101.288-162.896 101.288-263.66s-38.635-193.178-101.288-264.182l-115.907 113.819zM320.892 338.487c0 103.376 86.148 187.436 191.612 187.436s191.612-84.060 191.612-187.436-86.148-187.436-191.612-187.436-191.612 84.060-191.612 187.436zM782.43 642.348l-115.907-113.297c-42.292 32.896-95.545 53.254-154.021 53.254s-111.208-20.368-154.021-53.254l-115.907 113.297c72.574 61.608 166.551 99.199 269.929 99.199s197.355-37.59 269.929-99.199zM201.852 602.151l115.907-113.297c-33.413-41.768-54.821-93.457-54.821-150.366s20.88-109.12 54.821-150.366l-115.907-113.297c-63.176 70.485-101.288 162.896-101.288 263.66s38.116 193.178 101.288 263.66zM242.577 34.623l115.907 113.297c42.292-32.896 95.545-53.254 154.021-53.254s111.208 20.368 154.021 53.254l115.907-113.297c-72.574-61.608-166.551-99.199-269.929-99.199s-197.355 37.59-269.929 99.199z" />
<glyph unicode="&#xe914;" glyph-name="12" d="M512.5 803.158c-263.66 0-477.725-208.318-477.725-464.671s214.062-464.671 477.725-464.671 477.725 208.318 477.725 464.671-214.062 464.671-477.725 464.671zM512.5-68.233c-230.248 0-418.204 182.215-418.204 406.718s187.436 406.718 418.204 406.718 418.204-182.215 418.204-406.718-187.957-406.718-418.204-406.718zM743.794 541.583h-289.245c-6.264 0-12.016-1.576-16.704-5.22l-57.954-38.635c-5.22-3.664-8.884-8.352-10.972-14.104l-115.907-309.607c-5.752-15.148 2.088-31.852 17.748-37.072 3.132-1.044 6.796-1.576 10.44-1.576 12.016 0 23.5 7.308 28.19 19.324l112.253 301.253 42.292 28.19h279.847c16.704 0 29.764 13.060 29.764 29.234s-13.060 28.19-29.764 28.19zM698.895 387.040h-193.701c-16.704 0-29.764-13.060-29.764-29.234s13.572-29.234 29.764-29.234h153.498l-28.72-90.325-50.122-44.901h-139.402c-16.704 0-29.764-13.060-29.764-29.234s13.572-29.234 29.764-29.234h150.887c7.308 0 14.616 2.62 20.368 7.84l64.74 57.954c3.664 3.664 6.796 7.84 8.352 12.528l43.336 135.747c2.62 8.884 1.044 18.28-4.708 25.588-6.264 7.84-15.148 12.528-24.544 12.528z" />
<glyph unicode="&#xe915;" glyph-name="62" d="M512.495 810.534c-258.709 0-469.434-211.767-469.434-472.042 0-129.877 52.159-247.234 136.657-332.777 0 0 0 0 0 0l0.531-0.531c85.021-85.54 202.378-138.743 332.255-138.743 258.709 0 469.434 211.767 469.434 472.042s-210.724 472.042-469.434 472.042zM48.281 338.492c0 257.666 208.115 466.826 464.217 466.826s464.217-209.158 464.217-466.826c0-122.052-46.943-233.674-123.618-316.607-75.108 109.535-198.728 174.733-331.212 174.733-138.223 0-264.446-69.373-339.036-186.209-82.935 84.497-134.571 200.292-134.571 328.082zM512.495-128.334c-126.748 0-242.019 51.638-325.995 135.094 73.546 115.794 198.728 185.166 335.385 185.166 131.44 0 253.494-64.677 327.561-173.69-84.497-90.237-204.465-146.568-336.949-146.568zM514.583 235.216c93.366 0 169.518 76.151 169.518 170.039s-76.151 170.039-169.518 170.039c-93.366 0.531-169.518-76.151-169.518-169.518s76.151-170.561 169.518-170.561zM514.583 570.599c90.237 0 164.302-74.065 164.302-164.823s-73.546-164.823-164.302-164.823-164.302 73.546-164.302 164.823c0 90.757 74.065 164.823 164.302 164.823z" />
<glyph unicode="&#xe916;" glyph-name="82" d="M876.573 818.616h-728.144c-34.95 0-63.634-31.821-63.634-71.46v-817.337c0-39.122 28.692-71.46 63.634-71.46h728.144c34.95 0 63.634 31.821 63.634 71.46v817.337c0 39.64-28.692 71.46-63.634 71.46zM934.991-69.659c0-36.51-26.075-66.244-58.418-66.244h-728.144c-32.336 0-58.418 29.735-58.418 66.244v816.816c0 36.51 26.075 66.244 58.418 66.244h728.144c32.336 0 58.418-29.735 58.418-66.244v-816.816zM598.565 62.828c0-37.446-38.53-67.807-86.064-67.807s-86.064 30.356-86.064 67.807c0 37.446 38.53 67.807 86.064 67.807s86.064-30.356 86.064-67.807zM680.454 655.881h-328.082c-1.574 0-2.617-1.043-2.617-2.617s1.043-2.617 2.617-2.617h328.082c1.574 0 2.617 1.043 2.617 2.617s-1.043 2.617-2.617 2.617z" />
<glyph unicode="&#xe917;" glyph-name="92" d="M971.497 61.519c0-23.989-28.692-43.813-63.634-43.813h-790.734c-34.95 0-63.634 19.817-63.634 43.813v152.305h-5.215v-152.305c0-27.118 30.778-49.030 68.85-49.030h790.213c38.079 0 68.85 21.903 68.85 49.030v152.305h-5.215v-152.305zM907.864 664.483h-790.734c-38.079 0-68.85-21.903-68.85-49.030v-157h5.215v157c0 23.989 28.692 43.813 63.634 43.813h790.213c34.95 0 63.634-19.817 63.634-43.813v-157h5.215v157c0.531 27.118-30.249 49.030-68.33 49.030zM338.805 338.485c0-31.69-27.559-57.375-61.548-57.375s-61.548 25.69-61.548 57.375c0 31.69 27.559 57.375 61.548 57.375s61.548-25.69 61.548-57.375zM574.043 338.485c0-31.69-27.559-57.375-61.548-57.375s-61.548 25.69-61.548 57.375c0 31.69 27.559 57.375 61.548 57.375s61.548-25.69 61.548-57.375zM809.283 338.485c0-31.69-27.559-57.375-61.548-57.375s-61.548 25.69-61.548 57.375c0 31.69 27.559 57.375 61.548 57.375s61.548-25.69 61.548-57.375z" />
<glyph unicode="&#xe918;" glyph-name="102" d="M983.511 475.676c-1.043 1.043-2.617 0.531-3.66-0.531-75.108-94.409-256.102-155.434-461.088-155.434-216.462 0-411.015 71.46-473.607 173.69-0.531 1.043-2.617 1.574-3.66 1.043s-1.574-2.617-1.043-3.66c64.677-105.361 256.623-176.297 478.301-176.297 145.003 0 278.009 30.249 370.853 81.892l55.811-72.503c0.531-0.531 1.043-1.043 2.086-1.043 0.531 0 1.043 0 1.574 0.531 1.043 1.043 1.574 2.617 0.531 3.66l-55.289 71.979c37.553 21.391 67.807 45.9 89.714 73.022 1.043 1.574 0.531 3.129-0.531 3.66zM512.51 312.414c-1.574 0-2.617-1.043-2.617-2.617v-125.182c0-1.574 1.043-2.617 2.617-2.617s2.617 1.043 2.617 2.617v125.182c0 1.574-1.043 2.617-2.617 2.617zM305.962 312.414c-1.574 0.531-2.617 0-3.129-1.574l-31.292-88.67c-0.531-1.574 0-2.617 1.574-3.129 0.531 0 0.531 0 1.043 0 1.043 0 2.086 0.531 2.617 1.574l31.292 88.67c0 1.043-1.043 2.617-2.086 3.129zM126.533 401.088l-57.375-74.065c-1.043-1.043-0.531-2.617 0.531-3.66 0.531-0.531 1.043-0.531 1.574-0.531s1.574 0.531 2.086 1.043l57.375 74.065c1.043 1.043 0.531 2.617-0.531 3.66-1.574 1.043-3.129 0.531-3.66-0.531zM719.064 310.852c-0.531 1.574-2.086 2.086-3.129 1.574-1.574-0.531-2.086-2.086-1.574-3.129l31.292-88.67c0.531-1.043 1.574-1.574 2.617-1.574 0.531 0 0.531 0 1.043 0 1.574 0.531 2.086 2.086 1.574 3.129l-31.821 88.67z" />
<glyph unicode="&#xe919;" glyph-name="123" d="M932.384 685.347h-839.765c-40.165 0-73.022-23.477-73.022-52.159v-589.401c0-28.692 32.864-52.159 73.022-52.159h839.765c40.165 0 73.022 23.477 73.022 52.159v589.401c0 28.692-32.864 52.159-73.022 52.159zM1000.19 43.79c0-26.075-30.249-46.943-67.807-46.943h-839.765c-37.553 0-67.807 20.86-67.807 46.943v589.401c0 26.075 30.249 46.943 67.807 46.943h839.765c37.553 0 67.807-20.86 67.807-46.943v-589.401zM235.535 477.233c-1.574 0-2.617-1.043-2.617-2.617v-272.273c0-1.574 1.043-2.617 2.617-2.617s2.617 1.043 2.617 2.617v272.273c0 1.574-1.043 2.617-2.617 2.617zM422.266 416.729c-1.574 0-2.617-1.043-2.617-2.617v-211.767c0-1.574 1.043-2.617 2.617-2.617s2.617 1.043 2.617 2.617v211.767c0 1.574-1.043 2.617-2.617 2.617zM608.996 477.233c-1.574 0-2.617-1.043-2.617-2.617v-272.273c0-1.574 1.043-2.617 2.617-2.617s2.617 1.043 2.617 2.617v272.273c0 1.574-1.043 2.617-2.617 2.617zM795.727 416.729c-1.574 0-2.617-1.043-2.617-2.617v-211.767c0-1.574 1.043-2.617 2.617-2.617s2.617 1.043 2.617 2.617v211.767c0 1.574-1.043 2.617-2.617 2.617z" />
<glyph unicode="&#xe91a;" glyph-name="132" d="M856.229 482.189h-190.382v213.853c0 77.719-68.85 140.83-153.348 140.83s-153.348-63.114-153.348-140.83v-213.853h-190.382c-33.38 0-60.505-21.903-60.505-48.509v-545.067c0-26.606 27.118-48.509 60.505-48.509h687.46c33.38 0 60.505 21.903 60.505 48.509v545.067c0 26.606-27.118 48.509-60.505 48.509zM364.366 696.039c0 74.589 66.244 135.614 148.133 135.614s148.133-61.027 148.133-135.614v-213.853h-296.265v213.853zM911.517-110.863c0-23.989-24.52-43.294-55.289-43.294h-687.46c-30.249 0-55.289 19.305-55.289 43.294v544.546c0 23.989 24.52 43.294 55.289 43.294h687.46c30.249 0 55.289-19.305 55.289-43.294v-544.546z" />
<glyph unicode="&#xe91b;" glyph-name="14" d="M914.645 740.114h-804.298c-38.597 0-69.893-27.118-69.893-59.984v-683.287c0-32.864 31.292-59.984 69.893-59.984h803.776c38.597 0 69.893 27.118 69.893 59.984v683.287c0.531 32.864-30.778 59.984-69.373 59.984zM979.322-3.158c0-30.249-29.205-54.767-64.677-54.767h-804.298c-35.993 0-64.677 24.52-64.677 54.767v683.287c0 30.249 29.205 54.767 64.677 54.767h803.776c35.993 0 64.677-24.52 64.677-54.767v-683.287zM956.897 623.797l-435.009-380.763-454.307 380.763c-1.043 1.043-2.617 0.531-3.66-0.531s-0.531-2.617 0.531-3.66l455.872-382.328c0.531-0.531 1.043-0.531 1.574-0.531s1.043 0 1.574 0.531l436.574 382.328c1.043 1.043 1.043 2.617 0 3.66-0.531 1.574-2.086 1.574-3.129 0.531z" />
<glyph unicode="&#xe91c;" glyph-name="15" d="M923.512 630.58h-822.032c-39.64 0-71.46-19.817-71.46-44.337v-495.513c0-24.52 32.336-44.337 71.46-44.337h821.509c39.64 0 71.46 19.817 71.46 44.337v495.513c0.531 24.52-31.821 44.337-70.936 44.337zM989.755 90.73c0-21.391-29.735-39.122-66.244-39.122h-822.032c-36.51 0-66.244 17.731-66.244 39.122v495.513c0 21.391 29.735 39.122 66.244 39.122h821.509c36.51 0 66.244-17.731 66.244-39.122v-495.513zM241.267 455.323c-1.574 0-2.617-1.043-2.617-2.617v-228.98c0-1.574 1.043-2.617 2.617-2.617s2.617 1.043 2.617 2.617v228.98c0 1.574-1.043 2.617-2.617 2.617zM424.347 404.728c-1.574 0-2.617-1.043-2.617-2.617v-177.865c0-1.574 1.043-2.617 2.617-2.617s2.617 1.043 2.617 2.617v177.865c0 1.574-1.043 2.617-2.617 2.617zM606.905 455.323c-1.574 0-2.617-1.043-2.617-2.617v-228.98c0-1.574 1.043-2.617 2.617-2.617s2.617 1.043 2.617 2.617v228.98c0 1.574-1.043 2.617-2.617 2.617zM789.984 404.728c-1.574 0-2.617-1.043-2.617-2.617v-177.865c0-1.574 1.043-2.617 2.617-2.617s2.617 1.043 2.617 2.617v177.865c0 1.574-1.043 2.617-2.617 2.617z" />
<glyph unicode="&#xe91d;" glyph-name="21" d="M447.826 417.249h-147.090c-19.305 0-34.95 15.645-34.95 34.95s15.645 34.95 34.95 34.95h147.090c19.305 0 34.95-15.645 34.95-34.95s-15.645-34.95-34.95-34.95zM713.839 417.249h-147.090c-19.305 0-34.95 15.645-34.95 34.95s15.645 34.95 34.95 34.95h147.090c19.305 0 34.95-15.645 34.95-34.95s-15.645-34.95-34.95-34.95zM447.826 207.568h-147.090c-19.305 0-34.95 15.645-34.95 34.95s15.645 34.95 34.95 34.95h147.090c19.305 0 34.95-15.645 34.95-34.95s-15.645-34.95-34.95-34.95zM713.839 207.568h-147.090c-19.305 0-34.95 15.645-34.95 34.95s15.645 34.95 34.95 34.95h147.090c19.305 0 34.95-15.645 34.95-34.95s-15.645-34.95-34.95-34.95zM512.5-128.339c-256.102 0-464.217 209.681-464.217 466.826s208.115 466.826 464.217 466.826 464.217-209.681 464.217-466.826-208.115-466.826-464.217-466.826zM512.5 746.893c-223.764 0-406.321-183.080-406.321-408.408s182.037-408.408 406.321-408.408 406.321 183.080 406.321 408.408-182.558 408.408-406.321 408.408z" />
<glyph unicode="&#xe91e;" glyph-name="222" d="M447.826 417.249h-147.090c-19.305 0-34.95 15.645-34.95 34.95s15.645 34.95 34.95 34.95h147.090c19.305 0 34.95-15.645 34.95-34.95s-15.645-34.95-34.95-34.95zM713.839 417.249h-147.090c-19.305 0-34.95 15.645-34.95 34.95s15.645 34.95 34.95 34.95h147.090c19.305 0 34.95-15.645 34.95-34.95s-15.645-34.95-34.95-34.95zM447.826 207.568h-147.090c-19.305 0-34.95 15.645-34.95 34.95s15.645 34.95 34.95 34.95h147.090c19.305 0 34.95-15.645 34.95-34.95s-15.645-34.95-34.95-34.95zM713.839 207.568h-147.090c-19.305 0-34.95 15.645-34.95 34.95s15.645 34.95 34.95 34.95h147.090c19.305 0 34.95-15.645 34.95-34.95s-15.645-34.95-34.95-34.95zM512.5-128.339c-256.102 0-464.217 209.681-464.217 466.826s208.115 466.826 464.217 466.826 464.217-209.681 464.217-466.826-208.115-466.826-464.217-466.826zM512.5 746.893c-223.764 0-406.321-183.080-406.321-408.408s182.037-408.408 406.321-408.408 406.321 183.080 406.321 408.408-182.558 408.408-406.321 408.408z" />
<glyph unicode="&#xe91f;" glyph-name="232" d="M470.252 208.088h-157.521c-18.774 0-33.907 15.645-33.907 34.95s15.133 34.95 33.907 34.95h158.043c18.774 0 33.907-15.645 33.907-34.95s-15.645-34.95-34.423-34.95zM512.5 417.248h-201.857c-18.774 0-33.907 15.645-33.907 34.95s15.133 34.95 33.907 34.95h201.857c18.774 0 33.907-15.645 33.907-34.95s-15.133-34.95-33.907-34.95zM554.229 165.84c-6.258 0-13.047 2.086-18.774 5.746-15.645 10.43-19.817 32.336-9.387 48.509l179.429 275.402c10.43 16.176 31.292 20.348 46.943 9.387 15.645-10.43 19.817-32.336 9.387-48.509l-179.429-275.402c-6.258-9.387-17.219-15.133-28.162-15.133zM512.5-125.731c-250.364 0-453.786 208.115-453.786 464.217s203.421 464.217 453.786 464.217 453.786-208.115 453.786-464.217-203.421-464.217-453.786-464.217zM512.5 744.811c-219.069 0-396.932-182.037-396.932-406.321s177.865-406.321 396.932-406.321 396.932 182.037 396.932 406.321-177.865 406.321-396.932 406.321z" />
<glyph unicode="&#xe920;" glyph-name="24" d="M512.5-120.514c-244.627 0-443.354 206.029-443.354 459.001s198.728 459.001 443.354 459.001 443.354-206.029 443.354-459.001-198.728-459.001-443.354-459.001zM512.5 740.112c-213.853 0-388.065-179.951-388.065-401.627s174.211-401.627 388.065-401.627 388.065 179.951 388.065 401.627-174.211 401.627-388.065 401.627zM484.338 263.378c0 0 0 15.133 0 17.219 0 28.692 9.387 52.159 39.64 75.632 33.38 25.032 41.208 42.251 41.208 61.548 0 22.434-18.774 44.857-46.943 44.857-34.423 0-54.767-18.262-64.677-61.548l-50.595 12.004c16.176 68.85 50.595 95.973 123.096 95.973 59.984 0 95.452-41.208 95.452-85.021 0-34.423-12.004-58.418-55.811-89.194-29.205-20.348-35.993-35.993-35.993-57.375 0-3.129-0.531-13.559-0.531-13.559h-44.857zM479.121 168.97v58.941h56.332v-58.941h-56.332z" />
<glyph unicode="&#xe921;" glyph-name="a02" d="M940.987 63.606c0-6.789-14.090-17.731-35.466-17.731h-786.562c-21.391 0-35.466 10.43-35.466 17.731v151.262h-61.548v-151.262c0-41.727 42.77-74.589 97.016-74.589h787.084c54.246 0 97.016 32.864 97.016 74.589v151.262h-61.548v-151.262zM905.518 687.956h-786.562c-54.246 0-97.016-32.864-97.016-74.589v-155.957h61.548v155.957c0 6.789 14.090 17.731 35.466 17.731h787.084c21.391 0 35.466-10.43 35.466-17.731v-155.957h61.027v155.957c0 41.727-42.77 74.589-97.016 74.589zM339.588 338.486c0-31.398-27.559-56.854-61.548-56.854s-61.548 25.457-61.548 56.854c0 31.398 27.559 56.854 61.548 56.854s61.548-25.457 61.548-56.854zM573.785 338.486c0-31.398-27.559-56.854-61.548-56.854s-61.548 25.457-61.548 56.854c0 31.398 27.559 56.854 61.548 56.854s61.548-25.457 61.548-56.854zM807.98 338.486c0-31.398-27.559-56.854-61.548-56.854s-61.548 25.457-61.548 56.854c0 31.398 27.559 56.854 61.548 56.854s61.548-25.457 61.548-56.854z" />
<glyph unicode="&#xe922;" glyph-name="a22" d="M512.5 800.097c-257.666 0-466.826-207.072-466.826-461.61s209.158-461.61 466.826-461.61 466.826 207.072 466.826 461.61-209.158 461.61-466.826 461.61zM512.5 738.547c223.242 0 404.756-179.429 404.756-400.063 0-94.93-33.907-182.558-90.237-251.408-55.811 68.33-131.44 116.315-215.939 137.18 52.681 32.864 88.15 90.237 88.15 155.957 0 101.711-83.978 184.644-186.73 184.644s-186.73-82.41-186.73-184.123c0-66.244 35.466-123.618 88.15-156.478-85.021-20.86-160.651-68.33-216.462-136.657-55.811 68.85-89.714 155.957-89.714 250.887 0 220.634 181.515 400.063 404.756 400.063zM512.5 257.64c-68.85 0-124.662 55.289-124.662 123.096s55.811 123.096 124.662 123.096 124.662-55.289 124.662-123.096-55.811-123.096-124.662-123.096zM241.275 42.745c64.677 83.453 163.259 132.483 271.23 132.483 106.927 0 206.552-49.552 271.23-133.008-71.979-64.157-166.91-103.797-271.23-103.797s-199.248 39.64-271.23 104.318z" />
<glyph unicode="&#xe923;" glyph-name="a32" d="M966.287 77.168c0-22.946-28.162-41.208-63.114-41.208h-781.347c-34.95 0-63.114 18.262-63.114 41.208v143.959h-5.215v-143.959c0-25.563 30.778-46.423 68.33-46.423h781.347c37.553 0 68.33 20.86 68.33 46.423v143.959h-5.215v-143.959zM903.174 646.229h-781.347c-37.553 0-68.33-20.86-68.33-46.423v-148.133h5.215v148.133c0 22.946 28.162 41.208 63.114 41.208h781.347c34.95 0 63.114-18.774 63.114-41.208v-148.133h5.215v148.133c0 25.563-30.778 46.423-68.33 46.423zM340.897 338.487c0-29.959-27.321-54.246-61.027-54.246s-61.027 24.287-61.027 54.246c0 29.959 27.321 54.246 61.027 54.246s61.027-24.287 61.027-54.246zM573.529 338.487c0-29.959-27.321-54.246-61.027-54.246s-61.027 24.287-61.027 54.246c0 29.959 27.321 54.246 61.027 54.246s61.027-24.287 61.027-54.246zM806.158 338.487c0-29.959-27.321-54.246-61.027-54.246s-61.027 24.287-61.027 54.246c0 29.959 27.321 54.246 61.027 54.246s61.027-24.287 61.027-54.246z" />
<glyph unicode="&#xe924;" glyph-name="a42" d="M921.686 460.009c8.875 14.602 7.301 35.466-4.172 46.943-10.961 11.473-27.118 9.387-35.993-5.215-56.854-92.843-202.9-154.914-363.552-154.914-171.604 0-324.432 70.416-372.418 171.604-7.301 15.645-23.477 20.86-35.466 10.961s-15.645-30.249-8.344-45.9c14.090-29.735 34.95-56.854 60.505-80.848l-35.466-59.462c-8.875-14.602-6.789-35.466 4.703-46.943 4.703-4.703 10.43-7.301 15.645-7.301 7.832 0 15.133 4.172 20.348 13.047l39.122 65.72c31.821-21.903 68.85-40.165 109.013-54.246l-25.032-92.323c-4.703-17.219 2.086-36.51 15.645-42.77 2.617-1.574 5.746-2.086 8.344-2.086 10.43 0 20.348 8.344 23.989 22.434l25.563 94.93c0.531 1.574 0 3.129 0.531 4.703 38.597-9.387 79.281-15.133 121.532-17.219v-110.056c0-18.262 11.473-33.38 25.563-33.38s25.563 15.133 25.563 33.38v109.535c41.208 1.043 81.367 6.258 119.446 14.602 0-0.531 0-1.043 0-1.043l25.563-94.93c3.66-13.559 13.559-22.434 23.989-22.434 2.617 0 5.746 0.531 8.344 2.086 13.559 6.258 20.348 25.032 15.645 42.77l-23.477 87.107c40.683 13.047 77.195 30.249 110.056 51.116l34.95-58.418c5.215-8.344 12.516-13.047 20.348-13.047 5.746 0 10.961 2.086 15.645 7.301 10.961 11.473 13.047 32.336 4.703 46.943l-30.249 50.595c24.52 19.817 44.857 42.251 59.462 66.764z" />
<glyph unicode="&#xe925;" glyph-name="a62" d="M825.718 510.874h-143.439v155.434c0 88.15-76.151 159.608-170.039 159.608s-170.039-71.46-170.039-159.608v-155.434h-143.439c-46.943 0-85.54-32.864-85.54-73.546v-512.725c0-40.683 38.079-73.546 85.54-73.546h627.477c46.943 0 85.54 32.864 85.54 73.546v512.725c-0.531 40.683-38.597 73.546-86.064 73.546zM407.399 666.304c0 54.246 46.943 98.059 104.84 98.059s104.84-43.813 104.84-98.059v-155.434h-209.681v155.434zM845.538-75.92c0-5.746-8.344-12.516-19.817-12.516h-626.955c-12.004 0-19.817 6.789-19.817 12.516v513.246c0 5.746 8.344 12.516 19.817 12.516h627.477c11.473 0 19.817-6.789 19.817-12.516v-513.246z" />
<glyph unicode="&#xe926;" glyph-name="a82" d="M903.435 673.61h-782.39c-54.246 0-96.495-31.292-96.495-71.46v-527.327c0-40.165 42.251-71.46 96.495-71.46h782.912c53.724 0 96.495 31.292 96.495 71.46v527.327c-0.531 40.165-42.77 71.46-97.016 71.46zM121.046 619.37h782.912c21.391 0 34.95-10.43 34.95-17.219v-18.262c-3.66-1.043-7.301-2.617-10.961-4.703l-406.843-282.182-425.099 282.182c-3.129 2.086-6.789 3.66-10.43 4.172v18.774c0 6.789 14.090 17.219 35.466 17.219zM903.435 58.132h-782.39c-21.391 0-34.95 10.43-34.95 17.219v442.833l417.796-277.488c5.215-3.66 12.004-5.215 18.262-5.215 6.789 0 13.047 2.086 18.774 5.746l398.497 276.445v-442.311c-0.531-7.301-14.602-17.219-35.993-17.219z" />
<glyph unicode="&#xe927;" glyph-name="a0" d="M940.57 63.875c0-6.782-14.076-17.714-35.431-17.714h-785.794c-21.37 0-35.431 10.42-35.431 17.714v151.114h-61.488v-151.114c0-41.686 42.728-74.516 96.921-74.516h786.315c54.193 0 96.921 32.832 96.921 74.516v151.114h-61.488v-151.114zM905.134 687.614h-785.794c-54.193 0-96.921-32.832-96.921-74.516v-155.805h61.488v155.805c0 6.782 14.076 17.714 35.431 17.714h786.315c21.37 0 35.431-10.42 35.431-17.714v-155.805h60.967v155.805c0 41.686-42.728 74.516-96.921 74.516zM339.756 338.486c0-31.367-27.532-56.798-61.488-56.798s-61.488 25.432-61.488 56.798c0 31.367 27.532 56.798 61.488 56.798s61.488-25.432 61.488-56.798zM573.725 338.486c0-31.367-27.532-56.798-61.488-56.798s-61.488 25.432-61.488 56.798c0 31.367 27.532 56.798 61.488 56.798s61.488-25.432 61.488-56.798zM807.692 338.486c0-31.367-27.532-56.798-61.488-56.798s-61.488 25.432-61.488 56.798c0 31.367 27.532 56.798 61.488 56.798s61.488-25.432 61.488-56.798z" />
<glyph unicode="&#xe928;" glyph-name="a1" d="M900.709 611.797h-776.415c-54.714 0-97.444-26.050-97.444-59.404v-427.811c0-33.347 42.728-59.404 97.444-59.404h776.415c54.714 0 97.444 26.050 97.444 59.404v427.811c0 33.347-42.728 59.404-97.444 59.404zM933.538 124.062c0-4.168-12.504-12.504-32.832-12.504h-776.415c-20.328 0-32.832 7.824-32.832 12.504v428.33c0 4.168 12.504 12.504 32.832 12.504h776.415c20.328 0 32.832-7.824 32.832-12.504v-428.33zM256.647 460.683c-17.714 0-32.304-10.42-32.304-23.454v-197.491c0-13.034 14.588-23.454 32.304-23.454s32.304 10.42 32.304 23.454v197.491c0 13.034-14.588 23.454-32.304 23.454zM429.127 416.912c-17.714 0-32.304-10.42-32.304-23.454v-153.721c0-13.034 14.588-23.454 32.304-23.454s32.304 10.42 32.304 23.454v153.198c0 13.034-14.588 23.966-32.304 23.966zM601.607 460.683c-17.714 0-32.304-10.42-32.304-23.454v-197.491c0-13.034 14.588-23.454 32.304-23.454s32.304 10.42 32.304 23.454v197.491c0.53 13.034-14.076 23.454-32.304 23.454zM774.606 416.912c-17.714 0-32.304-10.42-32.304-23.454v-153.721c0-13.034 14.588-23.454 32.304-23.454s32.304 10.42 32.304 23.454v153.198c0 13.034-14.588 23.966-32.304 23.966z" />
<glyph unicode="&#xe929;" glyph-name="a2" d="M512.5 799.646c-257.414 0-466.37-206.87-466.37-461.159s208.954-461.159 466.37-461.159 466.37 206.87 466.37 461.159-208.954 461.159-466.37 461.159zM512.5 738.157c223.024 0 404.361-179.254 404.361-399.672 0-94.837-33.874-182.38-90.149-251.162-55.756 68.263-131.312 116.201-215.728 137.046 52.63 32.832 88.064 90.149 88.064 155.805 0 101.612-83.896 184.464-186.548 184.464s-186.548-82.33-186.548-183.943c0-66.179 35.431-123.497 88.064-156.325-84.938-20.84-160.494-68.263-216.251-136.524-55.756 68.783-89.626 155.805-89.626 250.642 0 220.419 181.338 399.672 404.361 399.672zM512.5 257.719c-68.783 0-124.54 55.235-124.54 122.976s55.756 122.976 124.54 122.976 124.54-55.235 124.54-122.976-55.756-122.976-124.54-122.976zM241.54 43.033c64.614 83.372 163.1 132.354 270.965 132.354 106.823 0 206.35-49.504 270.965-132.878-71.909-64.094-166.747-103.696-270.965-103.696s-199.053 39.601-270.965 104.216z" />
<glyph unicode="&#xe92a;" glyph-name="a3" d="M965.843 77.424c0-22.924-28.134-41.168-63.052-41.168h-780.584c-34.916 0-63.052 18.244-63.052 41.168v143.818h-5.21v-143.818c0-25.538 30.748-46.378 68.263-46.378h780.584c37.516 0 68.263 20.84 68.263 46.378v143.818h-5.21v-143.818zM902.794 645.929h-780.584c-37.516 0-68.263-20.84-68.263-46.378v-147.988h5.21v147.988c0 22.924 28.134 41.168 63.052 41.168h780.584c34.916 0 63.052-18.756 63.052-41.168v-147.988h5.21v147.988c0 25.538-30.748 46.378-68.263 46.378zM341.065 338.488c0-29.93-27.294-54.193-60.967-54.193s-60.967 24.263-60.967 54.193c0 29.93 27.294 54.193 60.967 54.193s60.967-24.263 60.967-54.193zM573.469 338.488c0-29.93-27.294-54.193-60.967-54.193s-60.967 24.263-60.967 54.193c0 29.93 27.294 54.193 60.967 54.193s60.967-24.263 60.967-54.193zM805.872 338.488c0-29.93-27.294-54.193-60.967-54.193s-60.967 24.263-60.967 54.193c0 29.93 27.294 54.193 60.967 54.193s60.967-24.263 60.967-54.193z" />
<glyph unicode="&#xe92b;" glyph-name="a4" d="M921.287 459.89c8.866 14.588 7.294 35.431-4.168 46.897-10.95 11.462-27.092 9.378-35.958-5.21-56.798-92.752-202.702-154.763-363.197-154.763-171.436 0-324.115 70.347-372.054 171.436-7.294 15.63-23.454 20.84-35.431 10.95s-15.63-30.219-8.336-45.855c14.076-29.706 34.916-56.798 60.446-80.769l-35.431-59.404c-8.866-14.588-6.782-35.431 4.698-46.897 4.698-4.698 10.42-7.294 15.63-7.294 7.824 0 15.118 4.168 20.328 13.034l39.084 65.656c31.79-21.882 68.783-40.126 108.907-54.193l-25.008-92.233c-4.698-17.202 2.084-36.474 15.63-42.728 2.614-1.572 5.74-2.084 8.336-2.084 10.42 0 20.328 8.336 23.966 22.412l25.538 94.837c0.53 1.572 0 3.126 0.53 4.698 38.559-9.378 79.204-15.118 121.413-17.202v-109.949c0-18.244 11.462-33.347 25.538-33.347s25.538 15.118 25.538 33.347v109.428c41.168 1.042 81.288 6.252 119.329 14.588 0-0.53 0-1.042 0-1.042l25.538-94.837c3.656-13.546 13.546-22.412 23.966-22.412 2.614 0 5.74 0.53 8.336 2.084 13.546 6.252 20.328 25.008 15.63 42.728l-23.454 87.022c40.643 13.034 77.12 30.219 109.949 51.066l34.916-58.361c5.21-8.336 12.504-13.034 20.328-13.034 5.74 0 10.95 2.084 15.63 7.294 10.95 11.462 13.034 32.304 4.698 46.897l-30.219 50.546c24.496 19.798 44.813 42.21 59.404 66.699z" />
<glyph unicode="&#xe92c;" glyph-name="a6" d="M825.412 510.706h-143.299v155.282c0 88.064-76.077 159.452-169.873 159.452s-169.873-71.39-169.873-159.452v-155.282h-143.299c-46.897 0-85.456-32.832-85.456-73.474v-512.224c0-40.643 38.042-73.474 85.456-73.474h626.864c46.897 0 85.456 32.832 85.456 73.474v512.224c-0.53 40.643-38.559 73.474-85.98 73.474zM407.504 665.985c0 54.193 46.897 97.963 104.738 97.963s104.738-43.77 104.738-97.963v-155.282h-209.476v155.282zM845.214-75.515c0-5.74-8.336-12.504-19.798-12.504h-626.343c-11.992 0-19.798 6.782-19.798 12.504v512.745c0 5.74 8.336 12.504 19.798 12.504h626.864c11.462 0 19.798-6.782 19.798-12.504v-512.745z" />
<glyph unicode="&#xe92d;" glyph-name="a7" d="M903.053 673.283h-781.626c-54.193 0-96.401-31.261-96.401-71.39v-526.812c0-40.126 42.21-71.39 96.401-71.39h782.147c53.672 0 96.401 31.261 96.401 71.39v526.812c-0.53 40.126-42.728 71.39-96.921 71.39zM121.427 619.095h782.147c21.37 0 34.916-10.42 34.916-17.202v-18.244c-3.656-1.042-7.294-2.614-10.95-4.698l-406.446-281.906-424.684 281.906c-3.126 2.084-6.782 3.656-10.42 4.168v18.756c0 6.782 14.076 17.202 35.431 17.202zM903.053 58.405h-781.626c-21.37 0-34.916 10.42-34.916 17.202v442.401l417.388-277.217c5.21-3.656 11.992-5.21 18.244-5.21 6.782 0 13.034 2.084 18.756 5.74l398.108 276.175v-441.879c-0.53-7.294-14.588-17.202-35.958-17.202z" />
<glyph unicode="&#xe92e;" glyph-name="a8" d="M903.053 673.283h-781.626c-54.193 0-96.401-31.261-96.401-71.39v-526.812c0-40.126 42.21-71.39 96.401-71.39h782.147c53.672 0 96.401 31.261 96.401 71.39v526.812c-0.53 40.126-42.728 71.39-96.921 71.39zM121.427 619.095h782.147c21.37 0 34.916-10.42 34.916-17.202v-18.244c-3.656-1.042-7.294-2.614-10.95-4.698l-406.446-281.906-424.684 281.906c-3.126 2.084-6.782 3.656-10.42 4.168v18.756c0 6.782 14.076 17.202 35.431 17.202zM903.053 58.405h-781.626c-21.37 0-34.916 10.42-34.916 17.202v442.401l417.388-277.217c5.21-3.656 11.992-5.21 18.244-5.21 6.782 0 13.034 2.084 18.756 5.74l398.108 276.175v-441.879c-0.53-7.294-14.588-17.202-35.958-17.202z" />
<glyph unicode="&#xe92f;" glyph-name="b1" d="M14.866 88.367v-125.060h995.27v125.060h-995.27zM14.866 401.017v-125.060h995.27v125.060h-995.27zM14.866 713.667v-125.060h995.27v125.060h-995.27z" />
<glyph unicode="&#xe930;" glyph-name="b2" d="M893.934 820.489h-762.867c-52.63 0-95.359-43.252-95.359-96.401v-867.604l190.717 192.801h667.509c52.63 0 95.359 43.252 95.359 96.401v578.404c0 53.15-42.728 96.401-95.359 96.401zM703.22 408.831h-152.679v-154.24h-76.077v154.24h-152.679v77.12h152.679v154.24h76.077v-154.24h152.679v-77.12z" />
<glyph unicode="&#xe931;" glyph-name="b3" d="M893.934 820.489h-762.867c-52.63 0-95.359-43.252-95.359-96.401v-867.604l190.717 192.801h667.509c52.63 0 95.359 43.252 95.359 96.401v578.404c0 53.15-42.728 96.401-95.359 96.401zM703.22 408.831h-152.679v-154.24h-76.077v154.24h-152.679v77.12h152.679v154.24h76.077v-154.24h152.679v-77.12z" />
<glyph unicode="&#xe932;" glyph-name="b4" d="M323.347 425.508l-172.999 178.733-112.033-112.554v323.593h321.509l-109.949-112.554 176.125-177.169-102.654-100.048zM323.347 249.902l102.654-101.612-176.125-175.604 109.949-110.991h-321.509v323.593l112.033-112.554 172.999 177.169zM698.53 425.508l-99.528 100.048 176.125 177.169-109.949 112.554h321.509v-323.593l-112.033 110.991-176.125-177.169zM874.654 72.735l112.033 112.554v-323.593h-321.509l110.47 110.991-176.647 175.604 99.528 101.612 176.125-177.169z" />
<glyph unicode="&#xe933;" glyph-name="b5" d="M323.347 425.508l-172.999 178.733-112.033-112.554v323.593h321.509l-109.949-112.554 176.125-177.169-102.654-100.048zM323.347 249.902l102.654-101.612-176.125-175.604 109.949-110.991h-321.509v323.593l112.033-112.554 172.999 177.169zM698.53 425.508l-99.528 100.048 176.125 177.169-109.949 112.554h321.509v-323.593l-112.033 110.991-176.125-177.169zM874.654 72.735l112.033 112.554v-323.593h-321.509l110.47 110.991-176.647 175.604 99.528 101.612 176.125-177.169z" />
<glyph unicode="&#xe934;" glyph-name="b6" d="M512.5 815.278c-260.54 0-471.581-213.125-471.581-476.792s211.038-476.792 471.581-476.792 471.581 213.125 471.581 476.792-211.038 476.792-471.581 476.792zM512.5-42.947c-208.434 0-377.264 170.915-377.264 381.433s168.831 381.433 377.264 381.433 377.264-170.915 377.264-381.433-168.831-381.433-377.264-381.433zM535.954 576.623h-70.867v-286.075l247.515-150.072 35.431 58.883-212.081 127.144v250.12z" />
<glyph unicode="&#xe935;" glyph-name="b7" d="M512.5 807.463c-258.978 0-468.976-209.996-468.976-468.976s209.996-468.976 468.976-468.976 468.976 209.996 468.976 468.976-209.996 468.976-468.976 468.976zM512.5-36.692c-206.87 0-375.18 168.31-375.18 375.18s168.31 375.18 375.18 375.18 375.18-168.31 375.18-375.18-168.31-375.18-375.18-375.18z" />
<glyph unicode="&#xe936;" glyph-name="b8" d="M512.5 820.489c-269.402 0-487.213-215.728-487.213-482.002s217.812-482.002 487.213-482.002 487.213 215.728 487.213 482.002c0 266.276-217.812 482.002-487.213 482.002zM512.5-47.116c-214.686 0-389.771 172.999-389.771 385.602s175.083 385.602 389.771 385.602 389.771-172.999 389.771-385.602c0-212.602-175.083-385.602-389.771-385.602zM415.061 121.715l292.328 216.77-292.328 216.77z" />
<glyph unicode="&#xe937;" glyph-name="b9" d="M893.929 565.942h-295.976v183.943c0 42.21-38.042 76.077-84.938 76.077h-118.807c-46.897 0-84.938-34.389-84.938-76.077v-183.943h-36.474c-38.042 0-69.825-22.412-80.246-53.672h-81.288c-35.958 0-65.136-31.261-65.136-69.825v-483.565c0-38.559 29.176-69.825 65.136-69.825h88.064c14.588-22.412 41.686-38.042 72.951-38.042h510.14c45.336 0 82.854 32.304 84.938 72.951l110.991 559.123 0.53 5.74c0 42.728-38.042 77.12-84.938 77.12zM101.882-40.599v483.565c0 6.252 4.168 11.462 9.378 11.462h76.077v-506.493h-76.077c-5.21 0-9.378 5.21-9.378 11.462zM903.831 395.026c-1.572 0.53-3.126 1.042-5.21 1.042h-181.338c-15.63 0-28.134-13.034-28.134-29.176s12.504-29.176 28.134-29.176h175.604l-19.798-100.57c-1.042 0-1.572 0.53-2.614 0.53h-181.338c-15.63 0-28.134-13.034-28.134-29.176s12.504-29.176 28.134-29.176h172.478l-19.798-100.048h-180.817c-15.63 0-28.134-13.034-28.134-29.176s12.504-29.176 28.134-29.176h169.352l-17.202-87.54-0.53-5.74c0-8.336-12.504-18.244-29.176-18.244h-511.182c-16.672 0-29.176 9.378-29.176 18.244v562.25c0 8.336 12.504 18.244 29.176 18.244h92.752v241.783c0 8.336 12.504 18.244 29.176 18.244h119.329c16.672 0 29.176-9.378 29.176-18.244v-241.783h351.729c15.118 0 27.092-8.336 28.664-16.16l-19.286-96.921z" />
<glyph unicode="&#xe938;" glyph-name="s1" d="M894.087-153.457h-309.222v208.23h-144.72v-208.23h-309.222v550.77h57.263v-489.861h194.695v208.23h259.245v-208.23h194.695v489.861h57.263zM946.144 297.881l-433.639 447.694-433.639-447.694-40.087 43.21 473.723 489.34 473.723-489.34z" />
<glyph unicode="&#xe939;" glyph-name="s2" d="M874.3-36.849h-723.6c-64.551 0-117.129 55.702-117.129 123.897v621.567c0 68.716 52.579 124.418 117.129 124.418h723.6c64.551 0 117.129-55.702 117.129-124.418v-621.567c0-68.196-52.579-123.897-117.129-123.897zM150.702 775.77c-34.882 0-62.99-29.677-62.99-66.634v-621.567c0-36.964 28.107-66.634 62.99-66.634h723.6c34.882 0 62.99 29.677 62.99 66.634v621.046c0 36.964-28.107 66.634-62.99 66.634h-723.6zM507.814 833.033h54.14v-989.093h-54.14v989.093z" />
<glyph unicode="&#xe93a;" glyph-name="s3" d="M496.363 373.884h-444.571c13.021-19.267 28.636-39.046 48.415-61.428l368.047-406.569c8.328-8.857 17.697-14.574 28.107-17.697v485.696zM415.676 210.943l-68.716 73.402 104.114 38.005-35.396-111.403zM528.642 408.243h464.352c15.103 31.759 21.861 64.031 21.861 102.554 0 153.571-112.444 277.987-251.438 277.987-69.237 0-132.225-31.23-177.517-81.209l-57.263-62.99v-236.341zM611.411 568.060l68.716-73.402-104.114-38.005 35.396 111.403zM528.642 373.884v-485.696c10.41 3.123 20.308 8.857 28.107 17.697l366.484 405.528c20.308 22.39 36.438 42.686 49.456 62.469h-444.051zM611.411 210.943l-35.396 111.924 104.114-38.005-68.716-73.921zM496.363 408.243v236.341l-57.263 62.99c-45.81 49.975-108.28 81.209-177.517 81.209-138.994 0-251.438-124.418-251.438-277.987 0-39.046 6.775-70.798 21.349-102.554h464.874zM415.676 568.060l35.396-111.924-104.114 38.005 68.716 73.921z" />
<glyph unicode="&#xe93b;" glyph-name="s4" d="M936.254-148.772c-4.693 0-9.369 0.529-14.062 2.082-156.172 39.046-216.040 31.23-269.139 24.472-42.169-5.734-81.732-10.41-155.13 8.857-49.975 13.533-96.826 36.964-138.994 70.278-11.98 9.369-13.533 26.025-4.164 38.005s26.554 13.533 38.005 4.164c36.438-28.636 76.526-48.934 119.212-60.387 63.51-16.656 94.744-13.021 134.309-7.816 54.14 7.287 121.814 16.144 286.837-24.984-39.562 153.571-24.984 213.958-11.98 267.577 9.369 38.521 17.185 72.361 2.082 143.678-11.98 55.181-40.087 106.719-81.732 149.925-10.41 10.939-9.898 27.595 0.529 38.005 10.939 10.41 28.107 9.898 38.521-0.529 48.415-50.497 81.732-111.403 95.785-175.953 18.226-83.291 7.816-125.979-2.082-167.625-11.98-50.497-24.472-102.554 13.021-247.273 3.652-14.574 0.529-29.677-8.857-41.645-10.41-13.021-26.025-20.82-42.169-20.82zM80.427 33.429c-10.41 0-20.82 3.652-29.677 9.898-13.021 9.898-20.308 25.513-20.308 41.645 0 2.611 0.529 5.205 1.041 7.287 0.529 1.041 32.272 114.527 32.272 191.051 0 24.472-2.611 45.81-5.734 68.196-6.246 47.374-12.492 95.785 7.816 171.269 34.355 128.061 129.623 226.97 254.561 265.493 122.335 37.479 253.52 9.369 350.345-74.962 160.337-139.514 157.735-340.976 83.291-478.408-85.373-158.254-250.917-230.615-422.185-184.284-91.62 24.472-168.666 4.164-224.888-10.939l-14.574-3.652c-3.652-2.082-7.816-2.611-11.98-2.611zM428.171 749.741c-30.718 0-61.428-4.693-92.143-13.533-107.239-32.8-188.969-117.65-218.122-227.492-17.185-65.072-11.98-106.719-6.246-150.446 3.123-23.431 6.246-47.374 6.246-74.962 0-69.757-22.902-162.419-31.23-194.175l6.775 1.57c58.825 15.615 147.323 39.562 252.999 10.939 176.996-47.892 304.537 55.181 360.237 157.735 64.031 118.691 66.634 292.563-71.32 412.295v0c-58.825 51.538-132.225 78.086-207.189 78.086z" />
<glyph unicode="&#xe93c;" glyph-name="s5" d="M512.5-150.853c-268.618 0-486.737 219.682-486.737 489.34s218.122 489.34 486.737 489.34 486.737-219.682 486.737-489.34c0-269.659-218.122-489.34-486.737-489.34zM512.5 772.126c-237.903 0-431.557-194.695-431.557-433.639s193.654-433.639 431.557-433.639 431.557 194.695 431.557 433.639-193.654 433.639-431.557 433.639zM201.721-5.093l-46.851 29.677c77.567 124.938 211.353 199.901 357.637 199.901 140.035 0 270.7-69.757 349.304-186.887l-45.81-31.23c-68.196 101.513-181.681 162.419-303.496 162.419-127.020 0-243.108-65.072-310.783-173.871zM512.5 191.165c-105.677 0-191.572 86.414-191.572 192.613s85.896 192.613 191.572 192.613c105.677 0 191.572-86.414 191.572-192.613s-85.896-192.613-191.572-192.613zM512.5 520.689c-74.962 0-136.391-61.428-136.391-136.912s60.907-136.912 136.391-136.912c74.962 0 136.391 61.428 136.391 136.912s-61.428 136.912-136.391 136.912z" />
<glyph unicode="&#xe93d;" glyph-name="s6" d="M890.432 349.939c-4.693 247.273-172.31 446.653-377.937 446.653-205.107 0-372.732-199.381-377.937-446.653-70.798-40.087-116.609-127.020-116.609-222.806 0-135.871 91.62-246.752 204.066-246.752h580.442c112.444 0 204.066 110.883 204.066 246.752 0.529 95.266-45.292 182.202-116.088 222.806zM802.975-49.343h-580.962c-80.69 0-146.282 79.127-146.282 175.953 0 74.443 39.046 141.596 96.826 166.064l19.267 8.328v36.438c0 213.958 143.678 388.349 320.154 388.349s320.154-173.871 320.154-387.307v-36.964l19.267-8.328c58.304-24.984 96.826-91.62 96.826-166.064 0.529-97.349-65.072-176.474-145.241-176.474zM611.402 552.438c-38.005 18.738-80.168 23.431-121.814 13.021-15.615-3.652-26.025-22.39-22.902-41.645s18.738-31.23 34.355-27.595c30.189 7.287 60.907 4.164 89.020-9.369 53.098-26.025 90.579-87.455 100.472-163.982 2.082-17.697 14.574-30.189 28.636-30.189 1.57 0 3.123 0 4.693 0.529 16.144 3.123 27.066 20.82 24.472 40.087-13.533 102.032-64.551 183.763-136.912 219.163z" />
<glyph unicode="&#xe93e;" glyph-name="s7" d="M517.961-71.21c0-36.803-27.267-66.634-60.907-66.634s-60.907 29.834-60.907 66.634c0 36.803 27.267 66.634 60.907 66.634s60.907-29.834 60.907-66.634zM762.114-71.21c0-36.803-27.267-66.634-60.907-66.634s-60.907 29.834-60.907 66.634c0 36.803 27.267 66.634 60.907 66.634s60.907-29.834 60.907-66.634zM979.715 546.71c-5.734 8.857-15.103 14.062-24.984 14.062h-661.13l-42.169 227.492c-3.123 15.615-15.615 26.554-30.189 26.554h-152.53c-17.185 0-30.718-15.103-30.718-33.314s13.533-33.314 30.718-33.314h128.061l117.129-626.252c3.123-15.615 15.615-26.554 30.189-26.554h488.82c13.021 0 24.984 9.369 29.148 22.902l122.335 399.282c2.611 9.369 1.041 20.82-4.693 29.148zM810.528 161.487h-441.969l-62.469 332.648h606.47l-102.032-332.648z" />
<glyph unicode="&#xe93f;" glyph-name="s8" d="M512.494 545.151c-104.636 0-189.49-92.661-189.49-207.189s84.855-207.189 189.49-207.189 189.49 92.661 189.49 207.189-84.855 207.189-189.49 207.189zM512.494 190.122c-74.962 0-135.35 66.114-135.35 147.843s60.907 147.843 135.35 147.843 135.35-66.114 135.35-147.843-60.387-147.843-135.35-147.843zM891.997 486.329h-54.14c-11.451 30.718-26.554 59.346-45.292 85.373l27.066 51.016c22.39 42.169 8.857 96.826-30.189 121.294l-93.184 58.304c-37.479 23.943-90.061 8.857-111.403-32.272l-27.066-51.016c-29.677 4.164-60.907 4.164-90.579 0l-27.066 51.016c-21.861 41.128-73.921 56.222-111.403 32.272l-93.184-57.784c-39.046-24.472-52.579-79.127-30.189-121.294l27.066-51.016c-18.226-27.066-33.314-55.702-45.292-85.896h-54.14c-44.769 0-81.209-40.087-81.209-89.538v-117.129c0-49.456 36.438-89.020 81.209-89.020h54.14c11.451-30.718 27.066-59.346 45.292-85.373l-27.066-51.016c-22.39-42.169-8.857-96.826 30.189-121.294l93.184-58.304c38.005-23.943 90.061-8.328 111.403 32.272l27.066 51.016c30.189-4.164 60.387-4.164 90.579 0l27.066-51.016c14.574-27.066 41.645-44.251 70.278-44.251 14.574 0 28.636 4.164 41.128 11.98l93.184 58.304c39.046 24.472 52.579 79.127 30.189 121.294l-27.066 51.016c18.738 26.554 33.841 55.181 45.292 85.373h54.14c44.769 0 81.209 40.087 81.209 89.020v117.129c0 49.456-36.438 89.538-81.209 89.538zM919.068 279.659c0-16.656-11.98-30.189-27.066-30.189h-91.62l-6.246-19.779c-11.98-37.479-30.718-72.361-54.661-103.073l-12.492-16.144 45.81-86.937c7.816-14.574 3.123-32.272-10.41-40.603l-93.184-58.304c-13.021-7.816-30.189-3.123-37.479 10.41l-45.81 86.937-18.738-3.652c-35.396-7.287-73.402-7.287-109.321 0l-18.738 3.652-45.81-86.937c-7.287-14.062-24.472-18.738-37.479-10.41l-93.184 58.304c-13.533 8.328-18.226 26.554-10.41 40.603l45.81 86.937-11.98 16.656c-23.943 30.718-42.169 65.072-54.661 103.073l-6.246 19.779h-92.143c-15.103 0-27.066 13.021-27.066 30.189v116.609c0 16.656 11.98 30.189 27.066 30.189h91.62l6.246 19.779c11.98 37.479 30.718 72.361 54.661 103.073l12.492 16.144-45.81 86.937c-7.816 14.574-3.123 32.272 10.41 40.603l93.184 58.304c13.021 8.328 30.189 3.123 37.479-10.41l45.81-86.937 18.738 3.652c35.396 7.287 73.402 7.287 108.801 0l18.738-3.652 45.81 86.937c7.287 13.533 24.472 18.738 37.479 10.41l93.184-58.304c13.533-8.328 17.697-26.554 10.41-40.603l-45.81-86.937 12.492-16.144c23.943-30.718 42.169-65.072 54.661-103.073l6.246-19.779h91.62c15.103 0 27.066-13.021 27.066-30.189v-117.129z" />
<glyph unicode="&#xe940;" glyph-name="c1" d="M537.206 266.201h-266.796c-18.208 0-33.281-14.56-33.281-32.24s15.088-32.24 33.281-32.24h266.796c18.208 0 33.281 14.56 33.281 32.24 0 18.208-14.56 32.24-33.281 32.24zM704.146 436.783h-433.736c-18.208 0-33.281-14.56-33.281-32.24s15.088-32.24 33.281-32.24h433.736c18.208 0 33.281 14.56 33.281 32.24s-15.088 32.24-33.281 32.24zM270.41 542.354h233.51c18.208 0 33.281 14.56 33.281 32.24s-15.088 32.24-33.281 32.24h-233.51c-18.208 0-33.281-14.56-33.281-32.24s15.088-32.24 33.281-32.24zM120.108-30.759v738.494c0 17.68 15.088 32.24 33.281 32.24h667.246c18.208 0 33.281-14.56 33.281-32.24v-314.64h66.569v346.883c0 35.361-29.648 63.968-66.569 63.968h-733.815c-36.928 0-66.569-28.608-66.569-63.968v-802.464c0-35.361 29.648-63.968 66.569-63.968h266.796v63.968h-233.51c-18.208-0.528-33.281 14.048-33.281 31.728zM961.058 182.989l-104.012 99.852c-10.4 10.4-27.568 10.4-38.483 0l-283.956-273.036v-136.778h141.979l283.956 273.036c10.928 10.4 10.928 26.528 0.528 36.928zM656.819-74.963h-67.609v65.008l1.040 1.040 67.609-65.008-1.040-1.040zM696.344-36.999l-67.609 65.008 204.386 197.105 67.609-65.008-204.386-197.105z" />
<glyph unicode="&#xe941;" glyph-name="l1" d="M274.538 808.427h-134.047c-55.594 0-100.793-47.798-100.793-105.989v-139.761c0-58.19 45.204-105.989 100.793-105.989h134.047c55.594 0 100.793 47.798 100.793 105.989v139.761c0.527 58.19-44.681 105.989-100.793 105.989zM307.789 562.157c0-18.702-14.546-33.775-33.248-33.775h-134.047c-18.19 0-33.248 15.073-33.248 33.775v140.281c0 18.702 14.546 33.775 33.248 33.775h134.047c18.19 0 33.248-15.073 33.248-33.775v-140.281zM548.865 568.392h402.139c18.702 0 33.775 16.112 33.775 35.853s-15.073 35.853-33.775 35.853h-402.139c-18.702 0-33.775-16.112-33.775-35.853s15.073-35.853 33.775-35.853zM274.538 220.286h-134.047c-55.594 0-100.793-47.798-100.793-105.989v-139.761c0-58.19 45.204-105.989 100.793-105.989h134.047c55.594 0 100.793 47.798 100.793 105.989v139.761c0.527 58.19-44.681 105.989-100.793 105.989zM307.789-25.984c0-18.702-14.546-33.775-33.248-33.775h-134.047c-18.19 0-33.248 15.073-33.248 33.775v139.761c0 18.702 14.546 33.775 33.248 33.775h134.047c18.19 0 33.248-15.073 33.248-33.775v-139.761zM951.521 136.119h-402.658c-18.702 0-33.775-16.112-33.775-35.853s15.073-35.853 33.775-35.853h402.139c18.702 0 33.775 16.112 33.775 35.853 0.527 19.741-14.546 35.853-33.248 35.853z" />
<glyph unicode="&#xe942;" glyph-name="l2" d="M979.576 541.378l-261.856 259.259c-12.468 12.468-32.209 12.468-44.681 0l-630.745-610.482c-5.722-6.234-9.351-14.034-9.351-22.858v-271.73c0-17.663 14.546-31.697 31.697-31.697h274.847c8.312 0 16.624 3.644 22.858 9.351l617.756 623.471c11.956 12.995 11.956 32.736-0.527 44.681zM325.97-72.741h-229.126v226.527l361.612 350.7 220.813-221.332-353.3-355.9zM723.952 328.879l-219.774 220.292 190.678 184.963 217.175-215.097-188.080-190.159z" />
<glyph unicode="&#xe943;" glyph-name="l3" d="M527.565 562.678c-96.119 0-141.84-34.814-163.141-123.655l67.023-15.585c12.468 55.594 39.484 79.493 85.207 79.493 37.405 0 62.347-28.58 62.347-57.672 0-24.936-9.878-46.759-54.555-78.973-40.009-29.619-52.994-59.75-52.994-97.159v-22.346h60.789c0 0 0.527 14.034 0.527 17.663 0 27.541 8.312 47.282 47.282 73.777 58.19 40.009 73.777 71.18 73.777 115.342 0.527 56.112-46.759 109.107-126.253 109.107zM464.695 201.066h74.816v-75.855h-74.816v75.855zM919.31 91.959c-0.527 2.078-2.078 3.644-3.117 5.195 44.165 73.777 67.543 157.427 67.543 243.673 0.527 262.376-211.46 475.396-472.279 475.396s-472.798-213.019-472.798-474.876 211.98-474.876 472.798-474.876c82.611 0 163.662 22.346 234.84 63.386 2.078-1.566 4.683-3.117 7.273-4.156l189.12-63.386c3.117-1.039 6.761-1.566 9.878-1.566 8.312 0 16.112 3.117 22.346 9.351 8.312 8.312 11.429 20.78 7.8 32.209l-63.386 189.639zM773.833-14.553c-5.195 1.566-10.39 1.566-15.073 0.527-9.878 7.8-24.424 9.351-35.326 2.078-63.386-38.445-136.644-58.711-211.46-58.711-226.008 0-409.932 184.444-409.932 411.49s183.405 412.010 409.412 412.010 409.932-184.444 409.932-411.49c0-78.973-22.346-155.349-64.425-221.332-7.273-11.429-6.234-25.463 1.566-35.853 0-4.156 0-7.8 1.566-11.956l43.126-129.889-129.37 43.126z" />
<glyph unicode="&#xe944;" glyph-name="l5" d="M722.663 371.74h-420.843c-19.741 0-35.853-15.073-35.853-33.248s16.112-33.248 35.853-33.248h421.361c19.741 0 35.853 15.073 35.853 33.248s-16.112 33.248-36.366 33.248zM722.663 163.397h-420.843c-19.741 0-35.853-15.073-35.853-33.248s16.112-33.248 35.853-33.248h421.361c19.741 0 35.853 15.073 35.853 33.248 0 18.702-16.112 33.248-36.366 33.248zM862.944 834.666h-701.405c-58.711 0-106.511-44.681-106.511-99.237v-793.886c0-54.555 47.798-99.237 106.511-99.237h701.922c58.711 0 106.511 44.681 106.511 99.237v793.886c-0.527 54.555-48.321 99.237-107.029 99.237zM897.233-58.454c0-18.19-15.073-33.248-34.287-33.248h-701.405c-18.702 0-34.287 15.073-34.287 33.248v793.886c0 18.19 15.073 33.248 34.287 33.248h701.922c18.702 0 34.287-15.073 34.287-33.248v-793.886zM301.82 513.58h280.562c19.741 0 35.853 15.073 35.853 33.248s-16.112 33.248-35.853 33.248h-280.562c-19.741 0-35.853-15.073-35.853-33.248-0.527-18.702 15.585-33.248 35.853-33.248z" />
<glyph unicode="&#xe945;" glyph-name="l6" d="M417.941 819.078c-208.863 0-378.238-171.974-378.238-384.473s169.375-384.473 378.238-384.473 378.238 171.974 378.238 384.473-169.375 384.473-378.238 384.473zM417.941 146.251c-156.388 0-283.679 129.37-283.679 288.355s127.292 288.355 283.679 288.355 283.679-129.37 283.679-288.355c0-158.985-127.292-288.355-283.679-288.355zM985.299-74.042l-67.023-68.062-200.55 203.668 67.023 68.062 200.55-203.668z" />
<glyph unicode="&#xe946;" glyph-name="l7" d="M761.37 533.843l208.342-222.371-65.984-70.66-208.342 222.371-208.342-222.371-65.984 70.66 208.342 222.371-208.342 222.371 65.984 70.66 208.342-222.371 208.342 222.371 65.984-70.66-208.342-222.371zM878.272-52.222h-731.539v781.416h182.885v97.676h-274.328v-976.771h914.424v293.031h-91.442v-195.354z" />
<glyph unicode="&#xe947;" glyph-name="l11" d="M635.103 76.63l-21.819 22.858-101.315-105.989-91.442 95.080-21.307-22.346 90.924-95.080-101.315-105.989 21.819-22.858 101.315 105.989 111.706-116.381 21.307 22.346-111.706 116.901zM953.591-60.534c-3.644 187.561-149.633 344.988-341.871 386.033 93.52 41.048 158.985 137.164 158.985 249.388 0 149.113-116.381 270.172-258.739 270.172s-258.739-121.058-258.739-270.172c0-111.706 65.464-208.342 158.466-248.869-195.354-41.048-341.349-198.991-341.349-387.072v-16.112h213.019v31.697h-182.366c9.351 194.835 190.159 350.183 410.971 350.183 217.175 0 397.982-155.867 410.451-350.183-16.112 0.527-43.641 0.527-67.023 0.527-89.364 1.039-89.364 1.039-95.080-4.683l10.917-11.429 2.605-15.585c5.722 0.527 47.798 0 81.572-0.527 27.541-0.527 46.243-0.527 59.75-0.527 29.619 0 30.658 1.039 34.814 5.195l4.683 4.683-1.039 7.273zM283.36 574.887c0 131.448 102.354 238.478 228.606 238.478s228.606-107.029 228.606-238.478-102.354-238.478-228.606-238.478-228.606 107.029-228.606 238.478z" />
<glyph unicode="&#xe948;" glyph-name="l10" d="M378.973 575.404l150.152-151.711 395.903 400.58 68.062-68.582-463.966-469.161-218.214 220.292 68.062 68.582zM896.973-50.145h-768.947v777.26h384.473v97.159h-480.591v-971.575h961.185v485.787h-96.119v-388.63z" />
<glyph unicode="&#xe949;" glyph-name="l21" d="M975.429 819.077c-4.156 10.917-14.034 18.19-24.936 18.19h-875.976c-10.917 0-20.78-7.273-24.936-18.19s-1.566-23.385 6.234-31.697l321.607-339.793v-461.368c0-16.112 11.956-29.092 27.014-29.092s27.014 12.995 27.014 29.092v473.318c0 7.8-3.117 15.073-8.312 20.78l-282.64 298.746h742.45l-275.886-285.238c-5.195-5.722-8.312-12.995-8.312-20.78v-604.247c0-16.112 11.956-29.092 27.014-29.092s27.014 12.995 27.014 29.092v591.778l316.411 326.803c7.8 8.312 10.39 20.78 6.234 31.697zM902.69 197.686h-161.063c-15.073 0-27.014-12.995-27.014-29.092s11.956-29.092 27.014-29.092h161.063c15.073 0 27.014 12.995 27.014 29.092 0.527 16.112-11.956 29.092-27.014 29.092zM902.69 372.259h-161.063c-15.073 0-27.014-12.995-27.014-29.092s11.956-29.092 27.014-29.092h161.063c15.073 0 27.014 12.995 27.014 29.092s-11.956 29.092-27.014 29.092zM902.69 23.632h-161.063c-15.073 0-27.014-12.995-27.014-29.092s11.956-29.092 27.014-29.092h161.063c15.073 0 27.014 12.995 27.014 29.092 0.527 16.112-11.956 29.092-27.014 29.092z" />
<glyph unicode="&#xe94a;" glyph-name="z1" d="M1000.885 384.728c0 152.75-130.928 275.886-293.031 275.886h-390.708c-161.583 0-293.031-123.655-293.031-275.886v-91.963c0-152.75 131.448-276.406 293.031-276.406h390.708c162.102 0 293.031 123.655 293.031 275.886v92.481zM903.207 292.246c0-101.832-87.285-183.924-195.354-183.924h-390.708c-108.068 0-195.354 82.611-195.354 183.924v92.481c0 101.832 87.285 183.924 195.354 183.924h390.708c108.068 0 195.354-82.611 195.354-183.924v-92.481zM536.92 347.839c0-76.376-65.464-138.203-146.516-138.203s-146.516 61.828-146.516 138.203 65.464 138.203 146.516 138.203 146.516-61.828 146.516-138.203z" />
<glyph unicode="&#xe94b;" glyph-name="z2" d="M1000.885 383.169c0 148.594-130.928 269.652-293.031 269.652h-390.708c-162.102 0-293.031-120.537-293.031-269.652v-89.885c0-148.594 130.928-269.133 293.031-269.133h390.708c162.102 0 293.031 120.537 293.031 269.652v89.364zM903.207 293.805c0-99.237-87.285-179.768-195.354-179.768h-390.708c-108.068 0-195.354 80.532-195.354 179.768v89.364c0 99.237 87.285 179.768 195.354 179.768h390.708c108.068 0 195.354-80.532 195.354-179.768v-89.364zM492.755 341.606c0 74.297 65.464 134.566 146.516 134.566s146.516-60.269 146.516-134.566-65.464-134.566-146.516-134.566-146.516 60.269-146.516 134.566z" />
<glyph unicode="&#xe94c;" glyph-name="t1" d="M645.765 188.334c-8.312-7.8-11.956-19.229-9.878-30.658l12.468-71.699c3.644-22.346-14.034-40.523-34.287-40.523-5.195 0-10.917 1.039-16.112 4.156l-65.464 33.775c-5.195 2.605-10.917 4.156-16.112 4.156-5.722 0-11.429-1.566-16.112-4.156l-65.464-33.775c-5.195-2.605-10.917-4.156-16.112-4.156-20.268 0-38.445 18.19-34.287 40.523l12.468 71.699c2.078 11.429-1.566 22.858-9.878 30.658l-52.994 50.916c-20.78 19.741-9.351 55.073 19.229 58.711l72.738 10.39c11.429 1.566 21.307 8.839 26.502 18.702l32.736 65.464c6.234 12.995 18.702 19.229 31.17 19.229s24.936-6.234 31.17-19.229l32.736-65.464c5.195-10.39 15.073-17.151 26.502-18.702l72.738-10.39c28.58-4.156 40.009-38.97 19.229-58.711l-52.994-50.916zM921.651 228.34c0 217.696-186.002 393.825-415.648 393.825s-415.648-176.65-415.648-393.825 186.002-393.825 415.648-393.825 415.648 176.65 415.648 393.825zM148.547 228.34c0 187.041 160.024 339.271 357.456 339.271s357.456-151.711 357.456-339.271c0-187.041-160.024-339.271-357.456-339.271s-357.456 152.232-357.456 339.271zM631.737 842.459v-270.172c0-12.468 7.8-16.112 18.19-7.8l229.126 193.276c55.594 46.759 40.009 84.689-34.814 84.689h-212.501zM409.365 842.459v-270.172c0-12.468-7.8-16.112-18.19-7.8l-229.126 193.276c-55.594 46.759-40.009 84.689 34.814 84.689h212.501z" />
<glyph unicode="&#xe94d;" glyph-name="t2" d="M298.186 423.162c0-36.892-30.131-66.504-67.023-66.504s-67.023 29.619-67.023 66.504c0 36.892 30.131 66.504 67.023 66.504s67.023-29.619 67.023-66.504zM465.484 423.162c0-36.892-30.131-66.504-67.023-66.504s-67.023 29.619-67.023 66.504c0 36.892 30.131 66.504 67.023 66.504s67.023-29.619 67.023-66.504zM565.758 489.665c36.892 0 67.023-29.619 67.023-66.504s-30.131-66.504-67.023-66.504c-36.892 0-67.023 29.619-67.023 66.504s30.131 66.504 67.023 66.504zM950.232-134.844c-2.605 0-5.195 0.527-7.8 1.039-301.344 75.855-281.081-9.351-448.899 35.853-50.916 13.507-96.637 37.931-136.644 70.14 303.943-37.405 558.007 229.126 512.803 542.941 45.72-48.321 79.493-107.55 94.041-174.052 40.523-189.12-62.347-156.906 11.956-444.742 4.683-17.663-10.39-31.17-25.463-31.17zM650.448 735.935c-204.707 180.288-522.673 77.934-593.336-189.12-29.619-112.224-1.039-164.18-1.039-248.349 0-86.767-35.326-211.98-35.326-211.98 0-15.585 13.507-30.131 30.131-25.975 59.75 15.585 154.31 46.759 267.574 15.585 381.356-103.91 626.068 401.1 331.998 659.839z" />
<glyph unicode="&#xe94e;" glyph-name="t3" d="M964.517 599.826l-209.381 227.048-472.798-473.318v-264.455h242.634l439.546 510.725zM759.811 697.499l77.934-83.65-60.789-69.621-81.572 87.806 64.425 65.464zM371.18 184.697v128.85l253.025 252.505 88.324-104.949-225.488-275.886h-115.862zM60.484-54.303h887.408v-95.598h-887.408v95.598z" />
<glyph unicode="&#xe94f;" glyph-name="t4" d="M700.062 624.244h285.238v-776.741h-945.598v776.741h283.679l188.6 205.225 188.080-205.225zM511.978 679.834l-54.555-56.112h109.107l-54.555 56.112zM134.261-55.342h756.478v582.426h-756.478v-582.426zM796.181 41.815h-567.359l213.54 300.305 134.047-184.963 65.984 90.924 153.789-206.264zM607.060 405.507c0 27.014 21.307 48.321 47.282 48.321s47.282-21.819 47.282-48.321c0-27.014-21.307-48.321-47.282-48.321s-47.282 21.819-47.282 48.321z" />
<glyph unicode="&#xe950;" glyph-name="m1" d="M512.5 805.633c-263.676 0-477.527-209.177-477.527-467.146s213.849-467.146 477.527-467.146 477.527 209.177 477.527 467.146-213.849 467.146-477.527 467.146zM485.512 157.857v0 0l-195.683 199.316 78.377 79.934 117.305-119.381 235.131 238.763 78.377-79.934-313.507-318.698z" />
<glyph unicode="&#xe951;" glyph-name="m2" d="M512.5 816.014c-257.448 0-467.146-214.369-467.146-477.527s209.697-477.527 467.146-477.527 467.146 214.369 467.146 477.527-209.697 477.527-467.146 477.527zM512.5 703.901c187.896 0 341.537-148.967 356.069-336.864h-712.138c14.532 187.896 168.172 336.864 356.069 336.864z" />
<glyph unicode="&#xe952;" glyph-name="m3" d="M512.5-139.041c-260.562 0-472.336 214.369-472.336 477.527s211.773 477.527 472.336 477.527 472.336-214.369 472.336-477.527-211.773-477.527-472.336-477.527zM512.5 703.9c-199.316 0-361.259-164.020-361.259-365.411s161.944-365.411 361.259-365.411 361.259 164.020 361.259 365.411-161.944 365.411-361.259 365.411z" />
<glyph unicode="&#xe953;" glyph-name="m4" d="M766.316 400.773v311.431h-746.915v-747.434h746.915v311.431l239.283-124.572v373.717l-239.283-124.572zM721.677 400.773v-389.288h-657.638v654.005h657.638v-264.716zM960.959 227.409l-174.4 90.835-39.445 20.248 39.445 20.76 174.4 90.835v-222.673zM258.684 494.203v-332.193l287.555 166.096z" />
<glyph unicode="&#xe954;" glyph-name="m5" d="M715.45 810.826h-644.143v-506.593h51.904v455.209h569.919l10.38-11.418v-203.469h188.935l9.342-9.868v-617.153h-488.946v-51.388h540.854v688.781zM502.117 512.37l-396.555-395.516v-209.177h175.958l403.822 421.988-183.226 182.706zM259.205-40.417h-101.733v135.992l344.651 344.13 110.559-110.038-353.475-370.084z" />
<glyph unicode="&#xe955;" glyph-name="m6" d="M731.537 810.821h-677.362v-638.953h54.502v588.086h598.986l11.418-11.944v-201.392h198.797l9.868-9.868v-611.962h-587.047v-50.866h641.548v683.072zM443.983 30.17c125.092 0 226.826 95.505 226.826 212.811s-101.733 212.811-226.826 212.811-226.826-95.505-226.826-212.811c0-49.312 18.172-94.987 48.79-131.32l-223.192-209.177 38.407-36.33 223.192 209.697c38.407-28.552 87.2-45.675 139.625-45.675zM443.983 404.925c94.987 0 172.324-72.667 172.324-161.944s-77.339-161.944-172.324-161.944-172.324 72.667-172.324 161.944 77.339 161.944 172.324 161.944z" />
<glyph unicode="&#xe956;" glyph-name="m7" d="M512.5 831.585c-227.864 0-412.646-157.791-412.646-352.435s412.646-633.761 412.646-633.761 412.646 439.636 412.646 633.761-184.782 352.435-412.646 352.435zM182.386 479.148c0 155.715 147.929 281.845 330.116 281.845s330.116-126.13 330.116-281.845-330.116-539.816-330.116-539.816-330.116 384.618-330.116 539.816zM677.561 479.148c0-77.858-73.705-140.663-165.058-140.663s-165.058 63.324-165.058 140.663 73.705 140.663 165.058 140.663 165.058-62.806 165.058-140.663z" />
<glyph unicode="&#xe957;" glyph-name="cc003" d="M1025.455-74.16c-0.158-9.599-4.34-18.204-10.936-24.198l-51.931-51.929c-5.463-5.696-13.145-9.229-21.642-9.229-0.095 0-0.19 0-0.285 0.001-8.312 0.92-15.67 4.478-21.347 9.824l-403.688 403.689-403.706-403.706c-5.829-5.735-13.815-9.266-22.643-9.266-0.562 0-1.107 0.014-1.663 0.041-0.389-0.027-0.948-0.041-1.497-0.041-8.828 0-16.813 3.531-22.647 9.271l-50.172 51.9c-6.696 5.851-10.91 14.399-10.91 23.931s4.206 18.090 10.87 23.899l474.681 482.75c5.463 5.696 13.145 9.229 21.642 9.229 0.095 0 0.19 0 0.285-0.001 9.296-0.049 17.778-3.533 24.247-9.262l480.372-480.377c6.775-6.145 11.007-14.979 11.007-24.799 0-0.614-0.016-1.211-0.048-1.817zM1025.455 320.897c-0.158-9.599-4.34-18.204-10.936-24.198l-51.931-51.929c-5.463-5.696-13.145-9.229-21.642-9.229-0.095 0-0.19 0-0.285 0.001-9.296 0.049-17.778 3.533-24.247 9.262l-403.668 403.673-403.706-403.706c-5.829-5.735-13.815-9.266-22.643-9.266-0.562 0-1.107 0.014-1.663 0.041-0.389-0.027-0.948-0.041-1.497-0.041-8.828 0-16.813 3.531-22.647 9.271l-50.172 51.9c-6.696 5.851-10.91 14.399-10.91 23.931s4.206 18.090 10.87 23.899l477.564 481.020c5.080 6.644 13 10.916 21.904 10.963 9.606-0.158 18.211-4.34 24.205-10.936l480.435-480.438c6.609-6.026 10.795-14.617 10.963-24.193z" />
<glyph unicode="&#xe958;" glyph-name="cc004" d="M1026.95 355.537c-0.158-9.599-4.34-18.204-10.936-24.198l-480.438-479.859c-5.536-6.725-13.867-10.98-23.191-10.98-0.358 0-0.728 0.006-1.082 0.019-0.336-0.023-0.804-0.036-1.26-0.036-8.544 0-16.091 4.322-20.546 10.911l-480.466 480.497c-6.696 5.851-10.91 14.399-10.91 23.931s4.206 18.090 10.87 23.899l50.214 52.514c6.308 5.708 14.711 9.193 23.931 9.193s17.623-3.484 23.962-9.22l403.676-403.679 403.706 403.706c5.829 5.735 13.815 9.266 22.643 9.266 0.562 0 1.107-0.014 1.663-0.041 0.442 0.040 1.060 0.060 1.683 0.060 8.054 0 15.269-3.58 20.133-9.251l51.934-51.94c8.078-5.585 13.528-14.478 14.41-24.675zM1026.95 750.593c-0.158-9.599-4.34-18.204-10.936-24.198l-480.438-479.859c-5.829-5.735-13.815-9.266-22.643-9.266-0.562 0-1.107 0.014-1.663 0.041-0.442-0.040-1.060-0.060-1.683-0.060-8.054 0-15.269 3.58-20.133 9.251l-480.441 480.446c-6.609 6.026-10.795 14.617-10.963 24.193 0.158 9.627 4.339 18.232 10.936 24.227l50.204 51.929c6.308 5.708 14.711 9.193 23.931 9.193s17.623-3.484 23.962-9.22l403.676-403.679 403.706 403.706c5.808 5.61 13.717 9.080 22.452 9.080 1.851 0 3.667-0.153 5.42-0.447 0.33 0.063 0.948 0.084 1.571 0.084 8.054 0 15.269-3.58 20.133-9.251l51.934-51.94c6.477-5.899 10.626-14.258 10.961-23.59z" />
<glyph unicode="&#xe959;" glyph-name="cc012" d="M5.662 132.579v411.815c-0.008 0.518-0.012 1.112-0.012 1.722 0 34.242 13.934 65.233 36.434 87.61 22.080 23.079 53.115 37.416 87.497 37.416 0.981 0 1.961-0.012 2.936-0.034l760.131 0.003c0.833 0.021 1.812 0.032 2.794 0.032 34.383 0 65.42-14.338 87.449-37.365 22.55-22.424 36.482-53.415 36.482-87.66 0-0.609-0.004-1.204-0.013-1.811l0.001-411.725c0.009-0.575 0.015-1.239 0.015-1.917 0-68.931-55.881-124.811-124.811-124.811-0.678 0-1.341 0.005-2.017 0.016l-760.175-0.001c-0.906-0.023-1.971-0.037-3.038-0.037-34.132 0-65.005 13.951-87.231 36.452-22.528 22.251-36.478 53.127-36.478 87.256 0 1.067 0.014 2.132 0.040 3.193zM69.018 132.579c-0.008-0.36-0.013-0.8-0.013-1.226 0-17.037 7.041-32.425 18.367-43.421 11.488-11.558 27.383-18.708 44.95-18.708 0.018 0 0.035 0 0.052 0h760.272c0.019 0 0.040 0 0.062 0 17.574 0 33.418 7.412 44.571 19.289 11.544 10.665 18.741 25.836 18.741 42.681 0 0.479-0.006 0.972-0.018 1.449l-247.088 185.246-138.117-102.637c-15.69-12.645-35.858-20.29-57.812-20.29s-42.129 7.655-57.991 20.428l-137.939 102.498zM69.018 172.177l221.747 166.31-221.747 166.31zM69.018 544.395l248.040-186.902 27.243-19.321 130.831-99.469c10.362-7.7 23.409-12.315 37.536-12.315s27.174 4.629 37.708 12.435l405.626 305.573c0 0.015 0 0.032 0 0.050 0 17.401-7.018 33.169-18.374 44.618-10.308 11.537-25.243 18.776-41.867 18.776-1.094 0-2.181-0.031-3.26-0.092l-760.126 0.007c-17.388-0.252-33.048-7.473-44.339-18.999-11.72-10.333-19.063-25.37-19.063-42.125 0-0.79 0.016-1.575 0.048-2.344zM734.259 338.488l221.747-166.31v332.62z" />
<glyph unicode="&#xe95a;" glyph-name="cc013" d="M877.673 566.26l-19.137 134.139-120.094 60.046-93.837 97.094-132.105-22.997-132.105 22.997-93.632-97.094-120.297-60.046-20.358-134.139-61.064-119.892 62.286-120.094 20.358-134.139 107.881-53.94v-275.403l103.606 45.391v-88.748l133.326 54.349 134.545-54.349v88.952l103.606-45.391v275.403l107.881 53.735 20.358 134.139 61.064 120.094zM377.96-24.032l-42.54-18.724v124.368l42.54-43.968zM585.784-64.742v-24.43l-73.277 29.31-73.277-29.518v134.545l73.277 12.819 73.277-12.819zM689.392-42.758l-42.54 18.724v61.064l42.54 43.968zM817.831 345.615l-16.287-112.36-101.774-50.279-78.367-81.421-107.271 18.523h-7.326l-107.067-18.523-78.367 81.421-101.774 50.279-12.416 112.36-53.127 100.756 53.127 100.553 16.287 112.36 101.774 50.279 78.367 81.421 108.899-19.137 110.732 19.341 78.367-81.421 101.774-50.279 16.287-112.36 52.109-100.553z" />
<glyph unicode="&#xe95b;" glyph-name="cc015" d="M308.554 587.241l-47.14-47.14 202.195-202.391-200.638-200.638 47.14-47.14 200.638 200.638 203.951-203.951 46.362 47.14-203.17 204.144 205.702 205.702-46.943 46.943-205.702-205.702zM512.5-172.452c-282.188 0-510.943 228.757-510.943 510.943s228.757 510.943 510.943 510.943c282.119 0 510.834-228.647 510.943-510.741-0.219-282.147-228.823-510.818-510.913-511.153zM512.5 791.194c-249.912 0-452.507-202.595-452.507-452.507s202.595-452.507 452.507-452.507c249.912 0 452.507 202.595 452.507 452.507-0.328 249.78-202.729 452.175-452.475 452.507z" />
<glyph unicode="&#xe95c;" glyph-name="cc016" d="M458.131 74.694l402.726 402.726c7.25 7.609 11.719 17.927 11.719 29.285s-4.456 21.688-11.734 29.302l-67.349 66.616c-7.609 7.25-17.927 11.719-29.285 11.719s-21.688-4.456-29.302-11.734l-306.056-306.057-138.758 138.391c-7.308 7.886-17.729 12.804-29.285 12.804s-21.978-4.919-29.263-12.779l-66.656-67.024c-7.25-7.609-11.719-17.927-11.719-29.285s4.456-21.688 11.734-29.302l234.665-234.664c7.308-7.886 17.729-12.804 29.285-12.804s21.978 4.919 29.263 12.779zM1014.995 652.796v-628.62c0.013-0.809 0.021-1.761 0.021-2.715 0-50.915-21.038-96.912-54.894-129.78-33.878-34.838-81.136-56.425-133.437-56.425-0.084 0-0.165 0-0.249 0h-627.51c-0.811-0.013-1.767-0.021-2.724-0.021-51.529 0-98.004 21.64-130.835 56.319-34.198 33.365-55.367 79.798-55.367 131.177 0 0.514 0.002 1.013 0.006 1.525l-0.001 628.542c-0.013 0.809-0.021 1.761-0.021 2.715 0 50.915 21.038 96.912 54.894 129.78 33.878 34.839 81.137 56.425 133.438 56.425 0.21 0 0.419 0 0.643-0.001h627.123c0.811 0.013 1.767 0.021 2.724 0.021 51.529 0 98.004-21.64 130.835-56.319 34.198-33.365 55.367-79.798 55.367-131.177 0-0.514-0.002-1.013-0.006-1.525z" />
<glyph unicode="&#xe95d;" glyph-name="cc017" d="M730.229 386.997l217.73 217.73c3.865 4.121 6.231 9.683 6.231 15.796s-2.367 11.67-6.242 15.81l-36.089 36.088c-4.121 3.865-9.683 6.231-15.796 6.231s-11.67-2.367-15.81-6.242l-165.823-165.259-75.021 75.021c-3.933 4.271-9.546 6.945-15.796 6.945s-11.867-2.674-15.781-6.931l-36.116-36.117c-3.865-4.121-6.231-9.683-6.231-15.796s2.367-11.67 6.242-15.81l126.903-127.466c3.933-4.271 9.546-6.945 15.796-6.945s11.867 2.674 15.781 6.931zM1.456 849.532h1022.089v-1022.089z" />
</font>
</defs>
</svg>
